<svg id="svg" version="1.1" xmlns="http://www.w3.org/2000/svg" xmlns:xlink="http://www.w3.org/1999/xlink" width="400" height="400" viewBox="0, 0, 400,400"><g id="svgg"><path id="path0" d="M278.600 107.600 C 278.464 107.820,278.491 108.000,278.660 108.000 C 278.828 108.000,278.190 108.791,277.241 109.758 C 276.292 110.725,275.295 111.940,275.025 112.458 C 274.755 112.976,274.311 113.350,274.037 113.290 C 273.726 113.221,273.624 113.446,273.764 113.890 C 273.888 114.280,273.624 115.140,273.177 115.800 C 272.731 116.460,272.118 117.573,271.814 118.273 C 270.918 120.343,269.239 120.947,265.123 120.680 C 262.836 120.532,261.523 120.601,261.351 120.879 C 261.181 121.154,260.121 121.215,258.344 121.049 C 256.438 120.872,255.600 120.931,255.600 121.241 C 255.600 121.516,255.062 121.625,254.200 121.524 C 253.430 121.434,252.800 121.517,252.800 121.709 C 252.800 121.901,251.809 121.934,250.597 121.782 C 249.301 121.620,248.189 121.670,247.897 121.903 C 247.277 122.397,245.029 122.830,243.259 122.795 C 242.522 122.781,241.675 122.972,241.377 123.219 C 241.079 123.467,240.647 123.553,240.418 123.411 C 240.188 123.269,240.000 123.330,240.000 123.547 C 240.000 123.785,239.083 123.861,237.700 123.739 C 236.191 123.606,235.585 123.666,235.938 123.915 C 236.313 124.179,235.786 124.352,234.202 124.483 C 232.950 124.587,231.791 124.891,231.625 125.159 C 231.437 125.465,230.928 125.547,230.262 125.380 C 229.586 125.210,229.200 125.276,229.200 125.561 C 229.200 125.859,228.629 125.930,227.500 125.772 C 226.237 125.596,225.954 125.645,226.400 125.962 C 226.730 126.196,226.820 126.403,226.600 126.421 C 226.189 126.456,224.264 126.769,223.200 126.973 C 222.870 127.037,222.294 127.220,221.919 127.380 C 221.545 127.540,221.050 127.554,220.819 127.412 C 220.589 127.269,220.400 127.359,220.400 127.612 C 220.400 127.921,219.848 127.994,218.700 127.837 C 217.495 127.671,217.233 127.711,217.800 127.973 C 218.571 128.330,218.567 128.347,217.700 128.422 C 216.423 128.533,216.260 128.574,215.700 128.930 C 215.425 129.104,215.020 129.136,214.800 129.000 C 214.580 128.864,214.400 128.964,214.400 129.223 C 214.400 129.509,214.008 129.618,213.400 129.502 C 212.850 129.397,212.400 129.486,212.400 129.701 C 212.400 129.915,211.870 130.013,211.221 129.918 C 210.573 129.823,210.121 129.873,210.218 130.030 C 210.371 130.277,209.000 130.837,207.800 131.017 C 207.580 131.050,207.085 131.214,206.700 131.381 C 206.315 131.549,205.730 131.582,205.400 131.455 C 205.070 131.329,204.800 131.419,204.800 131.656 C 204.800 131.921,204.377 131.989,203.700 131.831 C 202.884 131.642,202.755 131.680,203.200 131.982 C 203.700 132.320,203.663 132.389,202.980 132.394 C 202.529 132.397,201.962 132.598,201.720 132.840 C 201.478 133.082,200.632 133.280,199.840 133.280 C 199.048 133.280,198.400 133.462,198.400 133.683 C 198.400 133.919,197.942 133.980,197.300 133.831 C 196.567 133.661,196.384 133.699,196.753 133.944 C 197.409 134.382,196.230 134.855,194.041 135.033 C 193.294 135.093,192.547 135.362,192.382 135.630 C 192.216 135.898,191.793 136.006,191.440 135.871 C 191.032 135.714,190.800 135.838,190.800 136.213 C 190.800 136.537,190.397 136.827,189.900 136.861 C 188.430 136.960,188.225 137.006,187.673 137.351 C 187.384 137.532,187.042 137.575,186.913 137.446 C 186.784 137.318,186.425 137.525,186.114 137.906 C 185.703 138.412,185.493 138.465,185.342 138.100 C 185.029 137.351,184.083 137.498,183.617 138.368 C 183.149 139.242,180.670 140.189,179.763 139.841 C 179.430 139.714,179.263 139.778,179.390 139.985 C 179.591 140.309,178.163 141.371,177.600 141.316 C 177.490 141.305,176.971 141.459,176.447 141.658 C 175.923 141.857,175.169 141.917,174.772 141.791 C 174.301 141.642,173.902 141.836,173.628 142.347 C 173.396 142.781,172.264 143.442,171.104 143.821 C 169.947 144.200,168.308 144.858,167.461 145.283 C 166.615 145.708,165.630 145.944,165.273 145.807 C 164.916 145.670,164.749 145.682,164.902 145.835 C 165.054 145.987,164.534 146.458,163.747 146.880 C 162.959 147.302,162.222 147.555,162.109 147.443 C 161.997 147.330,161.643 147.500,161.324 147.819 C 161.004 148.139,160.531 148.397,160.271 148.394 C 159.995 148.390,160.048 148.227,160.400 148.000 C 160.820 147.729,160.846 147.610,160.487 147.606 C 160.206 147.603,159.869 147.877,159.739 148.215 C 159.448 148.973,156.884 150.091,156.258 149.733 C 156.006 149.589,155.931 149.616,156.090 149.793 C 156.494 150.239,152.888 152.097,152.288 151.752 C 152.020 151.598,151.931 151.616,152.090 151.793 C 152.485 152.230,148.891 154.103,148.326 153.754 C 148.052 153.585,147.988 153.656,148.162 153.938 C 148.319 154.192,148.253 154.400,148.016 154.400 C 147.778 154.400,146.871 154.850,146.000 155.400 C 144.229 156.518,143.817 156.635,144.242 155.900 C 144.401 155.625,144.060 155.895,143.485 156.500 C 142.461 157.577,142.233 157.676,140.600 157.759 C 140.160 157.782,139.843 158.020,139.896 158.288 C 139.995 158.791,138.481 159.814,138.141 159.474 C 138.036 159.370,137.489 159.712,136.925 160.234 C 136.361 160.757,135.715 161.071,135.489 160.931 C 135.263 160.792,134.845 160.998,134.559 161.389 C 134.252 161.808,133.776 162.000,133.398 161.855 C 133.025 161.711,132.861 161.775,133.005 162.007 C 133.140 162.226,132.924 162.530,132.525 162.683 C 132.126 162.835,131.620 163.106,131.400 163.285 C 130.150 164.304,128.032 165.499,127.833 165.299 C 127.705 165.171,127.600 165.355,127.600 165.706 C 127.600 166.402,126.255 167.005,125.604 166.602 C 125.382 166.465,125.200 166.591,125.200 166.883 C 125.200 167.592,120.923 170.123,120.337 169.761 C 120.051 169.584,119.985 169.653,120.164 169.942 C 120.340 170.227,119.956 170.678,119.176 171.104 C 118.474 171.487,117.427 172.178,116.850 172.640 C 116.272 173.103,115.575 173.403,115.300 173.307 C 115.025 173.212,114.800 173.339,114.800 173.590 C 114.800 173.842,114.620 173.936,114.400 173.800 C 114.180 173.664,114.000 173.827,114.000 174.162 C 114.000 174.498,113.640 174.965,113.200 175.200 C 112.760 175.435,112.400 175.542,112.400 175.437 C 112.400 175.331,111.829 175.766,111.131 176.404 C 110.434 177.041,109.733 177.482,109.573 177.384 C 109.414 177.285,109.181 177.474,109.054 177.802 C 108.928 178.131,108.629 178.400,108.389 178.400 C 108.149 178.400,108.081 178.192,108.238 177.938 C 108.421 177.643,108.347 177.585,108.035 177.778 C 107.767 177.944,107.640 178.174,107.754 178.288 C 107.995 178.528,107.606 178.912,105.314 180.700 C 103.586 182.048,102.947 182.333,103.438 181.538 C 103.616 181.250,103.548 181.185,103.255 181.366 C 102.998 181.525,102.873 181.794,102.978 181.964 C 103.238 182.385,100.874 184.093,100.419 183.812 C 100.219 183.688,99.925 183.798,99.766 184.055 C 99.570 184.372,99.659 184.420,100.038 184.203 C 100.836 183.748,99.300 185.173,97.342 186.704 C 95.633 188.041,94.940 188.344,95.438 187.538 C 95.616 187.250,95.548 187.185,95.255 187.366 C 94.998 187.525,94.881 187.807,94.995 187.992 C 95.109 188.177,93.378 189.830,91.148 191.664 C 88.918 193.499,86.847 195.238,86.546 195.529 C 86.185 195.878,86.000 195.904,86.000 195.605 C 86.000 195.356,85.817 195.266,85.593 195.404 C 85.370 195.542,85.279 195.804,85.392 195.986 C 85.504 196.169,84.600 197.191,83.382 198.259 C 82.163 199.326,79.800 201.501,78.130 203.091 C 76.460 204.681,74.933 205.882,74.737 205.761 C 74.541 205.640,74.422 205.689,74.474 205.870 C 74.525 206.052,72.957 207.730,70.989 209.600 C 69.021 211.470,67.758 212.587,68.183 212.083 C 68.825 211.320,68.844 211.208,68.293 211.420 C 67.929 211.560,67.524 212.008,67.395 212.416 C 67.265 212.825,66.808 213.270,66.380 213.406 C 65.951 213.543,65.600 213.844,65.600 214.076 C 65.600 214.322,65.884 214.270,66.283 213.949 C 67.304 213.128,64.826 216.372,63.100 218.115 C 61.326 219.907,61.291 220.099,62.600 220.800 C 63.150 221.094,63.600 221.510,63.600 221.723 C 63.600 222.285,64.881 223.172,65.713 223.187 C 66.105 223.194,66.589 223.605,66.788 224.100 C 66.987 224.595,67.161 224.770,67.175 224.488 C 67.212 223.743,69.598 225.596,69.606 226.375 C 69.612 226.925,69.659 226.928,70.000 226.400 C 70.258 226.000,70.390 225.967,70.394 226.300 C 70.397 226.575,70.670 226.800,71.000 226.800 C 71.330 226.800,71.600 226.980,71.600 227.200 C 71.600 227.420,71.870 227.600,72.200 227.600 C 72.530 227.600,72.803 227.915,72.806 228.300 C 72.811 228.821,72.897 228.867,73.141 228.481 C 73.403 228.069,73.580 228.094,74.004 228.605 C 74.496 229.197,75.694 229.887,79.100 231.537 C 79.815 231.883,80.400 232.309,80.400 232.483 C 80.400 232.658,80.670 232.800,81.000 232.800 C 81.330 232.800,81.600 232.944,81.600 233.121 C 81.600 233.298,82.500 233.766,83.600 234.161 C 84.843 234.608,85.600 235.118,85.600 235.507 C 85.600 235.851,85.708 236.026,85.839 235.894 C 86.109 235.624,93.331 239.138,93.526 239.634 C 93.595 239.811,93.910 239.856,94.226 239.735 C 94.572 239.602,94.800 239.760,94.800 240.134 C 94.800 240.544,95.078 240.700,95.620 240.596 C 96.085 240.507,96.536 240.688,96.662 241.017 C 96.784 241.335,97.045 241.496,97.242 241.374 C 97.439 241.252,97.600 241.354,97.600 241.600 C 97.600 241.846,97.767 241.944,97.970 241.819 C 98.392 241.558,100.459 242.383,100.878 242.980 C 101.031 243.198,101.282 243.252,101.434 243.099 C 101.587 242.946,102.182 243.066,102.756 243.365 C 105.157 244.615,108.267 245.895,113.600 247.828 C 115.250 248.425,116.780 249.041,117.000 249.195 C 117.220 249.350,118.300 249.709,119.400 249.994 C 121.379 250.507,124.014 251.553,124.400 251.979 C 124.510 252.101,125.223 252.251,125.984 252.313 C 126.746 252.375,127.488 252.618,127.633 252.853 C 127.778 253.088,128.562 253.280,129.376 253.280 C 130.190 253.280,130.939 253.496,131.040 253.761 C 131.142 254.026,131.840 254.260,132.591 254.281 C 133.342 254.302,134.515 254.598,135.199 254.939 C 135.882 255.280,136.679 255.468,136.969 255.357 C 137.259 255.245,137.776 255.433,138.116 255.773 C 138.470 256.127,138.794 256.217,138.872 255.984 C 139.046 255.462,141.600 256.304,141.600 256.882 C 141.600 257.118,142.034 257.178,142.638 257.026 C 143.209 256.883,143.884 256.931,144.138 257.132 C 144.392 257.334,145.455 257.623,146.500 257.774 C 147.545 257.925,148.400 258.207,148.400 258.399 C 148.400 258.592,149.030 258.647,149.800 258.523 C 150.608 258.391,151.200 258.462,151.200 258.690 C 151.200 258.907,151.695 259.106,152.300 259.130 C 154.754 259.231,157.184 259.702,156.978 260.036 C 156.857 260.231,157.038 260.284,157.379 260.153 C 157.721 260.022,158.315 260.048,158.700 260.211 C 159.085 260.374,160.075 260.469,160.900 260.423 C 161.792 260.373,162.400 260.521,162.400 260.788 C 162.400 261.084,162.876 261.147,163.799 260.974 C 165.092 260.731,168.801 261.483,168.799 261.987 C 168.799 262.104,169.978 262.139,171.419 262.065 C 172.861 261.991,174.346 262.050,174.720 262.197 C 175.094 262.344,176.660 262.515,178.200 262.577 C 179.740 262.638,182.080 262.849,183.400 263.044 C 186.402 263.489,215.349 263.511,218.600 263.071 C 223.155 262.454,229.405 261.960,231.100 262.083 C 232.035 262.150,232.800 262.093,232.800 261.955 C 232.800 261.438,236.314 260.773,239.496 260.688 C 241.309 260.640,242.794 260.478,242.796 260.329 C 242.798 260.180,243.835 259.943,245.100 259.802 C 246.365 259.662,247.793 259.355,248.273 259.120 C 248.753 258.886,249.436 258.805,249.790 258.941 C 250.507 259.216,252.917 257.821,254.271 256.348 C 255.273 255.259,255.056 254.771,252.895 253.255 C 252.178 252.751,251.692 252.175,251.816 251.974 C 251.940 251.773,251.785 251.707,251.472 251.828 C 251.159 251.948,250.647 251.789,250.333 251.476 C 250.019 251.162,249.363 250.779,248.876 250.624 C 248.388 250.469,248.104 250.156,248.244 249.928 C 248.403 249.671,248.209 249.607,247.730 249.759 C 246.939 250.010,244.190 248.343,244.645 247.888 C 244.774 247.760,244.528 247.746,244.099 247.858 C 243.649 247.976,243.011 247.753,242.588 247.331 C 242.186 246.929,241.754 246.616,241.629 246.636 C 240.825 246.764,239.974 246.262,240.466 245.951 C 240.839 245.714,240.694 245.610,239.985 245.606 C 238.721 245.599,235.930 244.215,236.316 243.787 C 236.472 243.614,236.290 243.584,235.912 243.719 C 235.533 243.855,234.988 243.731,234.701 243.443 C 234.413 243.156,233.508 242.700,232.689 242.429 C 231.870 242.159,231.200 241.761,231.200 241.545 C 231.200 241.329,231.020 241.264,230.800 241.400 C 230.580 241.536,230.400 241.476,230.400 241.267 C 230.400 241.058,229.943 240.772,229.384 240.632 C 228.798 240.485,228.480 240.194,228.634 239.945 C 228.807 239.665,228.618 239.604,228.092 239.771 C 227.576 239.934,227.026 239.769,226.571 239.314 C 226.178 238.921,225.844 238.657,225.829 238.726 C 225.813 238.795,225.486 238.731,225.102 238.584 C 224.719 238.437,224.476 238.200,224.563 238.058 C 224.650 237.916,224.244 237.782,223.661 237.760 C 223.077 237.738,221.900 237.243,221.044 236.660 C 220.188 236.077,219.243 235.600,218.944 235.600 C 218.645 235.600,218.400 235.390,218.400 235.133 C 218.400 234.877,218.286 234.780,218.147 234.919 C 217.824 235.243,216.320 234.453,216.550 234.080 C 216.645 233.926,216.251 233.772,215.674 233.737 C 215.097 233.702,214.559 233.476,214.478 233.234 C 214.398 232.993,214.167 232.897,213.966 233.021 C 213.765 233.145,213.600 233.057,213.600 232.824 C 213.600 232.591,213.330 232.400,213.000 232.400 C 212.670 232.400,212.445 232.175,212.500 231.900 C 212.555 231.625,212.240 231.394,211.800 231.386 C 210.672 231.366,208.000 230.124,208.000 229.620 C 208.000 229.389,207.865 229.221,207.700 229.247 C 207.419 229.292,207.255 229.257,206.500 228.996 C 206.335 228.939,205.797 228.761,205.304 228.601 C 204.812 228.440,204.527 228.119,204.670 227.887 C 204.825 227.637,204.696 227.554,204.356 227.685 C 203.573 227.985,200.973 226.672,201.110 226.045 C 201.170 225.768,201.030 225.658,200.799 225.801 C 200.318 226.098,196.712 224.466,196.961 224.064 C 197.050 223.919,196.528 223.800,195.800 223.800 C 195.072 223.800,194.542 223.906,194.623 224.037 C 194.840 224.389,192.188 226.855,191.901 226.567 C 191.765 226.432,191.753 226.699,191.874 227.160 C 191.995 227.622,191.929 228.000,191.728 228.000 C 191.518 228.000,191.431 230.052,191.523 232.805 C 191.733 239.072,191.563 239.765,189.880 239.486 C 188.334 239.230,183.756 236.515,183.910 235.946 C 183.970 235.723,183.808 235.671,183.549 235.831 C 183.290 235.991,182.875 235.870,182.626 235.561 C 182.378 235.252,181.100 234.424,179.787 233.720 C 178.474 233.017,177.449 232.238,177.510 231.991 C 177.570 231.743,177.439 231.652,177.218 231.789 C 176.998 231.925,176.318 231.691,175.709 231.269 C 175.099 230.847,173.741 230.019,172.690 229.429 C 171.564 228.795,170.892 228.175,171.052 227.916 C 171.217 227.649,171.139 227.590,170.855 227.766 C 170.597 227.926,169.804 227.707,169.093 227.280 C 167.297 226.201,165.395 226.949,165.005 228.887 C 164.490 231.440,164.345 231.757,163.962 231.153 C 163.713 230.759,163.610 230.915,163.606 231.700 C 163.603 232.305,163.780 232.800,164.000 232.800 C 164.653 232.800,164.455 234.004,163.758 234.271 C 163.263 234.461,163.171 234.859,163.356 236.013 C 163.558 237.280,163.473 237.540,162.797 237.717 C 162.359 237.831,162.000 237.779,162.000 237.600 C 162.000 237.421,161.640 237.369,161.200 237.484 C 160.672 237.622,160.400 237.496,160.400 237.115 C 160.400 236.772,160.033 236.549,159.500 236.568 C 159.005 236.586,158.639 236.393,158.686 236.141 C 158.735 235.880,158.459 235.764,158.046 235.872 C 157.646 235.977,157.029 235.772,156.674 235.417 C 156.319 235.062,155.887 234.755,155.714 234.735 C 154.955 234.646,154.420 234.291,154.603 233.995 C 154.712 233.819,154.428 233.772,153.972 233.891 C 153.471 234.022,152.685 233.770,151.988 233.254 C 151.352 232.784,150.634 232.400,150.393 232.400 C 150.151 232.400,150.040 232.259,150.147 232.086 C 150.706 231.182,146.878 231.666,145.989 232.611 C 145.479 233.155,144.732 233.600,144.330 233.600 C 143.929 233.600,143.600 233.791,143.600 234.024 C 143.600 234.259,143.822 234.311,144.100 234.141 C 144.393 233.961,144.333 234.240,143.955 234.817 C 143.268 235.862,140.800 236.461,140.800 235.583 C 140.800 235.325,140.536 235.216,140.213 235.340 C 139.890 235.464,139.510 235.377,139.368 235.148 C 139.226 234.918,138.766 234.820,138.345 234.930 C 137.238 235.220,134.723 234.449,135.049 233.920 C 135.232 233.624,134.978 233.569,134.260 233.749 C 133.677 233.896,133.200 233.849,133.200 233.645 C 133.200 233.441,132.850 233.366,132.423 233.478 C 131.995 233.590,131.068 233.393,130.361 233.041 C 129.655 232.688,128.700 232.397,128.239 232.394 C 127.543 232.389,127.503 232.318,128.000 231.982 C 128.445 231.680,128.316 231.642,127.500 231.831 C 126.855 231.981,126.400 231.919,126.400 231.681 C 126.400 231.458,126.040 231.369,125.600 231.484 C 125.139 231.605,124.800 231.496,124.800 231.229 C 124.800 230.974,124.575 230.792,124.300 230.826 C 123.445 230.930,121.998 230.327,122.224 229.961 C 122.343 229.769,121.891 229.722,121.220 229.856 C 120.410 230.018,120.000 229.941,120.000 229.626 C 120.000 229.366,119.812 229.269,119.582 229.411 C 119.353 229.553,118.875 229.428,118.521 229.134 C 118.167 228.840,117.860 228.657,117.839 228.726 C 117.792 228.878,116.560 228.492,115.200 227.898 C 114.650 227.658,113.975 227.501,113.700 227.548 C 113.425 227.596,113.200 227.470,113.200 227.268 C 113.200 227.065,112.648 226.790,111.973 226.655 C 111.299 226.520,110.849 226.244,110.974 226.042 C 111.099 225.840,110.841 225.769,110.401 225.884 C 109.960 225.999,109.600 225.898,109.600 225.659 C 109.600 225.420,109.330 225.329,109.000 225.455 C 108.670 225.582,108.400 225.486,108.400 225.243 C 108.400 224.999,108.265 224.829,108.100 224.864 C 107.465 224.998,106.417 224.296,106.662 223.900 C 106.829 223.630,106.557 223.574,105.889 223.742 C 105.208 223.913,104.649 223.792,104.243 223.386 C 103.905 223.048,103.538 222.823,103.427 222.886 C 103.317 222.949,102.852 222.680,102.394 222.288 C 101.937 221.896,101.417 221.666,101.240 221.775 C 100.825 222.032,98.400 221.124,98.400 220.712 C 98.400 220.541,98.085 220.397,97.700 220.394 C 97.097 220.389,97.083 220.330,97.600 219.968 C 98.088 219.626,98.050 219.587,97.400 219.758 C 96.424 220.015,93.260 218.209,94.066 217.855 C 94.360 217.726,94.203 217.661,93.718 217.710 C 93.233 217.760,92.810 217.620,92.779 217.400 C 92.747 217.180,92.554 216.688,92.349 216.306 C 92.071 215.785,92.196 215.434,92.850 214.906 C 93.330 214.518,94.820 213.184,96.161 211.943 C 98.886 209.421,101.969 206.747,104.031 205.119 C 110.493 200.016,112.765 198.400,113.479 198.400 C 113.718 198.400,114.013 198.144,114.133 197.831 C 114.253 197.518,115.217 196.760,116.275 196.146 C 117.334 195.532,118.256 194.900,118.325 194.741 C 118.393 194.582,119.383 193.872,120.525 193.164 C 121.666 192.456,123.230 191.486,124.000 191.008 C 124.770 190.530,126.390 189.506,127.600 188.732 C 128.810 187.958,129.960 187.312,130.155 187.296 C 130.351 187.281,130.621 187.098,130.755 186.890 C 131.068 186.406,133.704 185.009,134.100 185.118 C 134.265 185.163,134.400 185.032,134.400 184.827 C 134.400 184.622,134.805 184.331,135.300 184.181 C 135.795 184.030,136.786 183.468,137.502 182.931 C 138.219 182.395,138.984 182.066,139.202 182.201 C 139.421 182.337,139.600 182.299,139.600 182.118 C 139.600 181.783,139.888 181.601,142.633 180.200 C 143.495 179.760,144.290 179.310,144.400 179.200 C 144.510 179.090,146.490 178.074,148.800 176.942 C 151.110 175.810,154.506 174.145,156.346 173.242 C 158.187 172.339,159.869 171.600,160.085 171.600 C 160.300 171.600,161.006 171.223,161.652 170.763 C 162.299 170.302,163.092 170.026,163.414 170.150 C 163.736 170.274,164.000 170.209,164.000 170.006 C 164.000 169.803,164.585 169.372,165.300 169.049 C 168.364 167.660,171.849 166.310,172.471 166.271 C 172.839 166.248,173.054 166.087,172.947 165.914 C 172.840 165.741,173.022 165.600,173.350 165.600 C 173.679 165.600,174.455 165.390,175.074 165.134 C 175.693 164.877,176.290 164.641,176.400 164.609 C 176.510 164.577,177.320 164.220,178.200 163.814 C 179.080 163.408,179.964 163.114,180.163 163.159 C 180.363 163.205,180.648 163.046,180.797 162.806 C 180.945 162.565,181.591 162.331,182.233 162.284 C 182.875 162.238,183.638 161.975,183.929 161.700 C 184.219 161.425,184.680 161.200,184.953 161.200 C 185.226 161.200,186.195 160.840,187.106 160.400 C 188.016 159.960,189.004 159.600,189.301 159.600 C 189.597 159.600,190.011 159.437,190.220 159.237 C 190.673 158.805,196.383 157.004,197.100 157.067 C 197.375 157.091,197.600 156.975,197.600 156.808 C 197.600 156.641,198.455 156.281,199.500 156.009 C 200.545 155.736,201.967 155.263,202.660 154.957 C 203.354 154.650,204.179 154.400,204.494 154.400 C 204.809 154.400,205.193 154.273,205.348 154.118 C 205.503 153.963,206.114 153.772,206.705 153.692 C 207.296 153.613,207.981 153.382,208.227 153.178 C 208.473 152.974,208.786 152.919,208.923 153.056 C 209.059 153.193,209.812 153.001,210.596 152.629 C 211.423 152.236,212.373 152.064,212.860 152.219 C 213.424 152.398,213.610 152.340,213.426 152.043 C 213.254 151.764,213.523 151.600,214.153 151.600 C 214.703 151.600,215.266 151.417,215.404 151.193 C 215.542 150.970,215.816 150.886,216.011 151.007 C 216.207 151.128,216.690 151.052,217.084 150.837 C 217.478 150.622,218.880 150.156,220.200 149.802 C 221.520 149.447,223.191 148.972,223.914 148.747 C 227.640 147.587,239.357 144.850,239.697 145.060 C 239.913 145.193,240.243 145.054,240.430 144.751 C 240.645 144.403,241.440 144.214,242.586 144.238 C 243.584 144.259,244.400 144.124,244.400 143.938 C 244.400 143.752,244.904 143.600,245.520 143.600 C 246.136 143.600,246.823 143.417,247.047 143.193 C 247.270 142.970,248.251 142.718,249.227 142.634 C 250.202 142.550,251.318 142.353,251.706 142.196 C 252.094 142.038,252.769 142.003,253.206 142.117 C 253.643 142.232,254.000 142.182,254.000 142.006 C 254.000 141.831,254.675 141.576,255.500 141.441 C 257.458 141.118,258.054 140.973,258.901 140.612 C 259.286 140.448,260.052 140.427,260.603 140.565 C 261.229 140.722,261.977 140.571,262.602 140.162 C 263.211 139.763,263.600 139.682,263.600 139.954 C 263.600 140.544,265.490 140.531,265.687 139.940 C 265.771 139.686,266.866 139.394,268.120 139.290 C 269.374 139.186,270.400 138.966,270.400 138.801 C 270.400 138.522,271.395 138.450,275.996 138.397 C 276.984 138.385,277.854 138.562,277.930 138.790 C 278.006 139.018,278.217 139.113,278.400 139.000 C 278.582 138.888,279.512 139.243,280.465 139.789 C 281.419 140.336,282.515 140.898,282.900 141.038 C 283.285 141.179,283.600 141.447,283.600 141.634 C 283.600 141.822,283.847 141.880,284.148 141.764 C 284.450 141.649,285.022 141.879,285.420 142.277 C 285.818 142.675,286.246 142.954,286.371 142.897 C 286.497 142.840,286.879 143.032,287.219 143.324 C 287.560 143.615,288.043 143.786,288.292 143.703 C 288.542 143.619,289.253 143.807,289.873 144.119 C 291.431 144.903,293.600 145.280,293.600 144.766 C 293.600 144.539,293.765 144.455,293.966 144.579 C 294.167 144.703,294.392 144.657,294.466 144.477 C 294.540 144.297,295.860 143.190,297.400 142.017 C 298.940 140.844,300.605 139.519,301.100 139.072 C 301.595 138.626,302.000 138.389,302.000 138.546 C 302.000 138.703,302.405 138.449,302.900 137.982 C 303.395 137.514,305.150 136.167,306.800 134.988 C 308.450 133.809,310.430 132.291,311.200 131.617 C 311.970 130.942,313.185 130.176,313.900 129.914 C 314.615 129.653,315.200 129.225,315.200 128.962 C 315.200 128.370,316.324 127.906,316.898 128.261 C 317.132 128.405,317.208 128.336,317.066 128.107 C 316.737 127.574,317.830 126.647,318.383 126.990 C 318.613 127.132,318.977 126.787,319.191 126.224 C 319.405 125.661,319.737 125.200,319.929 125.200 C 320.243 125.200,321.079 124.587,322.785 123.107 C 324.721 121.428,326.360 120.472,326.541 120.917 C 326.656 121.202,326.750 121.130,326.768 120.743 C 326.786 120.381,327.079 119.978,327.421 119.847 C 327.777 119.711,327.937 119.778,327.797 120.005 C 327.663 120.222,327.731 120.400,327.949 120.400 C 328.168 120.400,328.460 120.040,328.600 119.600 C 328.740 119.160,329.022 118.800,329.227 118.800 C 330.077 118.800,329.505 117.117,328.199 115.771 C 327.428 114.978,326.878 114.197,326.977 114.037 C 327.077 113.876,326.629 113.822,325.984 113.917 C 325.338 114.012,324.493 113.954,324.105 113.789 C 322.980 113.310,318.585 112.607,315.400 112.397 L 314.600 112.344 315.400 111.965 C 315.947 111.706,315.281 111.653,313.300 111.796 C 311.523 111.924,310.400 111.853,310.400 111.612 C 310.400 111.395,309.725 111.223,308.900 111.228 C 308.075 111.234,306.770 111.134,306.000 111.006 C 305.230 110.879,303.655 110.673,302.500 110.549 C 301.177 110.406,300.497 110.167,300.661 109.902 C 300.838 109.615,300.070 109.549,298.260 109.694 C 296.595 109.828,295.600 109.757,295.600 109.504 C 295.600 109.268,295.100 109.200,294.400 109.340 C 293.641 109.492,293.200 109.416,293.200 109.134 C 293.200 108.835,292.547 108.766,291.211 108.924 C 290.030 109.064,289.120 108.994,288.970 108.752 C 288.832 108.528,287.972 108.374,287.059 108.409 C 284.662 108.503,284.324 108.447,284.600 108.000 C 284.736 107.780,284.567 107.600,284.224 107.600 C 283.881 107.600,283.600 107.780,283.600 108.000 C 283.600 108.631,282.400 108.466,282.145 107.800 C 281.889 107.135,279.600 106.955,279.600 107.600 C 279.600 107.820,279.409 108.000,279.176 108.000 C 278.943 108.000,278.864 107.820,279.000 107.600 C 279.136 107.380,279.157 107.200,279.047 107.200 C 278.937 107.200,278.736 107.380,278.600 107.600 M292.400 122.429 C 292.400 122.734,293.031 122.788,294.400 122.600 C 295.685 122.423,296.400 122.472,296.400 122.737 C 296.400 122.985,296.958 123.059,297.800 122.923 C 299.973 122.570,299.572 123.572,296.696 125.685 C 294.264 127.470,290.400 128.122,290.400 126.748 C 290.400 126.557,290.130 126.400,289.800 126.400 C 289.470 126.400,289.200 126.226,289.200 126.013 C 289.200 125.799,288.930 125.729,288.600 125.855 C 288.270 125.982,288.000 125.892,288.000 125.655 C 288.000 125.419,287.730 125.329,287.400 125.455 C 287.070 125.582,286.800 125.467,286.800 125.200 C 286.800 124.933,286.535 124.816,286.212 124.940 C 285.022 125.397,284.249 124.012,285.156 123.049 C 286.070 122.080,292.400 121.538,292.400 122.429 M195.307 174.032 C 195.157 174.606,194.858 174.804,194.345 174.670 C 193.935 174.563,193.600 174.634,193.600 174.827 C 193.600 175.021,193.060 175.072,192.400 174.940 C 191.453 174.751,191.200 174.840,191.200 175.363 C 191.200 176.242,190.140 176.614,189.395 175.996 C 188.982 175.653,188.800 175.639,188.800 175.951 C 188.800 176.198,188.449 176.400,188.020 176.400 C 187.591 176.400,187.079 176.687,186.883 177.038 C 186.666 177.425,185.952 177.692,185.063 177.717 C 184.138 177.743,183.600 177.953,183.600 178.287 C 183.600 178.651,183.289 178.737,182.600 178.564 C 181.824 178.370,181.600 178.467,181.600 178.999 C 181.600 179.460,181.393 179.606,180.968 179.443 C 179.950 179.052,178.493 179.603,178.267 180.464 C 178.144 180.936,177.762 181.229,177.330 181.184 C 175.603 181.004,174.884 181.235,174.674 182.040 C 174.553 182.503,174.262 182.762,174.027 182.617 C 173.792 182.472,173.600 182.556,173.600 182.803 C 173.600 183.060,173.281 183.153,172.856 183.018 C 171.810 182.686,170.916 183.115,170.666 184.068 C 170.549 184.515,170.262 184.762,170.027 184.617 C 169.792 184.472,169.600 184.547,169.600 184.784 C 169.600 185.044,169.203 185.116,168.600 184.964 C 167.824 184.770,167.600 184.867,167.600 185.399 C 167.600 185.845,167.390 186.005,167.000 185.855 C 166.670 185.729,166.400 185.780,166.400 185.969 C 166.400 186.158,165.972 186.421,165.448 186.552 C 164.924 186.684,164.393 187.183,164.268 187.661 C 164.076 188.397,163.944 188.452,163.420 188.017 C 163.079 187.733,162.800 187.683,162.800 187.904 C 162.800 188.126,162.440 188.401,162.000 188.516 C 161.560 188.631,161.200 189.024,161.200 189.390 C 161.200 189.872,160.981 189.984,160.400 189.800 C 159.772 189.601,159.600 189.728,159.600 190.391 C 159.600 190.855,159.375 191.206,159.100 191.170 C 157.975 191.024,157.600 191.242,157.600 192.043 C 157.600 192.628,157.416 192.815,157.000 192.655 C 156.670 192.529,156.400 192.561,156.400 192.728 C 156.400 192.894,155.500 193.989,154.400 195.161 C 151.927 197.795,151.917 198.343,154.307 200.668 C 156.090 202.402,158.800 203.365,158.800 202.265 C 158.800 202.081,159.520 202.051,160.400 202.200 C 161.621 202.406,162.000 202.340,162.000 201.921 C 162.000 201.505,162.802 201.355,165.294 201.301 C 167.863 201.247,168.696 201.083,169.080 200.558 C 169.474 200.019,169.973 199.933,171.586 200.124 C 172.694 200.255,173.600 200.213,173.600 200.031 C 173.600 199.848,174.607 199.616,175.837 199.514 C 177.067 199.412,178.219 199.093,178.396 198.806 C 178.613 198.456,179.142 198.368,180.000 198.540 C 181.851 198.910,184.400 198.427,184.400 197.706 C 184.400 197.290,184.670 197.181,185.306 197.341 C 186.205 197.566,192.514 191.798,192.633 190.641 C 192.658 190.399,192.706 189.988,192.739 189.728 C 192.773 189.468,193.200 189.198,193.690 189.128 C 194.179 189.058,194.764 188.637,194.990 188.193 C 195.215 187.749,195.805 186.939,196.300 186.393 C 198.193 184.305,198.422 183.959,198.173 183.556 C 197.881 183.084,199.500 181.200,200.198 181.200 C 201.018 181.200,202.200 179.429,202.200 178.200 C 202.200 175.177,195.990 171.422,195.307 174.032 M36.800 311.000 L 36.800 316.800 41.000 316.800 L 45.200 316.800 45.200 331.200 L 45.200 345.600 50.800 345.600 L 56.400 345.600 56.400 331.214 L 56.400 316.828 60.500 316.714 L 64.600 316.600 64.711 310.900 L 64.822 305.200 50.811 305.200 L 36.800 305.200 36.800 311.000 M205.600 311.000 L 205.600 316.800 209.595 316.800 L 213.590 316.800 213.695 331.100 L 213.800 345.400 219.300 345.511 L 224.800 345.623 224.800 331.225 L 224.800 316.828 228.900 316.714 L 233.000 316.600 233.111 310.900 L 233.222 305.200 219.411 305.200 L 205.600 305.200 205.600 311.000 M157.467 307.467 C 157.320 307.613,157.200 308.951,157.200 310.439 L 157.200 313.144 155.903 312.772 C 150.624 311.258,143.437 313.218,139.675 317.198 C 137.613 319.379,137.378 319.705,136.793 321.200 C 136.492 321.970,136.089 322.707,135.898 322.839 C 134.691 323.669,134.793 334.715,136.011 335.133 C 136.225 335.207,136.401 335.567,136.401 335.933 C 136.407 338.291,141.968 343.718,145.742 345.050 C 148.971 346.189,158.002 345.542,159.476 344.066 C 159.989 343.552,161.083 343.369,164.270 343.264 L 168.400 343.127 168.400 325.644 C 168.400 312.579,168.279 308.039,167.920 307.680 C 167.405 307.165,157.961 306.973,157.467 307.467 M336.678 307.456 C 336.525 307.608,336.400 316.253,336.400 326.667 L 336.400 345.600 342.000 345.600 L 347.600 345.600 347.600 340.400 L 347.600 335.200 351.146 335.200 C 356.718 335.200,358.366 336.771,358.387 342.100 L 358.400 345.600 364.000 345.600 L 369.600 345.600 369.600 341.933 C 369.600 337.862,368.957 333.433,368.256 332.678 C 368.005 332.407,367.454 331.559,367.030 330.793 C 366.607 330.027,366.067 329.268,365.830 329.106 C 365.536 328.905,365.552 328.810,365.881 328.806 C 366.146 328.803,366.677 328.125,367.060 327.300 C 367.444 326.475,367.921 325.688,368.120 325.551 C 368.757 325.113,369.587 320.691,369.594 317.700 L 369.600 314.800 364.247 314.800 C 358.334 314.800,358.420 314.758,358.405 317.654 C 358.387 321.310,355.789 323.200,350.782 323.200 L 347.617 323.200 347.508 315.300 L 347.400 307.400 342.178 307.289 C 339.305 307.228,336.830 307.303,336.678 307.456 M78.400 312.776 C 77.850 312.945,76.683 313.470,75.806 313.942 C 74.504 314.643,73.534 314.800,70.506 314.800 L 66.800 314.800 66.800 330.200 L 66.800 345.600 72.200 345.600 L 77.600 345.600 77.600 337.475 C 77.600 328.323,78.158 326.019,80.657 324.844 C 81.286 324.548,82.129 324.137,82.531 323.930 C 82.977 323.701,83.446 323.698,83.731 323.922 C 83.989 324.124,84.693 324.407,85.295 324.551 C 85.897 324.695,86.683 325.260,87.041 325.806 C 87.399 326.353,87.944 326.800,88.252 326.800 C 88.790 326.800,93.188 324.497,93.600 324.000 C 93.710 323.867,94.520 323.426,95.400 323.020 C 98.448 321.614,98.398 320.380,95.165 317.197 C 93.826 315.879,92.579 314.800,92.394 314.800 C 92.209 314.800,91.770 314.512,91.418 314.161 C 89.968 312.710,81.532 311.813,78.400 312.776 M110.873 313.025 C 109.703 313.340,108.475 313.868,108.144 314.199 C 107.813 314.529,107.411 314.800,107.250 314.800 C 106.826 314.800,102.400 319.220,102.400 319.643 C 102.400 319.839,102.053 320.347,101.629 320.771 C 101.205 321.195,100.734 322.365,100.583 323.371 C 100.433 324.377,100.150 325.200,99.955 325.200 C 99.491 325.200,99.493 331.803,99.957 332.705 C 100.153 333.087,100.610 334.428,100.972 335.685 C 101.680 338.140,106.351 343.600,107.743 343.600 C 108.104 343.600,108.400 343.775,108.400 343.989 C 108.400 345.825,120.536 346.173,123.400 344.419 C 124.720 343.611,125.700 343.401,129.000 343.220 L 133.000 343.000 133.000 329.000 L 133.000 315.000 128.959 314.800 C 126.463 314.676,124.675 314.397,124.282 314.070 C 122.394 312.498,114.980 311.920,110.873 313.025 M183.000 312.559 C 182.780 312.638,181.835 312.934,180.900 313.215 C 179.965 313.497,179.200 313.867,179.200 314.037 C 179.200 314.207,178.795 314.472,178.300 314.625 C 177.247 314.952,172.820 319.181,172.808 319.871 C 172.804 320.131,172.573 320.581,172.295 320.871 C 170.471 322.782,169.800 329.823,171.015 334.309 C 171.749 337.023,171.904 337.318,173.500 339.056 C 173.995 339.595,174.400 340.170,174.400 340.333 C 174.400 340.754,177.864 343.600,178.376 343.600 C 178.609 343.600,178.800 343.773,178.800 343.985 C 178.800 346.219,192.830 346.027,195.096 343.761 C 195.405 343.453,195.839 343.200,196.061 343.200 C 196.282 343.200,197.530 342.134,198.832 340.832 C 201.999 337.665,201.951 336.375,198.614 334.980 C 197.836 334.655,197.200 334.229,197.200 334.034 C 197.200 333.838,196.615 333.437,195.900 333.142 C 194.688 332.642,194.903 332.598,199.100 332.490 L 203.600 332.374 203.594 329.687 C 203.587 326.542,202.651 322.194,201.797 321.340 C 201.469 321.012,201.200 320.471,201.200 320.139 C 201.200 319.472,196.703 314.800,196.061 314.800 C 195.839 314.800,195.419 314.573,195.129 314.295 C 193.740 312.970,185.236 311.752,183.000 312.559 M246.400 312.985 C 245.630 313.276,244.460 313.803,243.800 314.155 C 242.950 314.609,241.522 314.796,238.900 314.798 L 235.200 314.800 235.200 330.200 L 235.200 345.600 240.800 345.600 L 246.400 345.600 246.400 337.026 C 246.400 332.310,246.578 327.983,246.796 327.411 C 247.309 326.063,249.110 324.400,250.058 324.400 C 250.466 324.400,250.800 324.220,250.800 324.000 C 250.800 323.780,251.160 323.600,251.600 323.600 C 252.040 323.600,252.400 323.780,252.400 324.000 C 252.400 324.220,252.754 324.400,253.186 324.400 C 253.618 324.400,254.603 324.954,255.374 325.631 C 256.773 326.860,257.814 326.944,258.969 325.921 C 259.589 325.372,262.381 323.720,263.900 323.003 C 264.615 322.665,265.200 322.212,265.200 321.995 C 265.200 321.778,265.470 321.600,265.800 321.600 C 266.130 321.600,266.400 321.330,266.400 321.000 C 266.400 320.670,266.220 320.400,266.000 320.400 C 265.780 320.400,265.600 320.161,265.600 319.870 C 265.600 319.305,261.314 314.800,260.777 314.800 C 260.601 314.800,260.170 314.512,259.818 314.161 C 258.218 312.561,249.535 311.801,246.400 312.985 M279.289 312.997 C 277.174 313.590,276.769 313.824,274.944 315.500 C 274.405 315.995,273.804 316.400,273.609 316.400 C 273.134 316.400,270.400 319.759,270.400 320.341 C 270.400 320.594,270.225 320.800,270.011 320.800 C 268.170 320.800,267.849 332.970,269.594 336.605 C 270.649 338.802,275.155 343.600,276.163 343.600 C 276.513 343.600,276.800 343.775,276.800 343.989 C 276.800 346.238,290.729 345.996,293.129 343.705 C 293.478 343.372,294.939 343.200,297.429 343.200 L 301.200 343.200 301.200 329.000 L 301.200 314.800 297.633 314.800 C 294.560 314.800,293.770 314.651,291.933 313.727 C 289.267 312.386,282.796 312.012,279.289 312.997 M314.640 313.010 C 313.562 313.306,312.572 313.695,312.440 313.875 C 312.308 314.054,311.660 314.471,311.000 314.801 C 308.978 315.811,305.826 319.323,304.938 321.555 C 304.623 322.350,304.147 323.434,303.882 323.965 C 303.274 325.182,303.233 333.260,303.831 334.039 C 304.068 334.347,304.572 335.439,304.951 336.466 C 308.475 346.011,323.301 348.919,331.128 341.600 C 335.150 337.840,335.243 336.810,331.734 334.892 C 327.726 332.700,326.981 332.267,326.800 332.017 C 326.188 331.174,325.043 331.248,324.101 332.190 C 322.368 333.923,319.162 335.064,318.733 334.100 C 318.660 333.935,317.946 333.468,317.147 333.062 C 313.554 331.238,314.122 325.567,318.000 324.541 C 318.550 324.396,319.123 324.088,319.274 323.857 C 319.547 323.438,319.742 323.501,323.100 325.105 C 323.815 325.447,324.400 325.968,324.400 326.263 C 324.400 326.995,326.181 326.945,326.804 326.195 C 327.080 325.863,328.047 325.227,328.953 324.782 C 332.918 322.834,334.400 321.748,334.400 320.790 C 334.400 319.596,331.244 316.113,329.058 314.894 C 328.374 314.512,327.589 313.990,327.313 313.734 C 325.919 312.440,318.302 312.004,314.640 313.010 M117.267 323.900 C 117.340 324.065,118.089 324.551,118.931 324.980 C 122.526 326.810,122.467 331.362,118.822 333.433 C 113.739 336.319,108.528 329.966,112.567 325.807 C 113.318 325.033,114.308 324.400,114.767 324.400 C 115.225 324.400,115.600 324.220,115.600 324.000 C 115.600 323.538,117.067 323.450,117.267 323.900 M152.400 323.968 C 152.400 324.171,152.935 324.454,153.589 324.598 C 156.767 325.296,157.846 329.446,155.549 332.136 C 154.861 332.941,154.051 333.600,153.749 333.600 C 153.447 333.600,153.200 333.780,153.200 334.000 C 153.200 335.484,147.698 333.211,146.865 331.383 C 145.608 328.624,147.646 324.400,150.235 324.400 C 150.740 324.400,151.264 324.220,151.400 324.000 C 151.710 323.498,152.400 323.476,152.400 323.968 M189.032 324.598 L 191.000 325.597 187.076 325.598 C 183.261 325.600,182.255 325.159,184.800 324.600 C 185.455 324.456,186.094 324.172,186.219 323.969 C 186.554 323.428,186.861 323.497,189.032 324.598 M286.635 324.557 C 287.886 325.161,288.818 325.937,289.156 326.657 C 289.452 327.286,289.849 328.107,290.038 328.481 C 290.244 328.887,290.225 329.261,289.992 329.405 C 289.776 329.538,289.600 330.005,289.600 330.442 C 289.600 331.198,288.800 332.152,286.865 333.700 C 285.989 334.402,283.200 334.686,283.200 334.074 C 283.200 333.895,282.570 333.448,281.800 333.081 C 281.030 332.713,280.400 332.217,280.400 331.978 C 280.400 331.739,280.112 331.255,279.760 330.903 C 278.293 329.436,280.028 325.851,282.934 324.343 C 284.600 323.479,284.372 323.466,286.635 324.557 M190.224 333.013 C 189.796 333.336,189.211 333.600,188.924 333.600 C 188.636 333.600,188.400 333.780,188.400 334.000 C 188.400 334.699,186.099 334.431,184.623 333.560 C 182.672 332.409,182.695 332.398,187.100 332.413 C 190.617 332.424,190.924 332.483,190.224 333.013 " stroke="none" fill="#fcfcfc" fill-rule="evenodd"></path><path id="path1" d="M282.400 107.600 C 282.400 107.820,282.670 108.000,283.000 108.000 C 283.330 108.000,283.600 107.820,283.600 107.600 C 283.600 107.380,283.330 107.200,283.000 107.200 C 282.670 107.200,282.400 107.380,282.400 107.600 M297.200 123.833 C 297.200 124.540,298.061 124.417,298.308 123.675 C 298.395 123.414,298.182 123.200,297.833 123.200 C 297.485 123.200,297.200 123.485,297.200 123.833 M295.467 125.067 C 295.084 125.449,295.138 126.000,295.557 126.000 C 295.754 126.000,296.018 125.730,296.145 125.400 C 296.379 124.790,295.953 124.581,295.467 125.067 M170.100 200.676 C 170.485 200.776,171.115 200.776,171.500 200.676 C 171.885 200.575,171.570 200.493,170.800 200.493 C 170.030 200.493,169.715 200.575,170.100 200.676 M163.200 233.400 C 163.200 233.730,163.380 234.000,163.600 234.000 C 163.820 234.000,164.000 233.730,164.000 233.400 C 164.000 233.070,163.820 232.800,163.600 232.800 C 163.380 232.800,163.200 233.070,163.200 233.400 " stroke="none" fill="#a9b0d6" fill-rule="evenodd"></path><path id="path2" d="M276.479 109.408 C 275.555 110.389,274.800 111.326,274.800 111.489 C 274.800 111.652,275.628 110.922,276.640 109.866 C 277.652 108.810,278.407 107.874,278.318 107.785 C 278.230 107.697,277.402 108.427,276.479 109.408 M327.600 114.738 C 327.600 115.269,329.175 116.558,329.467 116.267 C 329.611 116.123,329.402 115.644,329.002 115.202 C 328.248 114.369,327.600 114.154,327.600 114.738 M263.200 120.000 C 263.200 120.228,264.392 120.400,265.976 120.400 C 267.503 120.400,268.864 120.220,269.000 120.000 C 269.156 119.747,268.137 119.600,266.224 119.600 C 264.475 119.600,263.200 119.769,263.200 120.000 M258.652 120.716 C 258.544 120.890,259.073 120.961,259.828 120.873 C 260.583 120.785,261.200 120.642,261.200 120.556 C 261.200 120.255,258.845 120.403,258.652 120.716 M289.200 122.400 C 289.990 122.910,292.000 122.910,292.000 122.400 C 292.000 122.180,291.235 122.003,290.300 122.006 C 289.055 122.011,288.761 122.116,289.200 122.400 M294.800 122.800 C 295.576 123.301,296.000 123.301,296.000 122.800 C 296.000 122.580,295.595 122.403,295.100 122.406 C 294.372 122.411,294.315 122.486,294.800 122.800 M323.200 123.000 C 322.659 123.651,322.789 123.733,323.767 123.357 C 324.115 123.224,324.400 122.954,324.400 122.757 C 324.400 122.204,323.752 122.335,323.200 123.000 M311.630 131.364 C 310.885 132.261,311.809 132.474,312.609 131.591 C 313.211 130.925,313.227 130.800,312.711 130.800 C 312.374 130.800,311.887 131.054,311.630 131.364 M195.200 134.000 C 195.200 134.220,195.470 134.400,195.800 134.400 C 196.130 134.400,196.400 134.220,196.400 134.000 C 196.400 133.780,196.130 133.600,195.800 133.600 C 195.470 133.600,195.200 133.780,195.200 134.000 M169.200 143.800 C 168.856 144.215,168.841 144.400,169.151 144.400 C 169.398 144.400,169.600 144.209,169.600 143.976 C 169.600 143.743,169.780 143.664,170.000 143.800 C 170.220 143.936,170.400 143.857,170.400 143.624 C 170.400 143.012,169.778 143.103,169.200 143.800 M195.827 157.559 C 195.401 157.726,195.223 157.967,195.431 158.096 C 195.639 158.224,196.156 158.075,196.581 157.765 C 197.410 157.159,197.079 157.069,195.827 157.559 M120.667 169.067 C 120.181 169.553,120.390 169.979,121.000 169.745 C 121.330 169.618,121.600 169.354,121.600 169.157 C 121.600 168.738,121.049 168.684,120.667 169.067 M116.487 172.009 C 116.019 172.759,116.041 172.781,116.791 172.313 C 117.597 171.809,117.874 171.200,117.296 171.200 C 117.129 171.200,116.765 171.564,116.487 172.009 M97.029 185.829 C 96.249 186.609,96.230 186.840,96.969 186.557 C 97.282 186.436,97.636 186.082,97.757 185.769 C 98.040 185.030,97.809 185.049,97.029 185.829 M88.300 193.048 C 87.695 193.366,87.200 193.699,87.200 193.790 C 87.200 194.090,88.934 193.626,89.344 193.216 C 90.027 192.533,89.457 192.441,88.300 193.048 M108.700 201.757 C 107.969 202.312,107.784 202.800,108.304 202.800 C 108.471 202.800,108.832 202.440,109.107 202.000 C 109.689 201.068,109.644 201.040,108.700 201.757 M96.306 212.017 C 95.264 213.108,94.547 214.000,94.713 214.000 C 95.040 214.000,98.800 210.491,98.800 210.186 C 98.800 209.653,98.010 210.233,96.306 212.017 M63.826 215.972 C 63.411 216.430,63.195 216.928,63.345 217.079 C 63.725 217.458,64.929 216.186,64.736 215.609 C 64.637 215.311,64.303 215.445,63.826 215.972 M192.814 225.050 C 192.128 225.627,191.656 226.189,191.765 226.298 C 191.875 226.408,192.526 225.936,193.213 225.249 C 194.734 223.727,194.515 223.618,192.814 225.050 M145.381 231.858 C 144.841 232.441,144.400 233.088,144.400 233.298 C 144.400 233.728,147.126 231.566,147.171 231.100 C 147.233 230.460,146.317 230.848,145.381 231.858 M190.942 234.600 C 190.941 236.580,191.008 237.440,191.092 236.512 C 191.176 235.584,191.177 233.964,191.095 232.912 C 191.012 231.860,190.943 232.620,190.942 234.600 M135.600 234.000 C 135.600 234.220,135.870 234.400,136.200 234.400 C 136.530 234.400,136.800 234.220,136.800 234.000 C 136.800 233.780,136.530 233.600,136.200 233.600 C 135.870 233.600,135.600 233.780,135.600 234.000 M254.000 253.511 C 254.000 253.682,254.360 254.130,254.800 254.507 C 255.706 255.283,255.840 254.950,255.043 253.900 C 254.485 253.165,254.000 252.984,254.000 253.511 " stroke="none" fill="#e9e9f4" fill-rule="evenodd"></path><path id="path3" d="M285.304 123.421 C 285.031 123.716,284.941 124.038,285.104 124.137 C 285.267 124.235,285.623 124.074,285.896 123.779 C 286.169 123.484,286.259 123.162,286.096 123.063 C 285.933 122.965,285.577 123.126,285.304 123.421 M294.800 125.989 C 294.800 126.229,294.395 126.589,293.900 126.788 C 293.405 126.987,293.270 127.155,293.600 127.162 C 294.479 127.180,295.740 126.134,295.224 125.815 C 294.991 125.671,294.800 125.749,294.800 125.989 M198.922 182.587 C 198.305 183.130,197.907 183.580,198.038 183.587 C 198.169 183.594,198.799 183.150,199.438 182.600 C 200.077 182.051,200.475 181.601,200.322 181.600 C 200.170 181.600,199.540 182.044,198.922 182.587 M154.762 193.446 C 154.298 194.005,154.327 194.073,154.980 193.946 C 155.394 193.866,155.809 193.575,155.900 193.300 C 156.138 192.586,155.396 192.682,154.762 193.446 M153.002 195.198 C 152.340 195.930,152.335 196.000,152.951 196.000 C 153.322 196.000,153.732 195.722,153.862 195.383 C 154.234 194.412,153.798 194.318,153.002 195.198 M151.628 196.500 C 151.140 197.957,151.580 199.211,153.127 200.774 C 154.047 201.703,154.800 202.278,154.800 202.051 C 154.800 201.824,154.184 201.041,153.432 200.310 C 152.533 199.437,152.007 198.505,151.896 197.591 C 151.804 196.826,151.683 196.335,151.628 196.500 M169.600 200.156 C 169.600 200.242,170.217 200.385,170.972 200.473 C 171.727 200.561,172.256 200.490,172.148 200.316 C 171.955 200.003,169.600 199.855,169.600 200.156 " stroke="none" fill="#ccccf4" fill-rule="evenodd"></path><path id="path4" d="M277.972 108.519 C 277.203 109.223,276.400 109.845,276.187 109.900 C 275.974 109.955,275.800 110.195,275.800 110.432 C 275.800 110.670,275.473 111.104,275.073 111.396 C 274.674 111.688,274.359 112.034,274.373 112.164 C 274.466 112.988,274.344 113.213,273.938 112.962 C 273.645 112.781,273.585 112.853,273.774 113.158 C 274.128 113.731,275.200 113.019,275.200 112.209 C 275.200 111.938,276.200 110.770,277.423 109.614 C 278.645 108.458,279.584 107.450,279.508 107.375 C 279.433 107.299,278.742 107.814,277.972 108.519 M295.600 109.600 C 295.600 109.820,295.870 110.000,296.200 110.000 C 296.530 110.000,296.800 109.820,296.800 109.600 C 296.800 109.380,296.530 109.200,296.200 109.200 C 295.870 109.200,295.600 109.380,295.600 109.600 M307.200 111.200 C 307.530 111.413,308.070 111.588,308.400 111.588 C 308.933 111.588,308.933 111.545,308.400 111.200 C 308.070 110.987,307.530 110.812,307.200 110.812 C 306.667 110.812,306.667 110.855,307.200 111.200 M310.400 111.600 C 310.400 111.820,310.670 112.000,311.000 112.000 C 311.330 112.000,311.600 111.820,311.600 111.600 C 311.600 111.380,311.330 111.200,311.000 111.200 C 310.670 111.200,310.400 111.380,310.400 111.600 M318.100 112.687 C 318.705 112.778,319.695 112.778,320.300 112.687 C 320.905 112.595,320.410 112.520,319.200 112.520 C 317.990 112.520,317.495 112.595,318.100 112.687 M322.000 113.200 C 322.776 113.701,323.200 113.701,323.200 113.200 C 323.200 112.980,322.795 112.803,322.300 112.806 C 321.572 112.811,321.515 112.886,322.000 113.200 M323.800 113.600 C 323.936 113.820,324.658 114.000,325.404 114.000 C 326.274 114.000,326.906 114.251,327.168 114.700 C 327.392 115.085,327.575 115.220,327.575 115.000 C 327.574 114.000,326.443 113.200,325.032 113.200 C 324.148 113.200,323.652 113.361,323.800 113.600 M272.963 115.005 C 272.824 115.558,272.438 116.163,272.104 116.350 C 271.722 116.563,271.652 116.785,271.914 116.947 C 272.277 117.171,274.000 114.945,274.000 114.253 C 274.000 113.542,273.181 114.136,272.963 115.005 M329.892 117.042 C 329.731 117.202,329.600 117.609,329.600 117.947 C 329.600 118.397,329.718 118.442,330.045 118.115 C 330.290 117.870,330.421 117.463,330.337 117.210 C 330.252 116.957,330.052 116.881,329.892 117.042 M270.864 118.619 C 270.609 119.179,270.406 119.764,270.413 119.919 C 270.432 120.322,272.000 118.383,272.000 117.956 C 272.000 117.231,271.314 117.632,270.864 118.619 M269.435 119.900 C 269.270 120.065,267.845 120.306,266.268 120.435 L 263.400 120.671 266.200 120.729 C 268.771 120.783,270.499 120.365,269.955 119.822 C 269.833 119.700,269.599 119.735,269.435 119.900 M260.000 120.800 L 258.600 121.095 259.876 121.147 C 260.578 121.176,261.264 121.020,261.400 120.800 C 261.536 120.580,261.592 120.424,261.524 120.453 C 261.456 120.482,260.770 120.638,260.000 120.800 M325.057 121.364 C 324.373 121.923,324.084 122.404,324.337 122.561 C 324.569 122.705,324.958 122.452,325.200 122.000 C 325.442 121.548,325.811 121.283,326.020 121.412 C 326.229 121.542,326.400 121.367,326.400 121.024 C 326.400 120.247,326.433 120.238,325.057 121.364 M238.800 123.600 C 238.800 123.820,239.070 124.000,239.400 124.000 C 239.730 124.000,240.000 123.820,240.000 123.600 C 240.000 123.380,239.730 123.200,239.400 123.200 C 239.070 123.200,238.800 123.380,238.800 123.600 M321.000 124.463 C 320.780 124.666,320.240 125.081,319.801 125.384 C 319.361 125.687,319.141 126.075,319.313 126.246 C 319.484 126.417,320.104 126.078,320.691 125.491 C 321.661 124.521,321.940 123.595,321.000 124.463 M231.024 125.013 C 230.346 125.525,230.334 125.600,230.924 125.600 C 231.296 125.600,231.600 125.433,231.600 125.229 C 231.600 125.025,231.915 124.776,232.300 124.676 C 232.790 124.548,232.820 124.483,232.400 124.459 C 232.070 124.441,231.451 124.690,231.024 125.013 M228.000 125.600 C 228.000 125.820,228.270 126.000,228.600 126.000 C 228.930 126.000,229.200 125.820,229.200 125.600 C 229.200 125.380,228.930 125.200,228.600 125.200 C 228.270 125.200,228.000 125.380,228.000 125.600 M316.515 127.738 C 315.121 128.674,314.846 129.181,315.810 129.040 C 316.145 128.991,316.697 128.553,317.037 128.068 C 317.377 127.583,317.822 127.290,318.027 127.417 C 318.232 127.544,318.400 127.457,318.400 127.224 C 318.400 126.633,317.999 126.742,316.515 127.738 M216.533 128.132 C 216.533 128.486,216.874 128.598,217.555 128.468 C 218.490 128.289,218.510 128.246,217.789 127.965 C 216.657 127.522,216.533 127.539,216.533 128.132 M213.000 129.200 C 212.864 129.420,213.123 129.600,213.576 129.600 C 214.029 129.600,214.400 129.420,214.400 129.200 C 214.400 128.980,214.141 128.800,213.824 128.800 C 213.507 128.800,213.136 128.980,213.000 129.200 M211.200 129.600 C 211.200 129.820,211.470 130.000,211.800 130.000 C 212.130 130.000,212.400 129.820,212.400 129.600 C 212.400 129.380,212.130 129.200,211.800 129.200 C 211.470 129.200,211.200 129.380,211.200 129.600 M208.670 130.304 C 207.143 131.072,207.550 131.351,209.190 130.661 C 209.911 130.358,210.343 130.026,210.151 129.923 C 209.958 129.820,209.291 129.992,208.670 130.304 M205.200 131.287 C 205.200 131.742,206.709 131.671,206.998 131.203 C 207.141 130.972,206.814 130.841,206.222 130.890 C 205.660 130.936,205.200 131.115,205.200 131.287 M203.783 131.627 C 203.638 131.862,203.267 131.958,202.960 131.840 C 202.652 131.722,202.400 131.820,202.400 132.059 C 202.400 132.314,202.771 132.394,203.300 132.252 C 203.795 132.119,204.335 132.008,204.500 132.005 C 204.942 131.997,204.866 131.200,204.424 131.200 C 204.217 131.200,203.928 131.392,203.783 131.627 M310.212 132.381 C 310.083 132.590,308.587 133.745,306.888 134.947 C 305.190 136.149,303.395 137.514,302.900 137.982 C 302.405 138.449,302.000 138.703,302.000 138.546 C 302.000 138.389,301.595 138.626,301.100 139.072 C 300.605 139.519,298.940 140.844,297.400 142.017 C 295.860 143.190,294.540 144.297,294.466 144.477 C 294.392 144.657,294.167 144.703,293.966 144.579 C 293.765 144.455,293.600 144.543,293.600 144.776 C 293.600 145.414,294.309 145.286,295.135 144.500 C 295.539 144.115,296.143 143.620,296.475 143.400 C 297.040 143.027,299.383 141.308,301.525 139.696 C 302.034 139.313,302.770 138.730,303.161 138.400 C 304.037 137.659,305.207 136.884,306.000 136.519 C 306.330 136.367,306.929 135.826,307.332 135.317 C 307.735 134.809,308.221 134.489,308.412 134.607 C 308.603 134.726,308.958 134.452,309.200 134.000 C 309.442 133.548,309.787 133.268,309.967 133.379 C 310.146 133.490,310.615 133.225,311.009 132.791 C 311.634 132.099,311.644 132.000,311.086 132.000 C 310.734 132.000,310.341 132.171,310.212 132.381 M200.293 132.687 C 199.684 132.779,199.275 132.998,199.384 133.174 C 199.626 133.566,201.529 133.238,201.830 132.752 C 201.949 132.559,201.902 132.427,201.724 132.460 C 201.546 132.493,200.902 132.595,200.293 132.687 M196.867 133.867 C 196.593 134.160,195.926 134.400,195.384 134.400 C 194.843 134.400,194.400 134.599,194.400 134.843 C 194.400 135.086,194.625 135.202,194.900 135.099 C 195.175 134.997,196.075 134.671,196.900 134.376 C 198.392 133.842,198.871 133.333,197.882 133.333 C 197.598 133.333,197.141 133.573,196.867 133.867 M274.000 138.400 C 273.564 138.682,273.892 138.788,275.200 138.788 C 276.508 138.788,276.836 138.682,276.400 138.400 C 276.070 138.187,275.530 138.012,275.200 138.012 C 274.870 138.012,274.330 138.187,274.000 138.400 M180.800 139.084 C 180.470 139.205,179.930 139.531,179.600 139.808 C 179.270 140.084,178.370 140.456,177.600 140.633 C 176.830 140.810,176.065 140.987,175.900 141.027 C 175.735 141.067,175.439 141.123,175.243 141.150 C 175.046 141.178,174.787 141.457,174.667 141.771 C 174.428 142.392,176.461 141.905,177.500 141.093 C 177.775 140.878,178.000 140.835,178.000 140.997 C 178.000 141.159,178.408 141.025,178.906 140.698 C 179.404 140.372,180.394 139.977,181.106 139.821 C 181.818 139.664,182.400 139.371,182.400 139.168 C 182.400 138.769,181.750 138.734,180.800 139.084 M266.300 139.476 C 265.915 139.576,265.600 139.825,265.600 140.029 C 265.600 140.595,266.386 140.471,267.057 139.800 C 267.665 139.192,267.559 139.147,266.300 139.476 M279.200 139.837 C 279.200 140.456,280.223 140.611,280.572 140.045 C 280.692 139.850,280.433 139.597,279.996 139.483 C 279.480 139.348,279.200 139.473,279.200 139.837 M281.200 140.600 C 281.200 140.930,281.492 141.200,281.849 141.200 C 282.380 141.200,282.408 141.091,282.000 140.600 C 281.726 140.270,281.434 140.000,281.351 140.000 C 281.268 140.000,281.200 140.270,281.200 140.600 M258.596 140.807 C 258.458 141.030,258.179 141.110,257.976 140.985 C 257.772 140.859,257.290 140.951,256.903 141.188 C 256.064 141.704,257.790 141.506,259.800 140.856 L 261.000 140.469 259.924 140.434 C 259.332 140.415,258.734 140.583,258.596 140.807 M254.000 142.000 C 254.000 142.220,254.270 142.400,254.600 142.400 C 254.930 142.400,255.200 142.220,255.200 142.000 C 255.200 141.780,254.930 141.600,254.600 141.600 C 254.270 141.600,254.000 141.780,254.000 142.000 M284.000 141.906 C 284.000 142.074,284.721 142.524,285.603 142.906 C 287.419 143.692,288.201 143.808,287.000 143.112 C 286.560 142.857,286.149 142.689,286.086 142.738 C 286.023 142.788,285.695 142.552,285.357 142.214 C 284.703 141.560,284.000 141.400,284.000 141.906 M251.400 142.400 C 251.264 142.620,251.423 142.800,251.753 142.800 C 252.083 142.800,252.464 142.620,252.600 142.400 C 252.736 142.180,252.577 142.000,252.247 142.000 C 251.917 142.000,251.536 142.180,251.400 142.400 M171.700 142.848 C 170.633 143.156,169.836 144.000,170.613 144.000 C 171.065 144.000,173.600 142.829,173.600 142.620 C 173.600 142.345,173.327 142.378,171.700 142.848 M248.400 142.688 C 247.850 142.787,247.220 143.047,247.000 143.265 C 246.735 143.528,247.140 143.562,248.200 143.366 C 249.080 143.203,250.025 143.069,250.300 143.068 C 250.575 143.067,250.800 142.917,250.800 142.733 C 250.800 142.390,250.135 142.377,248.400 142.688 M244.400 144.000 C 244.400 144.220,244.749 144.400,245.176 144.400 C 245.603 144.400,246.064 144.220,246.200 144.000 C 246.340 143.773,246.004 143.600,245.424 143.600 C 244.861 143.600,244.400 143.780,244.400 144.000 M241.100 144.276 C 240.715 144.376,240.400 144.638,240.400 144.856 C 240.400 145.088,240.776 145.133,241.300 144.964 C 241.795 144.805,242.425 144.673,242.700 144.670 C 242.975 144.668,243.200 144.517,243.200 144.333 C 243.200 143.986,242.302 143.962,241.100 144.276 M167.100 144.865 C 166.495 145.086,166.000 145.436,166.000 145.644 C 166.000 145.951,168.151 145.100,168.767 144.549 C 169.053 144.293,168.248 144.446,167.100 144.865 M290.520 144.968 C 290.598 145.205,291.251 145.458,291.972 145.528 C 293.614 145.689,293.276 144.961,291.594 144.714 C 290.834 144.602,290.431 144.697,290.520 144.968 M235.200 146.000 C 235.200 146.220,235.785 146.397,236.500 146.394 C 237.486 146.389,237.655 146.294,237.200 146.000 C 236.414 145.492,235.200 145.492,235.200 146.000 M231.696 146.696 C 230.319 147.043,229.280 147.413,229.386 147.520 C 229.696 147.829,234.400 146.727,234.400 146.345 C 234.400 146.155,234.355 146.015,234.300 146.033 C 234.245 146.052,233.073 146.350,231.696 146.696 M163.542 146.591 C 163.382 146.751,162.109 147.059,161.143 147.170 C 161.001 147.187,160.786 147.461,160.663 147.780 C 160.515 148.167,160.633 148.285,161.020 148.137 C 161.339 148.014,161.600 147.759,161.600 147.570 C 161.600 147.380,161.830 147.313,162.111 147.421 C 162.393 147.529,162.978 147.349,163.411 147.022 C 163.845 146.694,164.095 146.420,163.967 146.413 C 163.838 146.406,163.647 146.486,163.542 146.591 M227.200 148.000 C 227.200 148.220,227.661 148.400,228.224 148.400 C 228.804 148.400,229.140 148.227,229.000 148.000 C 228.864 147.780,228.403 147.600,227.976 147.600 C 227.549 147.600,227.200 147.780,227.200 148.000 M158.048 148.801 C 157.305 148.977,156.565 149.333,156.404 149.594 C 156.242 149.855,155.999 150.061,155.863 150.052 C 155.361 150.018,152.592 151.302,152.355 151.679 C 152.221 151.893,152.041 152.043,151.955 152.013 C 151.633 151.898,148.590 153.306,148.355 153.679 C 148.221 153.893,147.951 154.077,147.755 154.088 C 146.633 154.151,143.277 156.400,144.304 156.400 C 144.489 156.400,144.811 156.232,145.020 156.026 C 145.540 155.514,158.235 149.200,158.744 149.200 C 158.969 149.200,159.264 149.020,159.400 148.800 C 159.536 148.580,159.592 148.418,159.524 148.441 C 159.456 148.463,158.792 148.625,158.048 148.801 M218.928 150.162 C 218.008 150.403,217.108 150.756,216.928 150.946 C 216.554 151.340,219.905 150.870,220.751 150.410 C 221.749 149.868,220.632 149.716,218.928 150.162 M213.400 152.000 C 213.536 152.220,213.907 152.400,214.224 152.400 C 214.541 152.400,214.800 152.220,214.800 152.000 C 214.800 151.780,214.429 151.600,213.976 151.600 C 213.523 151.600,213.264 151.780,213.400 152.000 M210.842 152.434 C 210.315 152.645,209.971 152.905,210.078 153.011 C 210.388 153.322,212.800 152.736,212.800 152.350 C 212.800 151.909,212.076 151.940,210.842 152.434 M206.400 154.000 C 206.400 154.220,206.670 154.400,207.000 154.400 C 207.330 154.400,207.600 154.220,207.600 154.000 C 207.600 153.780,207.330 153.600,207.000 153.600 C 206.670 153.600,206.400 153.780,206.400 154.000 M202.800 154.871 C 202.142 155.148,201.984 155.360,202.339 155.492 C 202.636 155.602,203.169 155.402,203.525 155.046 C 204.264 154.308,204.185 154.289,202.800 154.871 M200.000 156.187 C 200.000 156.545,200.235 156.685,200.600 156.545 C 200.930 156.418,201.200 156.154,201.200 155.957 C 201.200 155.761,200.930 155.600,200.600 155.600 C 200.270 155.600,200.000 155.864,200.000 156.187 M198.300 156.276 C 197.915 156.376,197.600 156.609,197.600 156.792 C 197.600 157.204,199.131 156.835,199.430 156.352 C 199.657 155.984,199.464 155.971,198.300 156.276 M141.708 156.941 C 141.217 157.184,140.727 157.613,140.619 157.894 C 140.494 158.221,140.993 158.114,142.012 157.594 C 142.885 157.148,143.600 156.697,143.600 156.592 C 143.600 156.289,142.681 156.458,141.708 156.941 M194.267 157.867 C 193.743 158.390,194.013 158.722,194.796 158.517 C 195.233 158.403,195.492 158.150,195.372 157.955 C 195.112 157.534,194.637 157.496,194.267 157.867 M191.729 158.530 C 191.029 158.789,190.309 159.164,190.129 159.364 C 189.935 159.579,190.127 159.608,190.600 159.436 C 191.040 159.275,191.895 159.044,192.500 158.922 C 193.105 158.800,193.600 158.543,193.600 158.350 C 193.600 157.914,193.326 157.940,191.729 158.530 M138.596 158.807 C 138.458 159.030,138.149 159.092,137.911 158.945 C 137.651 158.785,137.591 158.863,137.762 159.138 C 138.138 159.747,138.487 159.721,139.424 159.013 C 140.103 158.499,140.115 158.424,139.524 158.413 C 139.152 158.406,138.734 158.583,138.596 158.807 M136.400 160.037 C 136.400 160.205,136.085 160.404,135.700 160.480 C 135.304 160.559,135.179 160.731,135.411 160.878 C 135.637 161.021,136.241 160.822,136.753 160.435 C 137.448 159.911,137.521 159.733,137.042 159.733 C 136.689 159.733,136.400 159.870,136.400 160.037 M186.842 160.434 C 186.315 160.645,185.963 160.896,186.059 160.993 C 186.347 161.281,188.000 160.736,188.000 160.353 C 188.000 160.159,187.955 160.011,187.900 160.025 C 187.845 160.039,187.369 160.223,186.842 160.434 M184.012 161.584 C 183.059 162.187,183.709 162.314,184.800 161.739 C 185.351 161.448,185.531 161.212,185.200 161.212 C 184.870 161.212,184.335 161.380,184.012 161.584 M132.509 161.853 C 132.637 162.061,132.215 162.464,131.571 162.749 C 130.396 163.269,129.875 164.176,131.000 163.745 C 131.330 163.618,131.600 163.354,131.600 163.157 C 131.600 162.961,131.859 162.800,132.176 162.800 C 132.954 162.800,133.326 162.125,132.745 161.766 C 132.487 161.607,132.381 161.646,132.509 161.853 M182.000 162.400 C 182.000 162.620,182.270 162.800,182.600 162.800 C 182.930 162.800,183.200 162.620,183.200 162.400 C 183.200 162.180,182.930 162.000,182.600 162.000 C 182.270 162.000,182.000 162.180,182.000 162.400 M179.072 163.397 C 178.618 163.729,178.508 164.020,178.776 164.185 C 179.009 164.329,179.200 164.270,179.200 164.053 C 179.200 163.836,179.515 163.596,179.900 163.520 C 180.285 163.444,180.418 163.266,180.196 163.126 C 179.973 162.986,179.467 163.108,179.072 163.397 M129.399 164.001 C 129.245 164.251,128.746 164.594,128.291 164.762 C 127.836 164.931,127.630 165.171,127.834 165.297 C 128.257 165.559,130.227 164.094,129.897 163.763 C 129.778 163.644,129.554 163.751,129.399 164.001 M176.996 164.407 C 176.858 164.630,176.590 164.717,176.400 164.600 C 176.210 164.483,175.925 164.598,175.765 164.856 C 175.560 165.189,175.756 165.251,176.437 165.068 C 176.967 164.927,177.535 164.808,177.700 164.805 C 178.142 164.797,178.066 164.000,177.624 164.000 C 177.417 164.000,177.134 164.183,176.996 164.407 M173.200 165.744 C 171.492 166.364,169.261 167.562,169.772 167.584 C 170.494 167.615,172.800 166.634,172.800 166.296 C 172.800 166.107,172.980 166.064,173.199 166.200 C 173.419 166.335,173.999 166.166,174.488 165.823 C 175.552 165.078,175.107 165.051,173.200 165.744 M124.136 167.423 C 124.004 167.766,123.641 167.948,123.328 167.828 C 123.012 167.707,122.867 167.786,123.003 168.005 C 123.137 168.222,122.877 168.400,122.424 168.400 C 121.964 168.400,121.600 168.661,121.600 168.990 C 121.600 169.437,122.038 169.316,123.400 168.493 C 125.129 167.449,125.661 166.800,124.787 166.800 C 124.561 166.800,124.267 167.080,124.136 167.423 M167.318 168.130 C 165.759 168.701,164.882 169.467,165.787 169.467 C 166.124 169.467,166.400 169.317,166.400 169.133 C 166.400 168.950,166.745 168.800,167.167 168.800 C 168.212 168.800,169.200 168.391,169.200 167.957 C 169.200 167.514,168.934 167.539,167.318 168.130 M119.205 170.579 C 118.658 170.882,118.073 171.045,117.905 170.941 C 117.737 170.838,117.600 171.038,117.600 171.387 C 117.600 172.075,119.643 171.302,120.198 170.403 C 120.515 169.891,120.418 169.908,119.205 170.579 M161.600 170.800 C 161.050 171.230,160.780 171.582,161.000 171.582 C 161.220 171.582,161.850 171.230,162.400 170.800 C 162.950 170.370,163.220 170.018,163.000 170.018 C 162.780 170.018,162.150 170.370,161.600 170.800 M116.490 172.052 C 116.551 172.333,116.390 172.572,116.133 172.582 C 115.460 172.608,115.083 173.081,115.520 173.351 C 115.725 173.477,116.199 173.243,116.573 172.830 C 117.030 172.325,117.110 171.991,116.816 171.810 C 116.576 171.662,116.430 171.771,116.490 172.052 M158.129 172.378 C 157.431 172.804,155.901 173.553,154.729 174.042 C 152.203 175.096,151.463 175.644,152.921 175.380 C 153.499 175.275,155.193 174.563,156.686 173.797 C 158.179 173.031,159.760 172.400,160.200 172.396 C 160.863 172.389,160.897 172.321,160.400 172.000 C 159.602 171.484,159.592 171.486,158.129 172.378 M112.812 174.784 C 112.488 174.989,112.321 175.254,112.441 175.374 C 112.560 175.494,113.005 175.329,113.429 175.009 C 114.273 174.371,113.760 174.185,112.812 174.784 M110.954 175.775 C 110.822 176.119,110.474 176.400,110.180 176.400 C 109.886 176.400,109.410 176.731,109.123 177.137 C 108.835 177.542,108.150 178.108,107.600 178.396 C 106.732 178.850,105.576 179.687,103.708 181.214 C 103.437 181.436,103.109 181.601,102.978 181.582 C 102.847 181.563,102.438 181.884,102.070 182.294 C 101.701 182.705,100.680 183.565,99.800 184.205 C 98.920 184.846,97.878 185.692,97.484 186.085 C 97.091 186.478,96.525 186.800,96.227 186.800 C 95.929 186.800,95.578 187.081,95.446 187.425 C 95.311 187.775,95.001 187.924,94.741 187.764 C 94.452 187.585,94.384 187.651,94.562 187.938 C 94.730 188.210,94.596 188.400,94.236 188.400 C 93.899 188.400,93.225 188.940,92.737 189.600 C 92.249 190.260,91.634 190.800,91.371 190.800 C 91.107 190.800,90.573 191.295,90.184 191.900 C 89.492 192.975,89.494 192.986,90.238 192.364 C 91.251 191.517,97.057 186.881,98.809 185.519 C 99.574 184.924,101.730 183.308,103.600 181.928 C 107.721 178.887,107.859 178.780,108.829 177.900 C 109.253 177.515,109.735 177.182,109.900 177.161 C 110.711 177.054,112.089 175.702,111.658 175.436 C 111.399 175.276,111.088 175.426,110.954 175.775 M149.821 176.438 C 148.953 176.861,148.123 177.401,147.977 177.638 C 147.830 177.875,147.588 178.034,147.438 177.993 C 147.120 177.904,144.693 178.851,144.400 179.177 C 144.290 179.300,143.495 179.760,142.633 180.200 C 139.905 181.592,139.600 181.783,139.600 182.095 C 139.600 182.263,139.870 182.400,140.200 182.400 C 140.530 182.400,140.800 182.239,140.800 182.042 C 140.800 181.845,142.375 180.922,144.300 179.990 C 146.225 179.058,148.090 178.044,148.445 177.736 C 148.800 177.427,149.507 177.095,150.016 176.997 C 150.525 176.899,151.122 176.638,151.344 176.416 C 152.101 175.659,151.401 175.669,149.821 176.438 M137.400 183.012 C 136.740 183.553,135.988 183.997,135.729 183.998 C 135.469 183.999,134.942 184.315,134.557 184.700 C 134.172 185.085,133.795 185.348,133.720 185.285 C 133.645 185.222,133.294 185.332,132.940 185.530 C 132.499 185.776,132.439 185.977,132.749 186.168 C 132.997 186.322,133.200 186.292,133.200 186.103 C 133.200 185.913,134.100 185.435,135.199 185.039 C 136.298 184.644,137.107 184.174,136.997 183.995 C 136.886 183.816,137.336 183.430,137.998 183.137 C 138.659 182.844,139.200 182.469,139.200 182.302 C 139.200 181.776,138.637 181.998,137.400 183.012 M131.043 186.614 C 130.705 186.952,130.377 187.180,130.314 187.122 C 130.031 186.856,128.283 188.416,128.557 188.690 C 128.727 188.860,129.076 188.727,129.333 188.394 C 129.590 188.062,130.295 187.571,130.900 187.304 C 131.505 187.036,132.000 186.633,132.000 186.409 C 132.000 185.845,131.761 185.896,131.043 186.614 M126.676 189.374 C 126.278 189.676,126.098 190.007,126.276 190.110 C 126.454 190.213,126.946 189.961,127.370 189.549 C 128.257 188.686,127.752 188.559,126.676 189.374 M123.711 191.128 C 122.076 192.172,121.586 192.800,122.404 192.800 C 122.626 192.800,123.116 192.440,123.493 192.000 C 123.870 191.560,124.397 191.200,124.665 191.200 C 125.161 191.200,125.800 190.466,125.535 190.201 C 125.455 190.121,124.634 190.538,123.711 191.128 M120.081 193.394 C 118.329 194.603,118.192 194.765,119.063 194.601 C 119.469 194.524,120.070 194.445,120.400 194.424 C 120.933 194.392,120.933 194.345,120.400 194.000 C 119.883 193.666,119.893 193.611,120.476 193.606 C 120.848 193.603,121.271 193.408,121.416 193.173 C 121.898 192.394,121.415 192.474,120.081 193.394 M86.868 194.527 C 85.631 195.844,85.792 196.225,87.081 195.030 C 87.675 194.479,88.066 193.933,87.949 193.816 C 87.832 193.699,87.346 194.019,86.868 194.527 M83.610 197.194 C 81.573 199.460,81.651 199.871,83.754 197.957 C 84.759 197.042,85.485 196.138,85.367 195.947 C 85.090 195.498,85.211 195.412,83.610 197.194 M115.000 196.966 C 114.340 197.495,113.949 198.078,114.130 198.261 C 114.312 198.444,114.635 198.280,114.850 197.897 C 115.064 197.514,115.501 197.200,115.820 197.200 C 116.139 197.200,116.400 196.930,116.400 196.600 C 116.400 195.834,116.419 195.829,115.000 196.966 M152.480 196.880 C 151.803 197.557,151.884 198.606,152.664 199.251 C 153.272 199.754,153.281 199.724,152.768 198.900 C 152.314 198.171,152.302 197.848,152.707 197.200 C 153.273 196.294,153.187 196.173,152.480 196.880 M110.913 199.825 C 108.534 201.432,108.196 201.827,108.855 202.234 C 109.151 202.417,109.216 202.350,109.033 202.053 C 108.848 201.754,109.260 201.367,110.171 200.986 C 110.957 200.658,111.600 200.212,111.600 199.995 C 111.600 199.778,111.848 199.600,112.151 199.600 C 112.454 199.600,112.926 199.330,113.200 199.000 C 114.024 198.007,113.123 198.332,110.913 199.825 M77.700 202.579 C 75.885 204.429,74.400 205.824,74.400 205.678 C 74.400 205.414,69.721 210.223,68.205 212.045 C 67.768 212.570,68.947 211.560,70.826 209.800 C 72.704 208.040,75.897 205.072,77.921 203.204 C 81.334 200.054,82.065 199.189,81.300 199.207 C 81.135 199.211,79.515 200.728,77.700 202.579 M107.002 202.798 C 106.603 203.239,106.462 203.600,106.689 203.600 C 107.192 203.600,108.190 202.457,107.921 202.188 C 107.815 202.082,107.402 202.356,107.002 202.798 M104.900 204.300 C 104.405 204.629,104.000 205.146,104.000 205.449 C 104.000 205.752,103.819 205.955,103.599 205.900 C 103.073 205.769,98.413 209.698,98.647 210.076 C 98.745 210.235,99.332 209.836,99.951 209.188 C 100.570 208.540,101.223 208.143,101.403 208.305 C 101.582 208.467,101.599 208.375,101.441 208.100 C 101.265 207.794,101.386 207.600,101.754 207.600 C 102.084 207.600,102.635 207.200,102.977 206.711 C 103.320 206.222,103.600 205.986,103.600 206.186 C 103.600 206.386,104.095 206.088,104.700 205.525 C 105.305 204.961,106.061 204.420,106.380 204.323 C 106.886 204.169,106.886 204.119,106.380 203.924 C 106.061 203.802,105.395 203.971,104.900 204.300 M65.647 214.350 C 65.123 214.753,64.767 215.300,64.855 215.565 C 64.947 215.840,65.403 215.521,65.920 214.823 C 66.967 213.406,66.939 213.357,65.647 214.350 M92.867 214.824 C 92.380 215.277,92.109 215.853,92.264 216.104 C 92.468 216.434,92.594 216.419,92.718 216.047 C 92.812 215.765,93.454 215.190,94.144 214.769 C 95.185 214.134,95.259 214.003,94.575 214.001 C 94.122 214.001,93.353 214.371,92.867 214.824 M62.111 218.152 C 61.623 218.667,61.335 219.201,61.471 219.338 C 61.696 219.563,63.600 217.811,63.600 217.379 C 63.600 216.941,62.928 217.289,62.111 218.152 M95.400 219.200 C 96.500 219.852,97.625 220.389,97.900 220.393 C 98.175 220.397,98.400 220.559,98.400 220.753 C 98.400 220.948,98.715 221.197,99.100 221.308 C 99.485 221.419,100.115 221.639,100.500 221.797 C 100.903 221.963,101.200 221.909,101.200 221.670 C 101.200 221.441,100.795 221.140,100.300 221.002 C 99.172 220.686,97.464 219.884,97.200 219.546 C 96.980 219.265,94.054 217.996,93.651 218.007 C 93.513 218.011,94.300 218.548,95.400 219.200 M102.000 221.900 C 102.000 222.069,102.360 222.432,102.800 222.707 C 103.240 222.982,103.600 223.069,103.600 222.900 C 103.600 222.731,103.240 222.368,102.800 222.093 C 102.360 221.818,102.000 221.731,102.000 221.900 M104.000 223.157 C 104.000 223.601,105.231 224.103,105.546 223.788 C 105.673 223.661,105.512 223.389,105.188 223.184 C 104.440 222.711,104.000 222.701,104.000 223.157 M65.705 223.876 C 66.077 224.248,66.493 224.440,66.631 224.303 C 67.024 223.909,66.420 223.200,65.691 223.200 C 65.080 223.200,65.081 223.253,65.705 223.876 M194.800 223.600 C 194.800 223.820,194.575 223.955,194.300 223.900 C 194.025 223.845,193.845 224.025,193.900 224.300 C 193.955 224.575,193.841 224.800,193.646 224.800 C 193.451 224.800,192.978 225.295,192.594 225.900 C 192.012 226.817,192.156 226.751,193.465 225.500 C 195.147 223.892,196.187 223.652,197.424 224.587 C 198.341 225.281,198.800 225.352,198.800 224.800 C 198.800 224.580,198.530 224.400,198.200 224.400 C 197.870 224.400,197.600 224.209,197.600 223.976 C 197.600 223.743,197.420 223.664,197.200 223.800 C 196.980 223.936,196.800 223.857,196.800 223.624 C 196.800 223.391,196.350 223.200,195.800 223.200 C 195.250 223.200,194.800 223.380,194.800 223.600 M106.652 223.915 C 106.415 224.300,107.477 224.995,108.100 224.864 C 108.265 224.829,108.400 224.980,108.400 225.200 C 108.400 225.420,108.580 225.600,108.800 225.600 C 109.561 225.600,109.197 224.853,108.300 224.573 C 107.805 224.419,107.288 224.117,107.150 223.903 C 106.990 223.654,106.811 223.658,106.652 223.915 M67.200 224.588 C 67.200 224.925,67.335 225.171,67.500 225.136 C 68.088 225.012,69.192 225.690,68.974 226.042 C 68.852 226.239,68.943 226.400,69.176 226.400 C 69.941 226.400,69.621 225.766,68.400 224.863 C 67.443 224.156,67.200 224.100,67.200 224.588 M109.600 225.520 C 109.600 225.938,112.389 226.944,112.697 226.637 C 112.827 226.507,112.633 226.400,112.267 226.400 C 111.900 226.400,111.600 226.209,111.600 225.976 C 111.600 225.743,111.420 225.664,111.200 225.800 C 110.980 225.936,110.800 225.857,110.800 225.624 C 110.800 225.391,110.530 225.200,110.200 225.200 C 109.870 225.200,109.600 225.344,109.600 225.520 M199.600 225.325 C 199.600 225.393,200.121 225.835,200.757 226.305 C 201.860 227.121,201.905 227.124,201.712 226.385 C 201.600 225.958,201.350 225.708,201.155 225.828 C 200.960 225.949,200.800 225.857,200.800 225.624 C 200.800 225.391,200.530 225.200,200.200 225.200 C 199.870 225.200,199.600 225.256,199.600 225.325 M170.200 227.924 C 171.520 228.759,172.825 229.577,173.100 229.744 C 173.379 229.913,173.600 229.855,173.600 229.614 C 173.600 229.375,173.150 229.009,172.600 228.800 C 172.050 228.591,171.600 228.225,171.600 227.986 C 171.600 227.748,171.439 227.652,171.242 227.774 C 171.045 227.896,170.776 227.715,170.645 227.372 C 170.513 227.030,170.237 226.854,170.030 226.981 C 169.824 227.109,169.542 227.030,169.404 226.807 C 169.266 226.583,168.848 226.402,168.476 226.404 C 168.104 226.406,168.880 227.090,170.200 227.924 M113.200 227.199 C 113.200 227.467,113.433 227.596,113.717 227.487 C 114.001 227.378,114.575 227.539,114.993 227.844 C 115.411 228.150,116.034 228.386,116.376 228.368 C 116.916 228.341,116.919 228.306,116.400 228.108 C 116.070 227.983,115.708 227.741,115.596 227.572 C 115.213 226.992,113.200 226.680,113.200 227.199 M202.800 227.157 C 202.800 227.657,203.929 228.038,204.185 227.624 C 204.301 227.437,204.112 227.175,203.765 227.042 C 202.926 226.720,202.800 226.735,202.800 227.157 M117.380 228.768 C 117.545 229.035,117.781 229.153,117.903 229.030 C 118.026 228.907,118.372 229.011,118.673 229.260 C 119.158 229.663,119.985 229.452,119.566 229.033 C 119.087 228.554,117.099 228.314,117.380 228.768 M205.816 228.827 C 205.961 229.061,206.181 229.153,206.303 229.030 C 206.426 228.907,206.768 229.007,207.063 229.252 C 207.401 229.533,207.600 229.547,207.600 229.292 C 207.600 229.068,207.315 228.776,206.967 228.643 C 206.007 228.274,205.523 228.351,205.816 228.827 M120.000 229.600 C 120.000 229.820,120.371 230.000,120.824 230.000 C 121.277 230.000,121.536 229.820,121.400 229.600 C 121.264 229.380,120.893 229.200,120.576 229.200 C 120.259 229.200,120.000 229.380,120.000 229.600 M208.000 229.591 C 208.000 229.898,210.943 231.600,211.475 231.600 C 212.162 231.600,211.327 230.804,210.433 230.607 C 209.792 230.466,209.167 230.092,209.046 229.776 C 208.798 229.129,208.000 228.988,208.000 229.591 M76.400 230.383 C 76.400 230.623,76.850 230.991,77.400 231.200 C 77.950 231.409,78.400 231.765,78.400 231.990 C 78.400 232.216,78.652 232.400,78.960 232.400 C 79.268 232.400,80.455 233.030,81.599 233.799 C 82.743 234.569,83.828 235.106,84.012 234.993 C 84.195 234.880,84.458 234.970,84.596 235.193 C 84.910 235.701,85.600 235.727,85.600 235.231 C 85.600 234.854,82.851 233.767,82.289 233.922 C 82.118 233.969,81.873 233.736,81.746 233.404 C 81.619 233.072,81.264 232.800,80.957 232.800 C 80.651 232.800,80.400 232.632,80.400 232.427 C 80.400 232.222,79.995 231.928,79.500 231.774 C 79.005 231.621,78.105 231.146,77.500 230.720 C 76.895 230.294,76.400 230.142,76.400 230.383 M175.600 231.086 C 177.508 232.602,180.000 234.008,180.000 233.568 C 180.000 233.324,179.652 233.034,179.228 232.923 C 178.803 232.812,178.354 232.457,178.230 232.135 C 178.107 231.813,177.824 231.661,177.603 231.798 C 177.381 231.935,177.200 231.878,177.200 231.670 C 177.200 231.463,176.885 231.182,176.500 231.046 C 176.115 230.911,175.530 230.685,175.200 230.545 C 174.870 230.406,175.050 230.649,175.600 231.086 M124.800 231.249 C 124.800 231.493,125.151 231.601,125.581 231.489 C 126.010 231.377,126.447 231.450,126.551 231.652 C 126.655 231.855,126.699 231.807,126.649 231.547 C 126.532 230.939,124.800 230.660,124.800 231.249 M147.200 231.203 C 147.200 231.421,147.455 231.600,147.767 231.600 C 148.079 231.600,148.664 231.716,149.067 231.859 C 149.663 232.069,149.708 232.018,149.305 231.584 C 148.698 230.929,147.200 230.657,147.200 231.203 M191.183 234.600 C 191.067 236.580,190.824 238.515,190.643 238.900 C 190.437 239.339,190.477 239.600,190.750 239.600 C 191.426 239.600,191.647 238.099,191.515 234.400 L 191.394 231.000 191.183 234.600 M129.813 232.764 C 130.039 232.996,130.849 233.290,131.613 233.419 C 133.271 233.699,132.460 233.063,130.600 232.626 C 129.763 232.429,129.525 232.471,129.813 232.764 M151.944 233.206 C 152.955 234.056,153.600 234.224,153.600 233.639 C 153.600 233.441,153.015 233.083,152.300 232.845 L 151.000 232.412 151.944 233.206 M213.600 232.824 C 213.600 233.057,213.765 233.145,213.966 233.021 C 214.167 232.897,214.392 232.931,214.466 233.098 C 214.650 233.512,217.680 235.024,218.078 234.900 C 218.255 234.845,218.400 234.959,218.400 235.153 C 218.400 235.348,218.760 235.601,219.200 235.716 C 219.640 235.831,220.000 235.791,220.000 235.627 C 220.000 235.262,218.174 234.400,217.401 234.400 C 217.092 234.400,216.696 234.171,216.520 233.892 C 216.244 233.453,214.310 232.400,213.781 232.400 C 213.682 232.400,213.600 232.591,213.600 232.824 M135.040 233.936 C 134.730 234.436,137.628 235.332,138.083 234.877 C 138.252 234.708,137.815 234.526,137.111 234.472 C 136.407 234.418,135.712 234.181,135.566 233.945 C 135.381 233.645,135.221 233.643,135.040 233.936 M180.400 234.040 C 180.400 234.441,181.991 234.942,182.297 234.637 C 182.427 234.506,182.223 234.400,181.843 234.400 C 181.463 234.400,181.245 234.250,181.359 234.067 C 181.472 233.883,181.303 233.733,180.982 233.733 C 180.662 233.733,180.400 233.871,180.400 234.040 M143.194 234.806 C 142.642 235.284,141.968 235.517,141.532 235.379 C 141.117 235.247,140.800 235.342,140.800 235.598 C 140.800 236.415,143.270 235.859,143.903 234.900 C 144.639 233.786,144.405 233.755,143.194 234.806 M155.426 234.842 C 155.552 235.046,155.823 235.109,156.028 234.983 C 156.232 234.856,156.400 234.909,156.400 235.099 C 156.400 235.552,159.579 236.954,159.893 236.640 C 160.025 236.508,159.828 236.400,159.454 236.400 C 159.081 236.400,158.671 236.130,158.545 235.800 C 158.418 235.470,158.004 235.200,157.624 235.200 C 157.244 235.200,156.808 235.075,156.655 234.922 C 156.225 234.492,155.167 234.423,155.426 234.842 M182.400 235.366 C 182.400 235.754,188.575 239.205,188.968 239.038 C 189.206 238.936,188.995 238.731,188.500 238.580 C 188.005 238.430,187.600 238.137,187.600 237.930 C 187.600 237.722,187.419 237.665,187.197 237.802 C 186.976 237.939,186.691 237.780,186.564 237.450 C 186.437 237.119,185.796 236.731,185.140 236.587 C 184.483 236.443,183.849 236.072,183.730 235.762 C 183.541 235.269,182.400 234.929,182.400 235.366 M220.691 235.842 C 220.439 236.094,222.054 237.600,222.576 237.600 C 222.713 237.600,223.453 237.862,224.220 238.183 C 224.987 238.503,225.669 238.728,225.736 238.683 C 225.803 238.637,226.172 238.915,226.557 239.300 C 227.325 240.068,227.840 240.183,228.163 239.660 C 228.279 239.472,227.659 239.084,226.787 238.796 C 225.914 238.508,225.200 238.110,225.200 237.912 C 225.200 237.715,225.020 237.664,224.800 237.800 C 224.580 237.936,224.400 237.857,224.400 237.624 C 224.400 237.391,223.950 237.200,223.400 237.200 C 222.850 237.200,222.400 237.009,222.400 236.776 C 222.400 236.543,222.231 236.457,222.025 236.585 C 221.818 236.712,221.493 236.538,221.302 236.197 C 221.112 235.856,220.837 235.697,220.691 235.842 M86.800 236.442 C 86.800 236.662,87.340 237.030,88.000 237.260 C 88.660 237.490,89.200 237.805,89.200 237.960 C 89.200 238.290,93.161 239.772,93.402 239.532 C 93.491 239.442,92.042 238.621,90.182 237.706 C 88.322 236.791,86.800 236.222,86.800 236.442 M228.634 239.946 C 228.480 240.194,228.798 240.485,229.384 240.632 C 229.943 240.772,230.400 241.077,230.400 241.310 C 230.400 241.543,230.511 241.622,230.648 241.486 C 230.784 241.350,231.157 241.500,231.476 241.819 C 232.200 242.543,232.842 242.576,232.574 241.875 C 232.463 241.587,231.703 241.111,230.886 240.819 C 230.069 240.527,229.288 240.113,229.150 239.901 C 228.994 239.660,228.800 239.677,228.634 239.946 M98.000 241.930 C 98.000 242.310,99.052 242.818,100.300 243.040 C 101.068 243.177,100.893 242.520,100.100 242.292 C 99.715 242.181,99.085 241.961,98.700 241.803 C 98.297 241.637,98.000 241.691,98.000 241.930 M233.593 242.696 C 233.919 242.824,234.435 243.178,234.740 243.483 C 235.046 243.788,235.409 243.925,235.547 243.786 C 235.890 243.443,234.398 242.392,233.624 242.432 C 233.092 242.459,233.087 242.497,233.593 242.696 M101.401 243.199 C 101.264 243.420,101.534 243.600,102.000 243.600 C 102.466 243.600,102.736 243.780,102.600 244.000 C 102.464 244.220,102.644 244.400,103.000 244.400 C 103.772 244.400,103.455 243.764,102.402 243.201 C 101.899 242.932,101.566 242.931,101.401 243.199 M104.000 244.361 C 104.000 244.743,106.417 245.716,106.690 245.444 C 106.828 245.305,104.521 244.000,104.139 244.000 C 104.062 244.000,104.000 244.162,104.000 244.361 M238.200 245.200 C 238.336 245.420,238.717 245.600,239.047 245.600 C 239.377 245.600,239.536 245.420,239.400 245.200 C 239.264 244.980,238.883 244.800,238.553 244.800 C 238.223 244.800,238.064 244.980,238.200 245.200 M107.213 245.894 C 106.887 246.022,107.847 246.459,109.366 246.876 C 112.456 247.722,113.325 247.615,110.714 246.710 C 109.772 246.382,108.730 246.013,108.400 245.889 C 108.070 245.765,107.536 245.767,107.213 245.894 M240.530 245.918 C 240.219 246.112,240.386 246.363,241.030 246.667 C 241.588 246.930,242.094 246.971,242.223 246.762 C 242.346 246.563,242.182 246.400,241.857 246.400 C 241.532 246.400,241.207 246.226,241.133 246.013 C 241.060 245.800,240.789 245.757,240.530 245.918 M243.200 247.692 C 243.750 247.933,244.878 248.578,245.707 249.125 C 246.536 249.671,247.333 250.000,247.478 249.855 C 247.807 249.526,246.322 248.401,245.902 248.661 C 245.733 248.765,245.487 248.570,245.355 248.228 C 245.224 247.885,244.955 247.704,244.758 247.826 C 244.561 247.948,244.400 247.857,244.400 247.624 C 244.400 247.391,243.905 247.212,243.300 247.227 L 242.200 247.254 243.200 247.692 M114.000 248.353 C 114.000 248.548,114.405 248.836,114.900 248.994 C 117.492 249.822,118.052 249.567,115.751 248.605 C 114.057 247.897,114.000 247.889,114.000 248.353 M117.668 249.947 C 117.306 250.178,117.624 250.361,118.668 250.522 C 119.511 250.652,120.633 250.886,121.163 251.042 C 121.783 251.225,122.035 251.180,121.871 250.915 C 121.731 250.688,121.118 250.403,120.508 250.280 C 119.899 250.157,119.130 249.955,118.800 249.832 C 118.470 249.709,117.961 249.761,117.668 249.947 M250.022 251.100 C 250.055 251.562,254.000 254.058,254.000 253.617 C 254.000 253.403,253.595 253.017,253.100 252.760 C 252.605 252.502,251.878 251.956,251.484 251.546 C 250.759 250.789,249.982 250.553,250.022 251.100 M123.073 251.845 C 123.190 252.150,123.536 252.400,123.843 252.400 C 124.674 252.400,124.516 251.724,123.630 251.492 C 123.090 251.351,122.923 251.456,123.073 251.845 M254.757 254.948 C 255.206 255.489,253.556 257.306,251.368 258.684 C 250.618 259.156,250.619 259.165,251.400 259.068 C 252.454 258.937,253.681 258.222,253.636 257.764 C 253.616 257.564,253.748 257.400,253.929 257.400 C 254.454 257.400,255.425 256.247,255.360 255.700 C 255.327 255.425,255.278 255.020,255.250 254.800 C 255.222 254.580,254.998 254.400,254.751 254.400 C 254.422 254.400,254.424 254.546,254.757 254.948 M139.800 256.400 C 141.117 257.272,141.600 257.390,141.600 256.839 C 141.600 256.641,141.033 256.281,140.340 256.039 C 138.550 255.415,138.432 255.494,139.800 256.400 M145.400 258.000 C 144.691 258.305,144.725 258.347,145.700 258.372 C 146.305 258.387,146.800 258.220,146.800 258.000 C 146.800 257.531,146.493 257.531,145.400 258.000 M149.200 258.713 C 149.200 258.885,149.650 259.063,150.200 259.108 C 150.750 259.154,151.200 259.013,151.200 258.796 C 151.200 258.578,150.750 258.400,150.200 258.400 C 149.650 258.400,149.200 258.541,149.200 258.713 M151.800 259.200 C 151.654 259.436,152.095 259.597,152.876 259.594 C 153.878 259.589,154.054 259.493,153.600 259.200 C 152.822 258.697,152.111 258.697,151.800 259.200 M248.200 259.200 C 248.055 259.434,248.470 259.600,249.200 259.600 C 249.930 259.600,250.345 259.434,250.200 259.200 C 250.064 258.980,249.614 258.800,249.200 258.800 C 248.786 258.800,248.336 258.980,248.200 259.200 M154.800 259.991 C 154.800 260.319,155.213 260.430,156.000 260.315 C 156.660 260.218,157.200 260.248,157.200 260.382 C 157.200 260.516,157.687 260.666,158.282 260.715 C 160.130 260.868,158.747 260.032,156.684 259.749 C 155.306 259.561,154.800 259.626,154.800 259.991 M244.600 260.000 C 244.453 260.238,244.929 260.400,245.776 260.400 C 246.559 260.400,247.200 260.220,247.200 260.000 C 247.200 259.780,246.671 259.600,246.024 259.600 C 245.377 259.600,244.736 259.780,244.600 260.000 M242.800 260.400 C 242.800 260.620,243.070 260.800,243.400 260.800 C 243.730 260.800,244.000 260.620,244.000 260.400 C 244.000 260.180,243.730 260.000,243.400 260.000 C 243.070 260.000,242.800 260.180,242.800 260.400 M161.200 260.800 C 161.200 261.020,161.470 261.200,161.800 261.200 C 162.130 261.200,162.400 261.020,162.400 260.800 C 162.400 260.580,162.130 260.400,161.800 260.400 C 161.470 260.400,161.200 260.580,161.200 260.800 M237.800 260.671 C 234.237 260.976,230.990 262.410,233.900 262.394 C 234.658 262.390,234.834 262.282,234.464 262.048 C 234.134 261.839,235.321 261.600,237.564 261.424 C 239.564 261.268,241.200 260.973,241.200 260.770 C 241.200 260.566,240.795 260.430,240.300 260.467 C 239.805 260.504,238.680 260.596,237.800 260.671 M163.600 261.200 C 163.600 261.420,164.455 261.597,165.500 261.594 C 166.874 261.589,167.234 261.480,166.800 261.200 C 166.009 260.689,163.600 260.689,163.600 261.200 M167.600 262.000 C 167.115 262.314,167.172 262.389,167.900 262.394 C 168.395 262.397,168.800 262.220,168.800 262.000 C 168.800 261.499,168.376 261.499,167.600 262.000 M169.200 262.342 C 169.200 262.529,171.495 262.806,174.300 262.956 C 177.105 263.105,181.110 263.336,183.200 263.467 C 185.290 263.599,186.910 263.612,186.800 263.496 C 186.541 263.224,181.816 262.733,178.071 262.588 C 176.459 262.526,175.034 262.368,174.904 262.237 C 174.530 261.863,169.200 261.961,169.200 262.342 M224.000 262.439 C 222.350 262.608,219.560 262.868,217.800 263.016 C 216.040 263.165,214.510 263.378,214.400 263.489 C 214.202 263.689,224.670 263.236,225.941 262.989 C 226.304 262.919,227.905 262.847,229.500 262.831 C 231.146 262.813,232.400 262.627,232.400 262.400 C 232.400 261.950,228.613 261.968,224.000 262.439 M187.200 264.000 C 186.806 264.255,191.245 264.390,200.124 264.394 C 209.039 264.398,213.563 264.264,213.400 264.000 C 213.071 263.468,188.023 263.468,187.200 264.000 " stroke="none" fill="#f4f4fc" fill-rule="evenodd"></path></g></svg>