<svg id="svg" version="1.1" xmlns="http://www.w3.org/2000/svg" xmlns:xlink="http://www.w3.org/1999/xlink" width="400" height="400" viewBox="0, 0, 400,400"><g id="svgg"><path id="path0" d="M195.000 12.728 C 194.340 13.089,193.440 13.587,193.000 13.835 C 192.560 14.084,192.059 14.306,191.886 14.329 C 191.713 14.353,191.293 14.650,190.953 14.989 C 190.614 15.329,190.142 15.488,189.906 15.342 C 189.651 15.185,189.593 15.264,189.762 15.538 C 189.931 15.812,189.793 16.000,189.424 16.000 C 189.081 16.000,188.800 16.136,188.800 16.302 C 188.800 16.665,186.340 17.821,185.870 17.679 C 185.689 17.625,185.655 17.765,185.794 17.990 C 185.933 18.216,185.767 18.400,185.424 18.400 C 185.081 18.400,184.800 18.536,184.800 18.702 C 184.800 19.017,182.847 19.990,182.270 19.963 C 182.088 19.954,181.617 20.319,181.223 20.774 C 180.829 21.228,180.212 21.600,179.853 21.600 C 179.494 21.600,179.200 21.735,179.200 21.901 C 179.200 22.066,178.390 22.631,177.400 23.156 C 176.410 23.681,175.600 24.266,175.600 24.456 C 175.600 24.645,175.313 24.800,174.963 24.800 C 174.613 24.800,173.872 25.158,173.316 25.595 C 172.761 26.032,172.147 26.291,171.953 26.171 C 171.759 26.051,171.600 26.143,171.600 26.376 C 171.600 26.609,171.370 26.800,171.089 26.800 C 170.808 26.800,170.259 27.172,169.869 27.628 C 169.479 28.083,168.629 28.641,167.980 28.867 C 167.331 29.093,166.800 29.441,166.800 29.639 C 166.800 29.838,166.440 30.000,166.000 30.000 C 165.560 30.000,165.200 30.159,165.200 30.353 C 165.200 30.548,164.885 30.825,164.500 30.970 C 163.311 31.417,160.977 32.798,161.400 32.805 C 161.620 32.808,160.810 33.298,159.600 33.895 C 158.390 34.491,157.340 35.118,157.267 35.289 C 157.193 35.460,156.878 35.600,156.567 35.600 C 156.255 35.600,156.000 35.736,156.000 35.902 C 156.000 36.246,153.733 37.324,153.420 37.128 C 153.308 37.058,152.932 37.405,152.585 37.900 C 152.238 38.395,151.695 38.800,151.377 38.800 C 151.060 38.800,150.800 38.980,150.800 39.200 C 150.800 39.420,150.429 39.600,149.976 39.600 C 149.523 39.600,149.264 39.780,149.400 40.000 C 149.536 40.220,149.277 40.400,148.824 40.400 C 148.371 40.400,148.000 40.580,148.000 40.800 C 148.000 41.020,147.629 41.200,147.176 41.200 C 146.723 41.200,146.455 41.365,146.580 41.567 C 146.705 41.770,146.265 42.054,145.603 42.199 C 144.942 42.345,144.400 42.629,144.400 42.832 C 144.400 43.034,144.106 43.200,143.747 43.200 C 143.388 43.200,142.800 43.515,142.441 43.900 C 141.686 44.710,140.893 45.218,138.400 46.485 C 137.410 46.988,136.540 47.535,136.467 47.700 C 136.393 47.865,135.978 48.000,135.543 48.000 C 135.108 48.000,134.864 48.180,135.000 48.400 C 135.136 48.620,134.866 48.800,134.400 48.800 C 133.934 48.800,133.645 48.950,133.758 49.132 C 133.871 49.315,133.342 49.709,132.582 50.007 C 131.822 50.305,131.200 50.652,131.200 50.777 C 131.200 50.902,130.615 51.259,129.900 51.570 C 129.185 51.881,128.508 52.271,128.396 52.436 C 128.284 52.601,127.924 52.795,127.596 52.868 C 127.268 52.941,126.730 53.271,126.400 53.603 C 126.070 53.934,125.260 54.474,124.600 54.803 C 123.940 55.131,122.987 55.805,122.482 56.300 C 121.977 56.795,121.392 57.200,121.182 57.200 C 120.972 57.200,120.800 57.430,120.800 57.712 C 120.800 57.993,120.440 58.483,120.000 58.800 C 119.051 59.484,118.965 60.000,119.800 60.000 C 120.130 60.000,120.400 60.159,120.400 60.353 C 120.400 60.548,120.715 60.810,121.100 60.936 C 121.485 61.062,122.610 61.649,123.600 62.242 C 124.590 62.834,126.390 63.865,127.600 64.533 C 128.810 65.200,131.758 66.884,134.152 68.273 C 136.545 69.663,138.588 70.800,138.690 70.800 C 138.793 70.800,139.354 71.133,139.938 71.539 C 140.522 71.945,141.990 72.819,143.200 73.480 C 144.410 74.141,146.075 75.069,146.900 75.541 C 149.581 77.076,151.175 77.986,152.547 78.763 C 153.287 79.183,155.106 80.263,156.588 81.163 C 158.069 82.063,159.332 82.800,159.394 82.800 C 159.492 82.800,170.678 89.137,174.300 91.244 C 175.015 91.660,176.230 92.360,177.000 92.800 C 177.770 93.240,179.030 93.960,179.800 94.400 C 180.570 94.840,181.830 95.560,182.600 96.000 C 183.370 96.440,184.675 97.185,185.500 97.657 C 186.325 98.128,187.810 98.963,188.800 99.513 C 189.790 100.063,192.091 101.387,193.912 102.456 C 195.734 103.525,197.326 104.400,197.451 104.400 C 197.575 104.400,198.199 104.772,198.838 105.227 L 200.000 106.054 200.000 59.027 L 200.000 12.000 198.100 12.037 C 197.055 12.057,195.660 12.368,195.000 12.728 M78.200 106.521 C 77.760 106.785,77.268 107.180,77.106 107.400 C 76.944 107.620,76.809 107.644,76.806 107.454 C 76.792 106.672,73.200 109.520,73.200 110.313 C 73.200 110.607,73.039 110.748,72.843 110.627 C 72.647 110.505,72.251 111.203,71.963 112.177 C 71.676 113.152,71.296 113.860,71.120 113.751 C 70.944 113.642,70.800 133.916,70.800 158.805 C 70.800 206.576,70.850 205.200,69.117 205.200 C 68.820 205.200,68.317 205.560,68.000 206.000 C 67.683 206.440,67.180 206.800,66.883 206.800 C 66.586 206.800,66.071 207.072,65.739 207.404 C 65.407 207.736,64.970 207.905,64.768 207.780 C 64.565 207.655,64.400 207.731,64.400 207.949 C 64.400 208.168,64.009 208.470,63.531 208.622 C 63.053 208.774,62.299 209.236,61.855 209.649 C 61.412 210.062,60.723 210.400,60.325 210.400 C 59.926 210.400,59.600 210.551,59.600 210.736 C 59.600 211.255,55.761 213.224,55.395 212.893 C 55.217 212.732,55.201 212.825,55.359 213.100 C 55.527 213.391,55.428 213.604,55.124 213.609 C 54.836 213.614,54.150 213.970,53.600 214.400 C 53.050 214.830,52.325 215.186,51.988 215.191 C 51.652 215.196,51.117 215.560,50.800 216.000 C 50.483 216.440,49.903 216.800,49.512 216.800 C 49.120 216.800,48.800 216.980,48.800 217.200 C 48.800 217.420,48.429 217.600,47.976 217.600 C 47.523 217.600,47.246 217.751,47.360 217.935 C 47.473 218.119,46.899 218.631,46.083 219.073 C 43.198 220.637,41.398 221.696,41.200 221.946 C 41.025 222.168,40.190 222.645,36.600 224.571 C 36.160 224.807,35.690 225.150,35.555 225.334 C 35.421 225.518,35.151 225.655,34.955 225.639 C 34.263 225.582,33.200 226.059,33.200 226.427 C 33.200 226.632,32.922 226.800,32.583 226.800 C 32.243 226.800,31.478 227.259,30.883 227.821 C 30.287 228.382,29.308 228.944,28.706 229.069 C 28.105 229.195,27.690 229.423,27.785 229.576 C 27.880 229.729,27.332 230.081,26.567 230.358 C 25.802 230.634,24.747 231.290,24.222 231.814 C 23.698 232.338,22.803 232.884,22.234 233.027 C 21.666 233.170,21.200 233.447,21.200 233.643 C 21.200 233.840,20.930 234.000,20.600 234.000 C 20.270 234.000,20.000 234.180,20.000 234.400 C 20.000 234.620,19.640 234.800,19.200 234.800 C 18.760 234.800,18.400 234.959,18.400 235.153 C 18.400 235.348,18.085 235.616,17.700 235.749 C 17.315 235.882,16.460 236.351,15.800 236.791 C 15.140 237.231,14.330 237.710,14.000 237.855 C 13.670 238.000,12.966 238.497,12.435 238.960 C 11.905 239.422,11.609 239.562,11.777 239.270 C 12.031 238.832,11.939 238.831,11.242 239.267 C 10.779 239.556,10.400 239.929,10.400 240.096 C 10.400 240.263,10.158 240.400,9.862 240.400 C 9.566 240.400,9.007 240.750,8.621 241.177 C 8.234 241.605,7.401 242.068,6.769 242.207 C 5.527 242.480,0.653 247.008,1.260 247.326 C 1.337 247.367,1.836 247.646,2.368 247.946 C 2.901 248.247,4.161 248.948,5.168 249.504 C 6.176 250.060,8.980 251.632,11.400 252.996 C 13.820 254.360,16.610 255.928,17.600 256.481 C 18.590 257.034,20.075 257.872,20.900 258.343 C 21.725 258.815,23.075 259.585,23.900 260.057 C 24.725 260.528,26.210 261.367,27.200 261.921 C 28.190 262.476,33.500 265.484,39.000 268.606 C 44.500 271.728,49.810 274.733,50.800 275.284 C 52.469 276.214,53.169 276.611,57.000 278.800 C 60.830 280.989,61.531 281.386,63.200 282.316 C 64.190 282.867,66.260 284.034,67.800 284.909 C 69.340 285.784,71.410 286.953,72.400 287.507 C 77.269 290.232,81.836 292.898,82.147 293.199 C 82.338 293.383,83.103 293.189,83.847 292.767 C 84.591 292.345,85.875 291.621,86.700 291.157 C 87.525 290.694,88.380 290.180,88.600 290.015 C 88.820 289.850,89.990 289.175,91.200 288.515 C 92.410 287.856,95.560 286.057,98.200 284.519 C 100.840 282.981,103.810 281.270,104.800 280.718 C 105.790 280.165,107.320 279.300,108.200 278.795 C 109.080 278.290,110.520 277.500,111.400 277.038 C 112.280 276.577,113.090 276.110,113.200 276.000 C 113.310 275.890,113.830 275.558,114.355 275.262 C 115.825 274.435,117.856 273.282,119.400 272.400 C 120.170 271.960,121.430 271.240,122.200 270.800 C 122.970 270.360,124.185 269.662,124.900 269.250 C 126.908 268.091,131.602 265.429,133.600 264.316 C 135.266 263.388,136.205 262.855,139.700 260.857 C 140.415 260.448,141.810 259.630,142.800 259.039 C 143.790 258.448,144.915 257.862,145.300 257.736 C 145.685 257.610,146.000 257.348,146.000 257.153 C 146.000 256.959,146.166 256.800,146.368 256.800 C 146.571 256.800,148.326 255.876,150.268 254.746 C 152.211 253.616,154.790 252.152,156.000 251.493 C 157.856 250.482,163.107 247.336,163.531 246.981 C 163.603 246.921,162.838 246.071,161.831 245.092 C 160.824 244.114,160.000 243.377,160.000 243.456 C 160.000 243.535,159.640 243.240,159.200 242.800 C 158.760 242.360,158.130 242.000,157.800 242.000 C 157.470 242.000,157.200 241.820,157.200 241.600 C 157.200 241.380,156.840 241.200,156.400 241.200 C 155.960 241.200,155.600 241.064,155.600 240.898 C 155.600 240.731,155.059 240.356,154.398 240.063 C 153.736 239.770,153.297 239.366,153.421 239.165 C 153.546 238.964,153.364 238.800,153.018 238.800 C 152.443 238.800,150.884 238.085,150.400 237.599 C 150.290 237.489,149.705 237.144,149.100 236.832 C 148.495 236.520,148.000 236.115,148.000 235.932 C 148.000 235.750,147.640 235.600,147.200 235.600 C 146.760 235.600,146.399 235.465,146.397 235.300 C 146.395 235.135,145.990 234.799,145.497 234.552 C 142.727 233.170,141.920 232.657,141.728 232.156 C 141.610 231.850,141.352 231.600,141.153 231.600 C 140.202 231.600,137.230 229.872,137.467 229.457 C 137.611 229.206,137.582 229.133,137.403 229.295 C 137.082 229.585,134.706 228.323,133.668 227.311 C 133.375 227.026,132.969 226.896,132.765 227.022 C 132.561 227.148,132.287 226.970,132.155 226.628 C 132.024 226.285,131.782 226.087,131.619 226.188 C 131.455 226.290,130.941 226.019,130.477 225.586 C 130.013 225.154,129.482 224.800,129.296 224.800 C 128.703 224.800,126.806 223.811,126.803 223.500 C 126.801 223.335,126.519 223.200,126.176 223.200 C 125.807 223.200,125.669 223.012,125.838 222.738 C 126.007 222.464,125.949 222.385,125.694 222.542 C 125.458 222.688,124.993 222.536,124.661 222.204 C 124.329 221.872,123.764 221.600,123.405 221.600 C 123.046 221.600,122.864 221.420,123.000 221.200 C 123.136 220.980,122.911 220.800,122.499 220.800 C 122.088 220.800,121.402 220.479,120.975 220.087 C 120.549 219.695,119.514 219.051,118.676 218.657 C 117.838 218.262,117.053 217.683,116.933 217.370 C 116.813 217.056,116.374 216.800,115.957 216.800 C 115.541 216.800,115.200 216.620,115.200 216.400 C 115.200 216.180,114.855 216.000,114.433 216.000 C 114.012 216.000,113.607 215.854,113.533 215.676 C 113.460 215.498,112.365 214.765,111.100 214.047 C 109.835 213.329,108.800 212.564,108.800 212.347 C 108.800 212.130,108.640 212.051,108.445 212.172 C 108.250 212.293,107.868 212.123,107.596 211.796 C 107.324 211.468,106.764 211.200,106.351 211.200 C 105.938 211.200,105.600 211.015,105.600 210.790 C 105.600 210.564,104.250 209.730,102.600 208.936 C 100.950 208.141,99.600 207.336,99.600 207.146 C 99.600 206.956,99.322 206.800,98.983 206.800 C 98.644 206.800,98.149 206.609,97.883 206.376 C 97.617 206.143,96.815 205.606,96.100 205.182 L 94.800 204.412 94.800 167.212 L 94.800 130.012 106.300 129.906 L 117.800 129.800 117.800 118.000 L 117.800 106.200 98.400 106.121 C 83.933 106.063,78.797 106.164,78.200 106.521 " stroke="none" fill="#b2c5f5" fill-rule="evenodd"></path><path id="path1" d="M118.400 60.976 C 118.400 61.513,118.220 62.064,118.000 62.200 C 117.741 62.360,117.600 70.130,117.600 84.200 C 117.600 98.270,117.741 106.040,118.000 106.200 C 118.252 106.356,118.400 110.730,118.400 118.000 C 118.400 125.270,118.252 129.644,118.000 129.800 C 117.750 129.954,117.600 133.871,117.600 140.224 C 117.600 146.741,117.744 150.400,118.000 150.400 C 118.220 150.400,118.400 150.660,118.400 150.977 C 118.400 152.487,122.144 157.200,123.344 157.200 C 123.658 157.200,124.019 157.472,124.146 157.804 C 124.273 158.136,124.518 158.368,124.689 158.320 C 125.125 158.197,128.000 159.630,128.000 159.971 C 128.000 160.125,128.630 160.498,129.400 160.800 C 130.170 161.102,130.800 161.475,130.800 161.628 C 130.800 161.781,131.115 162.007,131.500 162.129 C 132.185 162.346,134.404 163.604,134.800 164.000 C 134.910 164.110,135.405 164.425,135.900 164.700 C 136.395 164.975,137.205 165.425,137.700 165.700 C 138.195 165.975,138.690 166.290,138.800 166.400 C 138.994 166.594,140.159 167.284,141.800 168.177 C 142.240 168.417,143.590 169.243,144.800 170.012 C 146.010 170.782,147.715 171.769,148.589 172.206 C 150.276 173.049,150.457 173.167,151.961 174.407 C 152.490 174.843,153.255 175.200,153.661 175.200 C 154.068 175.200,154.400 175.380,154.400 175.600 C 154.400 175.820,154.720 176.000,155.112 176.000 C 155.503 176.000,156.083 176.360,156.400 176.800 C 156.717 177.240,157.297 177.600,157.688 177.600 C 158.080 177.600,158.400 177.780,158.400 178.000 C 158.400 178.220,158.760 178.400,159.200 178.400 C 159.640 178.400,160.000 178.580,160.000 178.800 C 160.000 179.020,160.236 179.200,160.525 179.200 C 160.813 179.200,161.398 179.515,161.825 179.900 C 162.251 180.285,163.140 180.870,163.800 181.199 C 164.460 181.529,165.090 181.896,165.200 182.015 C 165.443 182.277,171.767 185.993,173.293 186.771 C 173.895 187.077,174.742 187.659,175.177 188.064 C 175.611 188.469,176.222 188.800,176.534 188.800 C 176.847 188.800,177.326 189.070,177.600 189.400 C 177.874 189.730,178.337 190.000,178.629 190.000 C 178.921 190.000,179.304 190.257,179.480 190.572 C 179.656 190.886,179.890 191.130,180.000 191.113 C 180.606 191.021,182.287 191.815,182.847 192.457 C 183.203 192.866,183.788 193.200,184.147 193.200 C 184.506 193.200,184.800 193.380,184.800 193.600 C 184.800 193.820,185.070 194.000,185.400 194.000 C 185.730 194.000,186.000 194.136,186.000 194.302 C 186.000 194.469,186.585 194.863,187.300 195.178 C 188.015 195.493,189.663 196.437,190.962 197.276 C 192.261 198.114,193.566 198.800,193.862 198.800 C 194.158 198.800,194.400 198.980,194.400 199.200 C 194.400 199.420,194.670 199.600,195.000 199.600 C 195.330 199.600,195.600 199.780,195.600 200.000 C 195.600 200.220,196.590 200.400,197.800 200.400 L 200.000 200.400 200.003 153.500 L 200.006 106.600 201.003 106.100 C 201.551 105.825,202.449 105.375,202.997 105.100 C 203.545 104.825,203.995 104.448,203.997 104.262 C 203.999 104.076,203.028 104.472,201.840 105.143 C 199.755 106.319,197.616 106.297,197.603 105.100 C 197.601 104.935,197.446 104.800,197.257 104.800 C 197.069 104.800,193.874 103.068,190.157 100.951 C 186.441 98.833,182.410 96.557,181.200 95.893 C 179.990 95.228,178.820 94.550,178.600 94.385 C 178.380 94.220,177.525 93.706,176.700 93.243 C 175.875 92.779,174.570 92.040,173.800 91.600 C 173.030 91.160,171.725 90.415,170.900 89.943 C 170.075 89.472,168.590 88.636,167.600 88.086 C 163.607 85.864,159.251 83.374,156.600 81.798 C 155.060 80.882,152.810 79.589,151.600 78.925 C 150.390 78.261,148.725 77.331,147.900 76.859 C 144.699 75.026,143.547 74.370,142.100 73.557 C 141.275 73.094,140.416 72.566,140.191 72.384 C 139.966 72.202,138.796 71.524,137.591 70.878 C 136.386 70.231,132.970 68.306,130.000 66.600 C 127.030 64.894,123.430 62.860,122.000 62.080 C 120.570 61.300,119.340 60.513,119.267 60.331 C 118.980 59.619,118.400 60.052,118.400 60.976 M279.500 60.676 C 279.115 60.776,278.800 60.982,278.800 61.132 C 278.800 61.282,278.215 61.658,277.500 61.968 C 276.785 62.277,275.448 63.041,274.528 63.665 C 273.608 64.289,272.761 64.800,272.646 64.800 C 272.530 64.800,271.482 65.365,270.318 66.056 C 267.822 67.536,266.631 68.213,263.400 69.988 C 262.080 70.713,260.820 71.438,260.600 71.599 C 260.380 71.761,259.390 72.341,258.400 72.890 C 257.410 73.438,255.790 74.370,254.800 74.961 C 253.810 75.552,252.685 76.138,252.300 76.264 C 251.915 76.390,251.600 76.652,251.600 76.847 C 251.600 77.041,251.240 77.200,250.800 77.200 C 250.360 77.200,250.000 77.359,250.000 77.553 C 250.000 77.748,249.685 78.007,249.300 78.129 C 248.615 78.346,246.396 79.604,246.000 80.000 C 245.890 80.110,245.080 80.577,244.200 81.038 C 243.320 81.500,241.925 82.265,241.100 82.738 C 240.275 83.212,238.925 83.981,238.100 84.446 C 234.331 86.570,233.178 87.311,233.359 87.492 C 233.466 87.600,234.087 87.308,234.739 86.844 C 235.390 86.380,236.017 86.000,236.130 86.000 C 236.244 86.000,237.926 85.081,239.868 83.959 C 241.811 82.836,244.120 81.511,245.000 81.015 C 246.491 80.175,247.396 79.660,251.000 77.600 C 252.544 76.718,254.575 75.565,256.045 74.738 C 256.570 74.442,257.090 74.110,257.200 73.999 C 257.310 73.889,257.940 73.535,258.600 73.214 C 259.260 72.892,260.250 72.335,260.800 71.976 C 261.350 71.617,262.970 70.687,264.400 69.909 C 265.830 69.131,268.601 67.574,270.557 66.447 C 272.514 65.321,274.161 64.400,274.217 64.400 C 274.272 64.400,275.503 63.680,276.952 62.800 C 278.400 61.920,279.758 61.200,279.969 61.200 C 280.180 61.200,280.464 61.020,280.600 60.800 C 280.856 60.385,280.685 60.366,279.500 60.676 M230.042 89.025 C 228.635 89.797,227.015 90.743,226.442 91.128 C 225.869 91.514,224.860 92.092,224.200 92.414 C 223.540 92.735,222.910 93.089,222.800 93.199 C 222.549 93.451,221.073 94.294,219.000 95.370 C 218.120 95.826,217.310 96.294,217.200 96.410 C 217.090 96.525,216.144 97.065,215.098 97.610 C 212.703 98.857,210.600 100.439,212.699 99.415 C 213.413 99.066,214.943 98.220,216.099 97.535 C 218.448 96.141,220.232 95.133,222.600 93.860 C 223.480 93.387,224.290 92.910,224.400 92.799 C 224.510 92.689,225.140 92.335,225.800 92.012 C 226.460 91.689,227.720 90.953,228.600 90.377 C 229.480 89.801,230.785 89.077,231.500 88.768 C 232.215 88.458,232.800 88.069,232.800 87.902 C 232.800 87.494,232.925 87.444,230.042 89.025 M206.872 102.245 C 205.482 103.033,204.425 103.758,204.524 103.857 C 204.622 103.956,205.633 103.488,206.769 102.818 C 207.905 102.148,209.007 101.600,209.218 101.600 C 209.428 101.600,209.600 101.420,209.600 101.200 C 209.600 100.671,209.751 100.613,206.872 102.245 M0.394 248.500 C -0.250 251.778,0.235 339.492,0.900 340.157 C 1.285 340.542,1.603 340.979,1.606 341.129 C 1.628 342.028,5.147 344.915,6.900 345.471 C 7.285 345.593,7.600 345.852,7.600 346.047 C 7.600 346.241,7.960 346.400,8.400 346.400 C 8.840 346.400,9.200 346.550,9.200 346.732 C 9.200 346.915,9.695 347.320,10.300 347.632 C 10.905 347.945,12.808 349.055,14.529 350.100 C 16.251 351.145,17.766 352.000,17.898 352.000 C 18.029 352.000,18.421 352.249,18.769 352.553 C 19.116 352.857,20.480 353.676,21.800 354.373 C 24.434 355.765,25.694 356.493,26.000 356.801 C 26.110 356.911,26.740 357.271,27.400 357.600 C 28.060 357.929,28.690 358.291,28.800 358.405 C 28.910 358.518,29.847 359.038,30.882 359.559 C 31.918 360.081,33.125 360.843,33.566 361.254 C 34.006 361.664,34.644 362.000,34.983 362.000 C 35.322 362.000,35.600 362.165,35.600 362.367 C 35.600 362.569,36.500 363.142,37.600 363.639 C 38.700 364.136,39.600 364.691,39.600 364.871 C 39.600 365.052,39.878 365.200,40.217 365.200 C 40.556 365.200,41.220 365.560,41.692 366.000 C 42.164 366.440,42.787 366.800,43.075 366.800 C 43.364 366.800,43.600 366.980,43.600 367.200 C 43.600 367.420,43.777 367.600,43.993 367.600 C 44.209 367.600,45.562 368.320,47.000 369.200 C 48.438 370.080,49.791 370.800,50.007 370.800 C 50.223 370.800,50.400 370.980,50.400 371.200 C 50.400 371.420,50.575 371.600,50.788 371.600 C 51.002 371.600,52.547 372.410,54.222 373.400 C 55.896 374.390,57.439 375.200,57.650 375.200 C 57.861 375.200,58.420 375.560,58.892 376.000 C 59.364 376.440,59.987 376.800,60.275 376.800 C 60.564 376.800,60.800 376.980,60.800 377.200 C 60.800 377.420,61.160 377.600,61.600 377.600 C 62.040 377.600,62.400 377.780,62.400 378.000 C 62.400 378.220,62.670 378.400,63.000 378.400 C 63.330 378.400,63.600 378.559,63.600 378.753 C 63.600 378.948,63.915 379.207,64.300 379.329 C 64.987 379.546,67.206 380.805,67.600 381.201 C 67.710 381.311,68.295 381.656,68.900 381.968 C 69.505 382.280,70.000 382.685,70.000 382.868 C 70.000 383.050,70.283 383.200,70.628 383.200 C 70.973 383.200,72.008 383.701,72.928 384.312 C 73.848 384.924,75.140 385.689,75.800 386.012 C 76.460 386.335,77.090 386.690,77.200 386.801 C 77.647 387.255,80.338 388.000,81.528 388.000 L 82.800 388.000 82.800 341.144 C 82.800 297.002,82.841 294.255,83.500 293.722 C 84.128 293.214,84.105 293.202,83.274 293.606 C 82.675 293.897,82.182 293.920,81.874 293.670 C 81.613 293.459,80.725 292.906,79.900 292.443 C 79.075 291.979,77.770 291.240,77.000 290.800 C 73.196 288.626,72.470 288.214,70.800 287.282 C 69.810 286.729,66.390 284.802,63.200 283.000 C 60.010 281.198,56.590 279.271,55.600 278.718 C 54.610 278.166,53.125 277.328,52.300 276.857 C 50.637 275.907,48.611 274.758,47.155 273.938 C 46.630 273.642,46.110 273.310,46.000 273.199 C 45.890 273.089,45.260 272.734,44.600 272.410 C 43.940 272.086,42.257 271.141,40.859 270.310 C 39.462 269.480,38.256 268.800,38.180 268.800 C 38.104 268.800,34.928 267.028,31.121 264.863 C 27.314 262.698,23.390 260.473,22.400 259.920 C 20.678 258.957,19.412 258.238,16.100 256.341 C 15.275 255.869,13.673 254.969,12.539 254.342 C 11.405 253.714,8.271 251.941,5.573 250.400 C -0.180 247.116,0.608 247.406,0.394 248.500 M161.911 248.560 C 159.667 249.894,159.561 250.195,161.700 249.160 C 162.745 248.654,163.600 248.096,163.600 247.920 C 163.600 247.531,163.719 247.486,161.911 248.560 M235.758 248.300 C 235.639 248.685,235.375 249.313,235.171 249.695 C 234.646 250.677,234.675 337.476,235.200 337.800 C 235.420 337.936,235.600 338.487,235.600 339.024 C 235.600 339.561,235.768 340.000,235.973 340.000 C 236.178 340.000,236.450 340.315,236.577 340.700 C 236.893 341.660,239.003 344.000,239.553 344.000 C 239.799 344.000,240.000 344.159,240.000 344.353 C 240.000 344.548,240.315 344.807,240.700 344.929 C 241.447 345.166,243.667 346.446,244.000 346.832 C 244.110 346.960,244.772 347.313,245.471 347.617 C 246.170 347.921,246.655 348.312,246.548 348.485 C 246.440 348.658,246.723 348.800,247.176 348.800 C 247.629 348.800,248.000 348.980,248.000 349.200 C 248.000 349.420,248.255 349.600,248.567 349.600 C 248.878 349.600,249.193 349.735,249.267 349.900 C 249.340 350.065,250.300 350.650,251.400 351.200 C 252.500 351.750,254.390 352.847,255.600 353.639 C 257.812 355.085,260.433 356.605,263.400 358.161 C 264.279 358.622,265.348 359.315,265.775 359.700 C 266.202 360.085,266.787 360.400,267.075 360.400 C 267.364 360.400,267.600 360.580,267.600 360.800 C 267.600 361.020,267.960 361.200,268.400 361.200 C 268.840 361.200,269.200 361.335,269.200 361.501 C 269.200 361.666,270.055 362.247,271.100 362.791 C 272.145 363.335,273.099 363.917,273.220 364.084 C 273.341 364.251,274.282 364.814,275.312 365.335 C 276.341 365.856,277.067 366.399,276.925 366.541 C 276.783 366.684,276.979 366.800,277.361 366.800 C 277.743 366.800,278.841 367.340,279.800 368.000 C 280.759 368.660,281.630 369.200,281.734 369.200 C 281.839 369.200,283.238 370.010,284.844 371.000 C 286.449 371.990,287.996 372.800,288.282 372.800 C 288.567 372.800,288.800 372.968,288.800 373.173 C 288.800 373.378,289.159 373.660,289.598 373.799 C 290.036 373.938,290.621 374.266,290.898 374.526 C 291.355 374.958,293.624 376.244,295.897 377.360 C 296.390 377.602,296.795 377.935,296.797 378.100 C 296.799 378.265,297.070 378.400,297.400 378.400 C 297.730 378.400,298.000 378.580,298.000 378.800 C 298.000 379.020,298.360 379.200,298.800 379.200 C 299.240 379.200,299.600 379.350,299.600 379.532 C 299.600 379.715,300.095 380.120,300.700 380.432 C 301.305 380.744,301.890 381.089,302.000 381.199 C 302.110 381.310,303.010 381.835,304.000 382.367 C 304.990 382.898,306.520 383.819,307.400 384.414 C 310.405 386.443,313.277 387.725,315.239 387.913 L 317.200 388.102 317.200 341.090 L 317.200 294.079 318.700 293.185 C 321.143 291.729,322.878 290.742,325.000 289.600 C 326.100 289.008,327.675 288.136,328.500 287.662 C 331.202 286.109,332.777 285.213,334.300 284.360 C 337.489 282.576,343.107 279.391,345.400 278.069 C 346.720 277.308,348.790 276.145,350.000 275.485 C 351.210 274.825,352.380 274.150,352.600 273.984 C 352.820 273.819,353.855 273.215,354.900 272.642 C 357.374 271.285,359.809 269.933,361.800 268.811 C 364.709 267.172,372.576 262.712,374.000 261.895 C 374.770 261.453,375.985 260.756,376.700 260.346 C 377.415 259.936,378.675 259.212,379.500 258.738 C 380.325 258.264,381.900 257.390,383.000 256.795 C 384.100 256.201,386.573 254.798,388.496 253.678 C 390.418 252.558,393.388 250.889,395.096 249.969 C 398.411 248.182,399.249 247.600,398.507 247.600 C 398.257 247.600,397.186 248.117,396.127 248.750 C 392.290 251.039,386.350 254.400,386.139 254.400 C 386.021 254.400,385.446 254.733,384.862 255.139 C 384.278 255.545,382.810 256.419,381.600 257.080 C 380.390 257.741,378.725 258.669,377.900 259.141 C 374.417 261.135,373.306 261.766,371.600 262.712 C 367.447 265.018,366.339 265.642,361.000 268.684 C 357.920 270.439,354.590 272.327,353.600 272.881 C 351.879 273.843,350.622 274.557,347.300 276.459 C 346.475 276.931,344.810 277.859,343.600 278.520 C 342.390 279.181,340.922 280.055,340.338 280.461 C 339.754 280.867,339.194 281.200,339.094 281.200 C 338.993 281.200,335.781 282.972,331.955 285.138 C 328.130 287.304,324.190 289.529,323.200 290.082 C 320.128 291.797,318.540 292.706,317.730 293.211 C 317.049 293.637,315.919 293.105,308.775 289.000 C 304.279 286.416,299.790 283.849,298.800 283.295 C 297.810 282.741,292.860 279.909,287.800 277.002 C 282.740 274.095,277.790 271.266,276.800 270.715 C 275.810 270.164,274.370 269.348,273.600 268.901 C 269.470 266.504,241.474 250.530,239.600 249.501 C 238.390 248.836,237.229 248.137,237.020 247.946 C 236.432 247.411,235.996 247.533,235.758 248.300 M156.857 251.417 C 155.678 252.152,154.598 252.886,154.457 253.047 C 154.127 253.424,158.875 250.829,159.380 250.356 C 160.192 249.595,158.925 250.128,156.857 251.417 M149.900 255.429 C 149.295 255.757,148.800 256.110,148.800 256.213 C 148.800 256.599,149.432 256.357,150.400 255.600 C 151.589 254.670,151.411 254.609,149.900 255.429 M147.100 257.029 C 146.495 257.357,146.000 257.710,146.000 257.813 C 146.000 258.199,146.632 257.957,147.600 257.200 C 148.789 256.270,148.611 256.209,147.100 257.029 M138.000 262.228 C 135.470 263.671,133.220 265.042,133.000 265.275 C 132.578 265.722,134.783 264.553,138.318 262.456 C 139.482 261.765,140.562 261.196,140.718 261.191 C 141.045 261.181,143.100 259.621,142.800 259.611 C 142.690 259.607,140.530 260.785,138.000 262.228 M129.725 266.931 C 126.985 268.606,126.452 269.253,129.000 267.809 C 131.557 266.360,132.682 265.592,132.189 265.631 C 131.975 265.647,130.866 266.232,129.725 266.931 M121.100 271.829 C 120.495 272.157,120.000 272.510,120.000 272.613 C 120.000 272.999,120.632 272.757,121.600 272.000 C 122.789 271.070,122.611 271.009,121.100 271.829 M118.300 273.429 C 117.695 273.757,117.200 274.110,117.200 274.213 C 117.200 274.599,117.832 274.357,118.800 273.600 C 119.989 272.670,119.811 272.609,118.300 273.429 M115.500 275.029 C 114.895 275.357,114.400 275.710,114.400 275.813 C 114.400 276.199,115.032 275.957,116.000 275.200 C 117.189 274.270,117.011 274.209,115.500 275.029 M112.600 276.800 C 111.940 277.237,111.580 277.592,111.800 277.588 C 112.201 277.582,114.376 276.023,114.000 276.012 C 113.890 276.008,113.260 276.363,112.600 276.800 M109.800 278.400 C 109.140 278.837,108.780 279.192,109.000 279.188 C 109.401 279.182,111.576 277.623,111.200 277.612 C 111.090 277.608,110.460 277.963,109.800 278.400 M106.000 280.542 C 104.790 281.264,102.720 282.442,101.400 283.160 C 100.080 283.878,98.820 284.660,98.600 284.898 C 98.380 285.136,99.280 284.738,100.600 284.015 C 104.741 281.745,108.400 279.572,108.400 279.382 C 108.400 279.113,108.383 279.121,106.000 280.542 M95.504 286.542 C 92.400 288.323,91.996 288.871,95.000 287.226 C 97.187 286.029,98.441 285.181,97.980 285.212 C 97.881 285.219,96.767 285.817,95.504 286.542 M89.672 289.845 C 88.282 290.633,87.237 291.370,87.349 291.482 C 87.462 291.595,88.087 291.308,88.739 290.844 C 89.390 290.380,90.076 289.996,90.262 289.991 C 90.621 289.982,92.740 288.420,92.400 288.415 C 92.290 288.414,91.062 289.057,89.672 289.845 M85.500 292.229 C 84.895 292.557,84.400 292.910,84.400 293.013 C 84.400 293.399,85.032 293.157,86.000 292.400 C 87.189 291.470,87.011 291.409,85.500 292.229 " stroke="none" fill="#7b84ec" fill-rule="evenodd"></path><path id="path2" d="M200.000 59.027 L 200.000 106.054 198.838 105.227 C 198.199 104.772,197.575 104.400,197.451 104.400 C 197.326 104.400,195.734 103.525,193.912 102.456 C 192.091 101.387,189.790 100.063,188.800 99.513 C 187.810 98.963,186.325 98.128,185.500 97.657 C 184.675 97.185,183.370 96.440,182.600 96.000 C 181.830 95.560,180.570 94.840,179.800 94.400 C 179.030 93.960,177.770 93.240,177.000 92.800 C 176.230 92.360,175.015 91.660,174.300 91.244 C 170.678 89.137,159.492 82.800,159.394 82.800 C 159.332 82.800,158.069 82.063,156.588 81.163 C 155.106 80.263,153.287 79.183,152.547 78.763 C 151.175 77.986,149.581 77.076,146.900 75.541 C 146.075 75.069,144.410 74.141,143.200 73.480 C 141.990 72.819,140.522 71.945,139.938 71.539 C 139.354 71.133,138.793 70.800,138.690 70.800 C 138.588 70.800,136.545 69.663,134.152 68.273 C 131.758 66.884,128.810 65.200,127.600 64.533 C 126.390 63.865,124.590 62.834,123.600 62.242 C 122.610 61.649,121.485 61.062,121.100 60.936 C 120.715 60.810,120.400 60.548,120.400 60.353 C 120.400 60.159,120.130 60.000,119.800 60.000 C 118.610 60.000,119.254 60.626,121.903 62.044 C 123.386 62.838,127.030 64.886,130.000 66.595 C 132.970 68.304,136.386 70.231,137.591 70.878 C 138.796 71.524,139.966 72.202,140.191 72.384 C 140.416 72.566,141.275 73.094,142.100 73.557 C 143.547 74.370,144.699 75.026,147.900 76.859 C 148.725 77.331,150.390 78.261,151.600 78.925 C 152.810 79.589,155.060 80.882,156.600 81.798 C 159.251 83.374,163.607 85.864,167.600 88.086 C 168.590 88.636,170.075 89.472,170.900 89.943 C 171.725 90.415,173.030 91.160,173.800 91.600 C 174.570 92.040,175.875 92.779,176.700 93.243 C 177.525 93.706,178.380 94.220,178.600 94.385 C 178.820 94.550,179.990 95.228,181.200 95.893 C 182.410 96.557,186.441 98.833,190.157 100.951 C 193.874 103.068,197.069 104.800,197.257 104.800 C 197.446 104.800,197.601 104.935,197.603 105.100 C 197.621 106.860,199.772 106.322,205.277 103.184 C 208.348 101.433,210.919 100.000,210.990 100.000 C 211.060 100.000,212.303 99.280,213.752 98.400 C 215.200 97.520,216.569 96.800,216.793 96.800 C 217.017 96.800,217.200 96.662,217.200 96.494 C 217.200 96.326,217.875 95.882,218.700 95.506 C 220.212 94.819,222.430 93.571,222.800 93.199 C 222.910 93.089,223.540 92.735,224.200 92.412 C 224.860 92.089,226.152 91.324,227.072 90.712 C 227.992 90.101,228.840 89.600,228.958 89.600 C 229.075 89.600,230.933 88.582,233.086 87.339 C 235.239 86.095,237.585 84.745,238.300 84.339 C 239.015 83.932,240.275 83.212,241.100 82.738 C 241.925 82.265,243.320 81.500,244.200 81.038 C 245.080 80.577,245.890 80.110,246.000 80.000 C 246.396 79.604,248.615 78.346,249.300 78.129 C 249.685 78.007,250.000 77.748,250.000 77.553 C 250.000 77.359,250.360 77.200,250.800 77.200 C 251.240 77.200,251.600 77.041,251.600 76.847 C 251.600 76.652,251.915 76.390,252.300 76.264 C 252.685 76.138,253.810 75.552,254.800 74.961 C 255.790 74.370,257.410 73.438,258.400 72.890 C 259.390 72.341,260.380 71.761,260.600 71.599 C 260.820 71.438,262.080 70.713,263.400 69.988 C 266.631 68.213,267.822 67.536,270.318 66.056 C 271.482 65.365,272.530 64.800,272.646 64.800 C 272.761 64.800,273.608 64.289,274.528 63.665 C 275.448 63.041,276.785 62.277,277.500 61.968 C 278.215 61.658,278.800 61.288,278.800 61.146 C 278.800 61.003,279.250 60.774,279.800 60.636 C 280.350 60.498,280.800 60.173,280.800 59.915 C 280.800 59.316,276.571 55.200,275.955 55.200 C 275.702 55.200,275.203 54.875,274.847 54.478 C 274.491 54.081,273.615 53.519,272.900 53.229 C 272.185 52.940,271.600 52.573,271.600 52.414 C 271.600 52.256,270.745 51.695,269.700 51.168 C 268.655 50.642,267.690 50.058,267.555 49.871 C 267.421 49.684,267.210 49.592,267.087 49.666 C 266.965 49.740,266.398 49.395,265.829 48.900 C 265.260 48.405,264.536 48.000,264.221 48.000 C 263.905 48.000,263.534 47.817,263.396 47.594 C 263.259 47.371,262.393 46.807,261.473 46.341 C 260.553 45.874,259.710 45.371,259.600 45.223 C 259.372 44.915,256.172 43.072,253.827 41.898 C 252.961 41.465,252.003 40.861,251.698 40.555 C 251.393 40.250,250.989 40.000,250.800 40.000 C 250.611 40.000,250.174 39.717,249.829 39.371 C 249.474 39.017,249.200 38.938,249.200 39.190 C 249.200 39.435,248.756 39.192,248.213 38.649 C 247.670 38.106,246.860 37.546,246.413 37.404 C 245.966 37.262,245.600 36.978,245.600 36.773 C 245.600 36.568,245.240 36.400,244.800 36.400 C 244.360 36.400,244.000 36.220,244.000 36.000 C 244.000 35.780,243.680 35.600,243.288 35.600 C 242.897 35.600,242.317 35.240,242.000 34.800 C 241.683 34.360,241.103 34.000,240.712 34.000 C 240.320 34.000,240.000 33.820,240.000 33.600 C 240.000 33.380,239.730 33.200,239.400 33.200 C 239.070 33.200,238.800 33.048,238.800 32.863 C 238.800 32.677,237.945 32.094,236.900 31.565 C 235.855 31.037,234.760 30.377,234.468 30.099 C 234.175 29.820,233.770 29.695,233.568 29.820 C 233.365 29.945,233.200 29.857,233.200 29.624 C 233.200 29.391,232.930 29.200,232.600 29.200 C 232.270 29.200,232.000 29.041,232.000 28.847 C 232.000 28.652,231.685 28.384,231.300 28.251 C 230.915 28.118,230.060 27.660,229.400 27.234 C 228.740 26.807,227.951 26.445,227.647 26.429 C 227.343 26.413,226.803 26.071,226.447 25.670 C 226.091 25.268,225.215 24.684,224.500 24.372 C 223.785 24.060,223.200 23.669,223.200 23.502 C 223.200 23.336,222.880 23.200,222.488 23.200 C 222.097 23.200,221.517 22.840,221.200 22.400 C 220.883 21.960,220.386 21.600,220.095 21.600 C 219.804 21.600,219.180 21.240,218.708 20.800 C 218.236 20.360,217.512 20.000,217.101 20.000 C 216.689 20.000,216.464 19.820,216.600 19.600 C 216.736 19.380,216.477 19.200,216.024 19.200 C 215.571 19.200,215.200 19.051,215.200 18.868 C 215.200 18.686,214.300 18.115,213.200 17.600 C 212.100 17.085,211.200 16.526,211.200 16.359 C 211.200 16.191,210.841 15.940,210.402 15.801 C 209.964 15.662,209.379 15.334,209.102 15.074 C 207.785 13.831,203.401 12.000,201.744 12.000 L 200.000 12.000 200.000 59.027 M117.800 118.000 C 117.800 124.558,117.935 129.840,118.100 129.738 C 118.265 129.636,118.400 124.354,118.400 118.000 C 118.400 111.646,118.265 106.364,118.100 106.262 C 117.935 106.160,117.800 111.442,117.800 118.000 M313.095 200.967 C 311.827 201.488,310.353 202.201,309.820 202.550 C 307.503 204.068,305.855 204.830,305.326 204.627 C 305.013 204.507,304.373 204.767,303.903 205.204 C 303.433 205.642,302.813 206.000,302.525 206.000 C 302.236 206.000,302.000 206.146,302.000 206.325 C 302.000 206.504,301.370 206.898,300.600 207.200 C 299.830 207.502,299.200 207.896,299.200 208.075 C 299.200 208.254,298.930 208.400,298.600 208.400 C 298.270 208.400,297.999 208.535,297.997 208.700 C 297.995 208.865,297.590 209.196,297.097 209.436 C 295.096 210.409,291.361 212.546,290.769 213.056 C 290.421 213.355,290.004 213.600,289.841 213.600 C 289.678 213.600,288.792 214.102,287.872 214.716 C 286.952 215.329,285.345 216.257,284.300 216.778 C 283.255 217.299,282.400 217.877,282.400 218.063 C 282.400 218.248,282.145 218.400,281.833 218.400 C 281.522 218.400,281.207 218.535,281.133 218.700 C 280.966 219.076,278.836 220.375,277.900 220.671 C 277.515 220.793,277.200 221.052,277.200 221.247 C 277.200 221.441,276.880 221.600,276.488 221.600 C 276.097 221.600,275.517 221.960,275.200 222.400 C 274.883 222.840,274.303 223.200,273.912 223.200 C 273.520 223.200,273.200 223.380,273.200 223.600 C 273.200 223.820,272.964 224.000,272.675 224.000 C 272.387 224.000,271.764 224.360,271.292 224.800 C 270.820 225.240,270.201 225.601,269.917 225.601 C 269.633 225.602,268.770 225.999,268.000 226.482 C 264.016 228.984,262.269 230.000,261.952 230.000 C 261.758 230.000,261.600 230.159,261.600 230.353 C 261.600 230.548,261.285 230.807,260.900 230.929 C 260.215 231.146,257.996 232.404,257.600 232.800 C 257.490 232.910,257.040 233.197,256.600 233.438 C 254.698 234.478,253.787 235.013,253.600 235.200 C 253.204 235.596,250.985 236.854,250.300 237.071 C 249.915 237.193,249.600 237.452,249.600 237.647 C 249.600 237.841,249.407 238.000,249.172 238.000 C 248.937 238.000,247.959 238.540,247.000 239.200 C 246.041 239.860,245.063 240.400,244.828 240.400 C 244.593 240.400,244.400 240.542,244.400 240.716 C 244.400 240.890,243.455 241.516,242.300 242.107 C 239.496 243.541,236.152 246.719,236.639 247.485 C 236.838 247.798,238.080 248.650,239.400 249.379 C 241.466 250.521,269.634 266.599,273.600 268.901 C 274.370 269.348,275.810 270.164,276.800 270.715 C 277.790 271.266,282.740 274.095,287.800 277.002 C 292.860 279.909,297.810 282.741,298.800 283.295 C 299.790 283.849,304.279 286.416,308.775 289.000 C 315.919 293.105,317.049 293.637,317.730 293.211 C 318.540 292.706,320.128 291.797,323.200 290.082 C 324.190 289.529,328.130 287.304,331.955 285.138 C 335.781 282.972,338.993 281.200,339.094 281.200 C 339.194 281.200,339.754 280.867,340.338 280.461 C 340.922 280.055,342.390 279.181,343.600 278.520 C 344.810 277.859,346.475 276.931,347.300 276.459 C 350.622 274.557,351.879 273.843,353.600 272.881 C 354.590 272.327,357.920 270.439,361.000 268.684 C 366.293 265.668,367.620 264.921,371.700 262.657 C 373.312 261.762,374.434 261.126,377.900 259.141 C 378.725 258.669,380.390 257.741,381.600 257.080 C 382.810 256.419,384.278 255.545,384.862 255.139 C 385.446 254.733,386.021 254.400,386.139 254.400 C 386.350 254.400,392.290 251.039,396.127 248.750 C 397.186 248.117,398.221 247.600,398.427 247.600 C 399.245 247.600,398.703 246.709,396.724 244.801 C 395.582 243.701,394.404 242.800,394.107 242.800 C 393.810 242.800,393.180 242.440,392.708 242.000 C 392.236 241.560,391.613 241.200,391.325 241.200 C 391.036 241.200,390.800 241.020,390.800 240.800 C 390.800 240.580,390.522 240.400,390.183 240.400 C 389.844 240.400,389.180 240.040,388.708 239.600 C 388.236 239.160,387.344 238.576,386.725 238.303 C 386.106 238.029,385.600 237.669,385.600 237.502 C 385.600 237.336,385.240 237.200,384.800 237.200 C 384.360 237.200,384.000 237.041,384.000 236.847 C 384.000 236.652,383.685 236.393,383.300 236.271 C 382.466 236.007,380.433 234.792,379.710 234.126 C 379.427 233.866,378.836 233.538,378.398 233.399 C 377.959 233.260,377.600 232.978,377.600 232.773 C 377.600 232.568,377.336 232.400,377.013 232.400 C 376.534 232.400,372.639 230.143,370.988 228.908 C 370.007 228.175,368.032 227.200,367.527 227.200 C 367.224 227.200,366.717 226.840,366.400 226.400 C 366.083 225.960,365.503 225.600,365.112 225.600 C 364.720 225.600,364.400 225.420,364.400 225.200 C 364.400 224.980,364.040 224.800,363.600 224.800 C 363.160 224.800,362.800 224.620,362.800 224.400 C 362.800 224.180,362.564 224.000,362.275 224.000 C 361.987 224.000,361.364 223.640,360.892 223.200 C 360.420 222.760,359.756 222.400,359.417 222.400 C 359.078 222.400,358.800 222.250,358.800 222.068 C 358.800 221.885,358.305 221.486,357.700 221.182 C 357.095 220.878,356.150 220.329,355.600 219.962 C 353.794 218.757,351.013 217.169,350.300 216.936 C 349.915 216.810,349.600 216.570,349.600 216.402 C 349.600 216.234,349.060 215.873,348.400 215.600 C 347.740 215.327,347.200 214.945,347.200 214.751 C 347.200 214.558,346.855 214.400,346.433 214.400 C 346.012 214.400,345.607 214.265,345.533 214.100 C 345.460 213.935,344.412 213.270,343.204 212.623 C 341.996 211.975,340.401 211.034,339.659 210.530 C 338.918 210.027,337.341 209.141,336.155 208.561 C 334.970 207.981,334.000 207.347,334.000 207.153 C 334.000 206.959,333.640 206.800,333.200 206.800 C 332.760 206.800,332.400 206.642,332.400 206.449 C 332.400 206.255,331.860 205.873,331.200 205.600 C 330.540 205.327,330.000 204.933,330.000 204.725 C 330.000 204.516,329.660 204.454,329.244 204.586 C 328.763 204.739,327.561 204.282,325.944 203.331 C 320.043 199.864,317.096 199.321,313.095 200.967 M161.080 248.474 C 160.023 249.144,159.231 249.764,159.319 249.852 C 159.524 250.057,163.119 248.054,163.420 247.568 C 163.817 246.925,163.057 247.219,161.080 248.474 M1.200 247.772 C 1.200 247.919,3.846 249.446,13.300 254.757 C 14.125 255.221,15.430 255.960,16.200 256.400 C 19.989 258.565,20.730 258.986,22.400 259.920 C 23.390 260.473,27.314 262.698,31.121 264.863 C 34.928 267.028,38.104 268.800,38.180 268.800 C 38.256 268.800,39.462 269.480,40.859 270.310 C 42.257 271.141,43.940 272.086,44.600 272.410 C 45.260 272.734,45.890 273.089,46.000 273.199 C 46.110 273.310,46.630 273.642,47.155 273.938 C 48.611 274.758,50.637 275.907,52.300 276.857 C 53.125 277.328,54.610 278.166,55.600 278.718 C 56.590 279.271,60.010 281.198,63.200 283.000 C 66.390 284.802,69.810 286.729,70.800 287.282 C 72.470 288.214,73.196 288.626,77.000 290.800 C 77.770 291.240,79.075 291.979,79.900 292.443 C 80.725 292.906,81.617 293.462,81.882 293.677 C 82.221 293.952,84.909 292.610,90.882 289.186 C 95.567 286.500,100.030 283.946,100.800 283.510 C 110.595 277.967,112.802 276.668,112.660 276.527 C 112.505 276.372,111.997 276.631,108.100 278.857 C 107.275 279.328,105.790 280.165,104.800 280.718 C 103.810 281.270,100.840 282.981,98.200 284.519 C 95.560 286.057,92.410 287.856,91.200 288.515 C 89.990 289.175,88.820 289.850,88.600 290.015 C 88.380 290.180,87.525 290.694,86.700 291.157 C 85.875 291.621,84.591 292.345,83.847 292.767 C 83.103 293.189,82.338 293.383,82.147 293.199 C 81.836 292.898,77.269 290.232,72.400 287.507 C 71.410 286.953,69.340 285.784,67.800 284.909 C 66.260 284.034,64.190 282.867,63.200 282.316 C 61.531 281.386,60.830 280.989,57.000 278.800 C 53.169 276.611,52.469 276.214,50.800 275.284 C 49.810 274.733,44.500 271.728,39.000 268.606 C 33.500 265.484,28.190 262.476,27.200 261.921 C 26.210 261.367,24.725 260.528,23.900 260.057 C 23.075 259.585,21.725 258.815,20.900 258.343 C 20.075 257.872,18.590 257.034,17.600 256.481 C 16.610 255.928,13.303 254.063,10.252 252.338 C 7.200 250.612,4.590 249.196,4.452 249.191 C 4.313 249.186,3.750 248.830,3.200 248.400 C 2.289 247.688,1.200 247.346,1.200 247.772 M156.200 251.355 C 154.880 252.088,152.211 253.613,150.268 254.744 C 148.326 255.875,146.571 256.800,146.368 256.800 C 146.166 256.800,146.000 256.959,146.000 257.153 C 146.000 257.348,145.685 257.610,145.300 257.736 C 144.410 258.027,141.128 259.946,140.600 260.484 C 139.818 261.280,157.724 251.210,158.580 250.372 C 159.212 249.753,158.712 249.960,156.200 251.355 M138.400 261.633 L 137.400 262.448 138.700 261.814 C 139.415 261.465,140.000 261.094,140.000 260.990 C 140.000 260.592,139.363 260.848,138.400 261.633 M135.600 263.233 L 134.600 264.048 135.900 263.414 C 136.615 263.065,137.200 262.694,137.200 262.590 C 137.200 262.192,136.563 262.448,135.600 263.233 M130.000 266.288 C 125.709 268.784,124.210 269.651,122.200 270.800 C 121.430 271.240,120.215 271.935,119.500 272.343 C 118.785 272.752,117.390 273.570,116.400 274.161 C 115.410 274.752,114.285 275.338,113.900 275.464 C 113.515 275.590,113.200 275.867,113.200 276.079 C 113.200 276.292,113.785 276.114,114.500 275.686 C 116.045 274.759,120.674 272.113,123.200 270.711 C 125.667 269.343,127.424 268.334,129.918 266.856 C 131.082 266.165,132.162 265.596,132.318 265.591 C 132.473 265.586,133.050 265.230,133.600 264.800 C 135.377 263.410,133.892 264.023,130.000 266.288 " stroke="none" fill="#939bec" fill-rule="evenodd"></path><path id="path3" d="M282.181 106.505 C 282.074 106.783,282.035 112.138,282.094 118.405 L 282.200 129.800 293.700 129.906 L 305.200 130.012 305.200 167.406 C 305.200 191.381,305.340 204.800,305.589 204.800 C 305.803 204.800,306.748 204.343,307.689 203.784 C 315.595 199.086,318.284 198.968,325.346 203.003 C 327.076 203.991,328.651 204.800,328.846 204.800 C 329.357 204.800,329.311 113.716,328.800 113.400 C 328.580 113.264,328.400 112.844,328.400 112.468 C 328.400 111.297,323.795 106.800,322.595 106.800 C 322.268 106.800,322.000 106.620,322.000 106.400 C 322.000 105.754,282.429 105.859,282.181 106.505 " stroke="none" fill="#74e4fc" fill-rule="evenodd"></path><path id="path4" d="M280.800 60.158 C 280.800 60.465,279.855 61.208,278.700 61.809 C 277.545 62.410,276.122 63.238,275.538 63.651 C 274.954 64.063,274.395 64.400,274.296 64.400 C 274.196 64.400,272.514 65.321,270.557 66.447 C 268.601 67.574,265.830 69.131,264.400 69.909 C 262.970 70.687,261.350 71.617,260.800 71.976 C 260.250 72.335,259.260 72.892,258.600 73.214 C 257.940 73.535,257.310 73.889,257.200 73.999 C 257.090 74.110,256.570 74.442,256.045 74.738 C 254.575 75.565,252.544 76.718,251.000 77.600 C 250.230 78.040,248.970 78.760,248.200 79.200 C 247.430 79.640,246.125 80.380,245.300 80.845 C 244.475 81.310,242.630 82.365,241.200 83.190 C 239.770 84.015,237.776 85.144,236.768 85.699 C 233.736 87.369,233.009 87.791,232.800 88.001 C 232.690 88.111,232.060 88.465,231.400 88.788 C 230.740 89.111,229.480 89.837,228.600 90.400 C 227.720 90.963,226.460 91.689,225.800 92.012 C 225.140 92.335,224.510 92.689,224.400 92.799 C 224.290 92.910,223.480 93.387,222.600 93.860 C 220.872 94.789,220.232 95.149,214.267 98.555 C 212.103 99.790,210.168 100.800,209.967 100.800 C 209.765 100.800,209.599 100.935,209.597 101.100 C 209.595 101.265,209.190 101.587,208.697 101.817 C 207.435 102.403,204.240 104.160,204.000 104.400 C 203.604 104.796,201.385 106.054,200.700 106.271 C 200.039 106.481,200.000 109.080,200.000 153.447 L 200.000 200.400 202.200 200.400 C 203.410 200.400,204.400 200.220,204.400 200.000 C 204.400 199.780,204.850 199.600,205.400 199.600 C 205.950 199.600,206.400 199.420,206.400 199.200 C 206.400 198.980,206.670 198.800,207.000 198.800 C 207.330 198.800,207.600 198.620,207.600 198.400 C 207.600 198.180,207.870 198.000,208.200 198.000 C 208.530 198.000,208.800 197.820,208.800 197.600 C 208.800 197.380,209.120 197.200,209.512 197.200 C 209.903 197.200,210.483 196.840,210.800 196.400 C 211.117 195.960,211.697 195.600,212.088 195.600 C 212.480 195.600,212.800 195.420,212.800 195.200 C 212.800 194.980,213.160 194.800,213.600 194.800 C 214.040 194.800,214.400 194.620,214.400 194.400 C 214.400 194.180,214.636 194.000,214.925 194.000 C 215.213 194.000,215.836 193.640,216.308 193.200 C 216.780 192.760,217.444 192.400,217.783 192.400 C 218.122 192.400,218.402 192.265,218.405 192.100 C 218.407 191.935,219.172 191.447,220.105 191.016 C 221.037 190.585,222.552 189.730,223.472 189.116 C 224.392 188.502,225.337 188.000,225.572 188.000 C 225.807 188.000,226.000 187.820,226.000 187.600 C 226.000 187.380,226.320 187.200,226.712 187.200 C 227.103 187.200,227.683 186.840,228.000 186.400 C 228.317 185.960,228.897 185.600,229.288 185.600 C 229.680 185.600,230.000 185.420,230.000 185.200 C 230.000 184.980,230.278 184.800,230.617 184.800 C 230.956 184.800,231.620 184.440,232.092 184.000 C 232.564 183.560,233.187 183.200,233.475 183.200 C 233.764 183.200,234.000 183.020,234.000 182.800 C 234.000 182.580,234.360 182.400,234.800 182.400 C 235.240 182.400,235.600 182.220,235.600 182.000 C 235.600 181.780,235.870 181.600,236.200 181.600 C 236.530 181.600,236.800 181.420,236.800 181.200 C 236.800 180.980,237.070 180.800,237.400 180.800 C 237.730 180.800,238.000 180.620,238.000 180.400 C 238.000 180.180,238.360 180.000,238.800 180.000 C 239.240 180.000,239.600 179.820,239.600 179.600 C 239.600 179.380,239.830 179.200,240.112 179.200 C 240.393 179.200,240.883 178.840,241.200 178.400 C 241.517 177.960,242.097 177.600,242.488 177.600 C 242.880 177.600,243.200 177.420,243.200 177.200 C 243.200 176.980,243.520 176.800,243.912 176.800 C 244.303 176.800,244.883 176.440,245.200 176.000 C 245.517 175.560,246.001 175.200,246.275 175.200 C 247.019 175.200,249.600 173.901,249.600 173.526 C 249.600 173.347,249.960 173.200,250.400 173.200 C 250.840 173.200,251.200 173.041,251.200 172.847 C 251.200 172.652,251.515 172.393,251.900 172.271 C 252.587 172.054,254.806 170.795,255.200 170.399 C 255.310 170.289,255.940 169.930,256.600 169.602 C 257.260 169.274,258.091 168.689,258.447 168.303 C 258.803 167.916,259.388 167.600,259.747 167.600 C 260.106 167.600,260.400 167.420,260.400 167.200 C 260.400 166.980,260.720 166.800,261.112 166.800 C 261.503 166.800,262.083 166.440,262.400 166.000 C 262.717 165.560,263.297 165.200,263.688 165.200 C 264.080 165.200,264.400 165.020,264.400 164.800 C 264.400 164.580,264.678 164.400,265.017 164.400 C 265.356 164.400,266.020 164.040,266.492 163.600 C 266.964 163.160,267.587 162.800,267.875 162.800 C 268.164 162.800,268.400 162.620,268.400 162.400 C 268.400 162.180,268.760 162.000,269.200 162.000 C 269.640 162.000,270.000 161.820,270.000 161.600 C 270.000 161.380,270.270 161.200,270.600 161.200 C 270.930 161.200,271.200 161.020,271.200 160.800 C 271.200 160.580,271.470 160.400,271.800 160.400 C 272.130 160.400,272.400 160.257,272.400 160.082 C 272.400 159.907,273.210 159.430,274.200 159.022 C 275.190 158.613,276.000 158.127,276.000 157.940 C 276.000 157.753,276.241 157.600,276.536 157.600 C 277.312 157.600,280.800 154.196,280.800 153.440 C 280.800 153.088,280.980 152.800,281.200 152.800 C 281.420 152.800,281.600 152.440,281.600 152.000 C 281.600 151.560,281.737 151.200,281.905 151.200 C 282.568 151.200,282.437 62.315,281.773 60.900 C 281.118 59.506,280.800 59.263,280.800 60.158 M163.600 247.776 C 163.600 248.119,163.463 248.400,163.296 248.400 C 163.128 248.400,160.771 249.660,158.057 251.200 C 155.343 252.740,153.032 254.000,152.923 254.000 C 152.813 254.000,152.246 254.339,151.662 254.753 C 150.516 255.566,148.350 256.825,145.800 258.162 C 144.920 258.623,144.110 259.090,144.000 259.200 C 143.769 259.431,142.682 260.056,139.600 261.728 C 138.390 262.385,136.922 263.255,136.338 263.661 C 135.754 264.067,135.177 264.400,135.056 264.400 C 134.934 264.400,133.882 264.964,132.718 265.654 C 131.553 266.343,129.250 267.663,127.600 268.588 C 125.950 269.512,123.925 270.658,123.100 271.134 C 122.275 271.610,120.970 272.360,120.200 272.800 C 119.430 273.240,118.170 273.960,117.400 274.400 C 116.630 274.840,115.370 275.560,114.600 276.000 C 113.830 276.440,112.570 277.160,111.800 277.600 C 111.030 278.040,109.815 278.739,109.100 279.154 C 108.385 279.569,104.110 282.022,99.600 284.605 C 95.090 287.188,90.815 289.638,90.100 290.051 C 86.696 292.013,85.691 292.582,84.300 293.336 L 82.800 294.148 82.800 341.074 L 82.800 388.000 85.000 388.000 C 86.210 388.000,87.200 387.820,87.200 387.600 C 87.200 387.380,87.434 387.200,87.720 387.200 C 88.456 387.200,90.393 386.259,90.397 385.900 C 90.399 385.735,90.670 385.600,91.000 385.600 C 91.330 385.600,91.600 385.420,91.600 385.200 C 91.600 384.980,91.920 384.800,92.312 384.800 C 92.703 384.800,93.283 384.440,93.600 384.000 C 93.917 383.560,94.497 383.200,94.888 383.200 C 95.280 383.200,95.600 383.020,95.600 382.800 C 95.600 382.580,95.878 382.400,96.217 382.400 C 96.556 382.400,97.220 382.040,97.692 381.600 C 98.164 381.160,98.787 380.800,99.075 380.800 C 99.364 380.800,99.600 380.620,99.600 380.400 C 99.600 380.180,99.960 380.000,100.400 380.000 C 100.840 380.000,101.200 379.820,101.200 379.600 C 101.200 379.380,101.436 379.200,101.725 379.200 C 102.013 379.200,102.636 378.840,103.108 378.400 C 103.580 377.960,104.244 377.600,104.583 377.600 C 104.922 377.600,105.200 377.420,105.200 377.200 C 105.200 376.980,105.470 376.800,105.800 376.800 C 106.130 376.800,106.400 376.620,106.400 376.400 C 106.400 376.180,106.670 376.000,107.000 376.000 C 107.330 376.000,107.601 375.865,107.601 375.700 C 107.602 375.535,108.412 375.067,109.401 374.660 C 110.391 374.254,111.200 373.759,111.200 373.560 C 111.200 373.362,111.560 373.200,112.000 373.200 C 112.440 373.200,112.800 373.020,112.800 372.800 C 112.800 372.580,113.036 372.400,113.325 372.400 C 113.613 372.400,114.236 372.040,114.708 371.600 C 115.180 371.160,115.844 370.800,116.183 370.800 C 116.522 370.800,116.800 370.620,116.800 370.400 C 116.800 370.180,117.078 370.000,117.417 370.000 C 117.756 370.000,118.420 369.640,118.892 369.200 C 119.364 368.760,119.987 368.400,120.275 368.400 C 120.564 368.400,120.800 368.220,120.800 368.000 C 120.800 367.780,121.160 367.600,121.600 367.600 C 122.040 367.600,122.400 367.420,122.400 367.200 C 122.400 366.980,122.670 366.800,123.000 366.800 C 123.330 366.800,123.600 366.620,123.600 366.400 C 123.600 366.180,123.870 366.000,124.200 366.000 C 124.530 366.000,124.800 365.820,124.800 365.600 C 124.800 365.380,125.070 365.200,125.400 365.200 C 125.730 365.200,126.000 365.020,126.000 364.800 C 126.000 364.580,126.320 364.400,126.712 364.400 C 127.103 364.400,127.683 364.040,128.000 363.600 C 128.317 363.160,128.897 362.800,129.288 362.800 C 129.680 362.800,130.000 362.620,130.000 362.400 C 130.000 362.180,130.278 362.000,130.617 362.000 C 130.956 362.000,131.620 361.640,132.092 361.200 C 132.564 360.760,133.187 360.400,133.475 360.400 C 133.764 360.400,134.000 360.220,134.000 360.000 C 134.000 359.780,134.360 359.600,134.800 359.600 C 135.240 359.600,135.600 359.420,135.600 359.200 C 135.600 358.980,135.846 358.800,136.146 358.800 C 136.446 358.800,137.160 358.432,137.732 357.982 C 138.304 357.532,138.873 357.180,138.996 357.199 C 139.398 357.261,141.600 355.836,141.600 355.514 C 141.600 355.341,141.960 355.200,142.400 355.200 C 142.840 355.200,143.200 355.020,143.200 354.800 C 143.200 354.580,143.520 354.400,143.912 354.400 C 144.303 354.400,144.883 354.040,145.200 353.600 C 145.517 353.160,146.097 352.800,146.488 352.800 C 146.880 352.800,147.200 352.620,147.200 352.400 C 147.200 352.180,147.478 352.000,147.817 352.000 C 148.156 352.000,148.820 351.640,149.292 351.200 C 149.764 350.760,150.387 350.400,150.675 350.400 C 150.964 350.400,151.200 350.220,151.200 350.000 C 151.200 349.780,151.560 349.600,152.000 349.600 C 152.440 349.600,152.800 349.420,152.800 349.200 C 152.800 348.980,153.070 348.800,153.400 348.800 C 153.730 348.800,154.000 348.620,154.000 348.400 C 154.000 348.180,154.270 348.000,154.600 348.000 C 154.930 348.000,155.200 347.864,155.200 347.698 C 155.200 347.531,155.785 347.140,156.500 346.828 C 157.215 346.516,158.091 345.932,158.447 345.530 C 158.803 345.129,159.302 344.800,159.557 344.800 C 160.130 344.800,163.600 341.376,163.600 340.811 C 163.600 340.585,163.780 340.400,164.000 340.400 C 164.220 340.400,164.400 340.051,164.400 339.624 C 164.400 339.197,164.580 338.736,164.800 338.600 C 165.063 338.438,165.200 322.996,165.200 293.576 C 165.200 263.992,165.064 248.800,164.800 248.800 C 164.580 248.800,164.400 248.541,164.400 248.224 C 164.400 247.907,164.220 247.536,164.000 247.400 C 163.780 247.264,163.600 247.433,163.600 247.776 M398.684 247.700 C 398.573 247.975,397.608 248.647,396.541 249.194 C 395.473 249.741,392.440 251.431,389.800 252.949 C 387.160 254.468,384.100 256.198,383.000 256.794 C 381.900 257.389,380.325 258.264,379.500 258.738 C 378.675 259.212,377.415 259.936,376.700 260.346 C 375.985 260.756,374.770 261.453,374.000 261.895 C 372.576 262.712,364.709 267.172,361.800 268.811 C 359.848 269.911,357.651 271.131,355.000 272.586 C 353.900 273.190,352.820 273.819,352.600 273.984 C 352.380 274.150,351.210 274.825,350.000 275.485 C 348.790 276.145,346.720 277.308,345.400 278.069 C 343.107 279.391,337.489 282.576,334.300 284.360 C 332.777 285.213,331.202 286.109,328.500 287.662 C 327.675 288.136,326.100 289.008,325.000 289.600 C 322.878 290.742,321.143 291.729,318.700 293.185 L 317.200 294.079 317.200 341.040 L 317.200 388.000 319.400 388.000 C 320.610 388.000,321.600 387.820,321.600 387.600 C 321.600 387.380,321.915 387.196,322.300 387.191 C 322.685 387.186,323.450 386.830,324.000 386.400 C 324.550 385.970,325.225 385.614,325.500 385.609 C 325.775 385.604,326.000 385.420,326.000 385.200 C 326.000 384.980,326.360 384.800,326.800 384.800 C 327.240 384.800,327.600 384.642,327.600 384.449 C 327.600 384.255,328.140 383.873,328.800 383.600 C 329.460 383.327,330.000 382.945,330.000 382.751 C 330.000 382.558,330.360 382.400,330.800 382.400 C 331.240 382.400,331.600 382.220,331.600 382.000 C 331.600 381.780,331.920 381.600,332.312 381.600 C 332.703 381.600,333.283 381.240,333.600 380.800 C 333.917 380.360,334.497 380.000,334.888 380.000 C 335.280 380.000,335.600 379.820,335.600 379.600 C 335.600 379.380,335.878 379.200,336.217 379.200 C 336.556 379.200,337.220 378.840,337.692 378.400 C 338.164 377.960,338.787 377.600,339.075 377.600 C 339.364 377.600,339.600 377.454,339.600 377.275 C 339.600 377.096,340.230 376.702,341.000 376.400 C 341.770 376.098,342.400 375.749,342.401 375.625 C 342.401 375.501,343.481 374.874,344.801 374.230 C 346.120 373.587,347.200 372.912,347.200 372.730 C 347.200 372.549,347.560 372.400,348.000 372.400 C 348.440 372.400,348.800 372.220,348.800 372.000 C 348.800 371.780,349.160 371.600,349.600 371.600 C 350.040 371.600,350.400 371.442,350.400 371.249 C 350.400 371.055,350.940 370.673,351.600 370.400 C 352.260 370.127,352.800 369.745,352.800 369.551 C 352.800 369.358,353.160 369.200,353.600 369.200 C 354.040 369.200,354.400 369.020,354.400 368.800 C 354.400 368.580,354.636 368.400,354.925 368.400 C 355.213 368.400,355.798 368.075,356.225 367.678 C 356.651 367.280,357.585 366.697,358.300 366.380 C 359.015 366.064,359.600 365.669,359.600 365.502 C 359.600 365.336,359.836 365.200,360.125 365.200 C 360.413 365.200,361.036 364.840,361.508 364.400 C 361.980 363.960,362.644 363.600,362.983 363.600 C 363.322 363.600,363.600 363.420,363.600 363.200 C 363.600 362.980,363.920 362.800,364.312 362.800 C 364.703 362.800,365.283 362.440,365.600 362.000 C 365.917 361.560,366.497 361.200,366.888 361.200 C 367.280 361.200,367.600 361.020,367.600 360.800 C 367.600 360.580,367.960 360.400,368.400 360.400 C 368.840 360.400,369.200 360.220,369.200 360.000 C 369.200 359.780,369.470 359.600,369.800 359.600 C 370.130 359.600,370.400 359.441,370.400 359.247 C 370.400 359.052,370.805 358.762,371.300 358.600 C 372.529 358.201,372.442 358.242,373.897 357.374 C 374.611 356.948,375.196 356.465,375.197 356.300 C 375.199 356.135,375.560 356.000,376.000 356.000 C 376.440 356.000,376.800 355.820,376.800 355.600 C 376.800 355.380,377.078 355.200,377.417 355.200 C 377.756 355.200,378.420 354.840,378.892 354.400 C 379.364 353.960,379.987 353.600,380.275 353.600 C 380.564 353.600,380.800 353.420,380.800 353.200 C 380.800 352.980,381.160 352.800,381.600 352.800 C 382.040 352.800,382.400 352.620,382.400 352.400 C 382.400 352.180,382.636 352.000,382.925 352.000 C 383.213 352.000,383.836 351.640,384.308 351.200 C 384.780 350.760,385.444 350.400,385.783 350.400 C 386.122 350.400,386.400 350.220,386.400 350.000 C 386.400 349.780,386.636 349.600,386.925 349.600 C 387.213 349.600,387.836 349.240,388.308 348.800 C 388.780 348.360,389.444 348.000,389.783 348.000 C 390.122 348.000,390.400 347.820,390.400 347.600 C 390.400 347.380,390.670 347.200,391.000 347.200 C 391.330 347.200,391.600 347.020,391.600 346.800 C 391.600 346.580,391.920 346.400,392.312 346.400 C 392.703 346.400,393.283 346.040,393.600 345.600 C 393.917 345.160,394.412 344.800,394.699 344.800 C 395.294 344.800,398.800 341.418,398.800 340.844 C 398.800 340.636,399.025 340.392,399.300 340.300 C 399.832 340.123,400.306 252.480,399.794 248.900 C 399.555 247.228,399.081 246.716,398.684 247.700 M260.000 356.560 C 260.000 356.763,262.362 358.156,263.321 358.518 C 263.754 358.682,263.944 358.633,263.797 358.395 C 263.663 358.178,263.338 357.996,263.076 357.991 C 262.814 357.986,262.150 357.630,261.600 357.200 C 260.657 356.463,260.000 356.200,260.000 356.560 M26.800 357.583 C 28.006 358.475,28.800 358.824,28.800 358.461 C 28.800 358.259,28.485 357.982,28.100 357.846 C 27.715 357.711,27.130 357.496,26.800 357.369 C 26.267 357.165,26.267 357.188,26.800 357.583 M289.600 374.200 C 290.150 374.514,290.780 374.772,291.000 374.772 C 291.220 374.772,290.950 374.514,290.400 374.200 C 289.850 373.886,289.220 373.628,289.000 373.628 C 288.780 373.628,289.050 373.886,289.600 374.200 " stroke="none" fill="#5c6ce4" fill-rule="evenodd"></path></g></svg>