<svg id="svg" version="1.1" xmlns="http://www.w3.org/2000/svg" xmlns:xlink="http://www.w3.org/1999/xlink" width="400" height="103.34346504559271" viewBox="0, 0, 400,103.34346504559271"><g id="svgg"><path id="path0" d="M177.833 28.100 C 177.512 28.418,177.081 28.842,176.875 29.044 C 176.669 29.245,176.500 29.542,176.500 29.705 C 176.500 29.867,176.436 30.000,176.359 30.000 C 176.096 30.000,175.500 30.621,175.500 30.895 C 175.500 31.044,175.430 31.167,175.345 31.167 C 175.259 31.167,175.136 31.335,175.071 31.542 C 175.006 31.748,174.813 32.038,174.643 32.186 C 174.473 32.334,174.333 32.578,174.333 32.728 C 174.333 32.878,174.258 33.000,174.167 33.000 C 174.075 33.000,174.000 33.150,174.000 33.333 C 174.000 33.517,173.925 33.667,173.833 33.667 C 173.742 33.667,173.667 33.779,173.667 33.917 C 173.667 34.054,173.600 34.167,173.519 34.167 C 173.437 34.167,173.321 34.429,173.261 34.750 C 173.201 35.071,173.080 35.333,172.992 35.333 C 172.905 35.333,172.833 35.483,172.833 35.667 C 172.833 35.850,172.758 36.000,172.667 36.000 C 172.575 36.000,172.500 36.150,172.500 36.333 C 172.500 36.517,172.425 36.667,172.333 36.667 C 172.242 36.667,172.167 36.779,172.167 36.917 C 172.167 37.054,172.092 37.167,172.000 37.167 C 171.908 37.167,171.833 37.346,171.833 37.564 C 171.833 37.783,171.721 38.177,171.584 38.439 C 171.447 38.702,171.335 39.160,171.334 39.458 C 171.334 39.756,171.258 40.000,171.167 40.000 C 171.075 40.000,171.000 40.188,171.000 40.417 C 171.000 40.646,170.925 40.833,170.833 40.833 C 170.742 40.833,170.667 41.058,170.667 41.333 C 170.667 41.608,170.592 41.833,170.500 41.833 C 170.408 41.833,170.333 42.165,170.333 42.569 C 170.333 42.974,170.260 43.331,170.169 43.361 C 170.079 43.392,169.955 44.298,169.894 45.375 C 169.833 46.452,169.719 47.333,169.641 47.333 C 169.564 47.333,169.500 48.833,169.500 50.667 C 169.500 52.500,169.566 54.000,169.647 54.000 C 169.727 54.000,169.847 54.862,169.913 55.917 C 169.979 56.971,170.100 57.833,170.183 57.833 C 170.266 57.833,170.333 58.133,170.333 58.500 C 170.333 58.867,170.408 59.167,170.500 59.167 C 170.592 59.167,170.667 59.429,170.667 59.750 C 170.667 60.071,170.742 60.333,170.833 60.333 C 170.925 60.333,171.000 60.521,171.000 60.750 C 171.000 60.979,171.065 61.167,171.145 61.167 C 171.225 61.167,171.328 61.557,171.374 62.035 C 171.420 62.512,171.542 62.931,171.646 62.965 C 171.749 63.000,171.833 63.172,171.833 63.347 C 171.833 63.523,171.908 63.667,172.000 63.667 C 172.092 63.667,172.167 63.854,172.167 64.083 C 172.167 64.313,172.242 64.500,172.333 64.500 C 172.425 64.500,172.500 64.650,172.500 64.833 C 172.500 65.017,172.575 65.167,172.667 65.167 C 172.758 65.167,172.833 65.317,172.833 65.500 C 172.833 65.683,172.905 65.833,172.992 65.833 C 173.080 65.833,173.201 66.096,173.261 66.417 C 173.321 66.737,173.437 67.000,173.519 67.000 C 173.600 67.000,173.667 67.150,173.667 67.333 C 173.667 67.517,173.742 67.667,173.833 67.667 C 173.925 67.667,174.000 67.763,174.000 67.880 C 174.000 67.997,174.150 68.201,174.333 68.333 C 174.517 68.465,174.667 68.707,174.667 68.870 C 174.667 69.033,174.734 69.167,174.815 69.167 C 174.897 69.167,175.011 69.354,175.068 69.583 C 175.126 69.813,175.247 70.000,175.337 70.000 C 175.426 70.000,175.500 70.121,175.500 70.269 C 175.500 70.417,175.746 70.773,176.047 71.061 C 176.347 71.348,176.698 71.790,176.825 72.042 C 177.098 72.582,177.498 72.632,177.833 72.167 C 177.965 71.983,178.135 71.833,178.210 71.833 C 178.357 71.833,178.610 71.641,179.250 71.042 C 179.471 70.835,179.767 70.667,179.909 70.667 C 180.051 70.667,180.167 70.595,180.167 70.508 C 180.167 70.299,181.362 69.167,181.582 69.167 C 181.635 69.167,181.934 68.923,182.246 68.625 C 182.993 67.914,183.297 67.667,183.423 67.667 C 183.480 67.667,183.814 67.367,184.167 67.000 C 184.519 66.633,184.899 66.333,185.012 66.333 C 185.125 66.333,185.536 65.996,185.925 65.583 C 186.315 65.171,186.682 64.833,186.741 64.833 C 186.858 64.833,187.140 64.612,187.750 64.042 C 187.971 63.835,188.262 63.667,188.398 63.667 C 188.533 63.667,188.691 63.521,188.747 63.342 C 188.804 63.163,188.997 62.971,189.175 62.914 C 189.354 62.857,189.500 62.741,189.500 62.655 C 189.500 62.570,189.633 62.500,189.797 62.500 C 189.960 62.500,190.203 62.340,190.338 62.144 C 190.707 61.608,191.716 60.667,191.923 60.667 C 191.980 60.667,192.314 60.367,192.667 60.000 C 193.019 59.633,193.408 59.333,193.530 59.333 C 193.653 59.333,193.977 59.072,194.252 58.754 C 194.526 58.435,194.853 58.172,194.978 58.170 C 195.104 58.168,195.530 57.829,195.925 57.417 C 196.320 57.004,196.756 56.667,196.894 56.667 C 197.032 56.667,197.191 56.521,197.247 56.342 C 197.304 56.163,197.497 55.971,197.675 55.914 C 197.854 55.857,198.000 55.741,198.000 55.655 C 198.000 55.570,198.133 55.500,198.297 55.500 C 198.460 55.500,198.703 55.340,198.838 55.144 C 199.270 54.517,199.841 54.000,200.103 54.000 C 200.475 54.000,200.777 53.638,200.910 53.032 C 200.974 52.740,201.096 52.500,201.180 52.500 C 201.264 52.500,201.333 52.350,201.333 52.167 C 201.333 51.983,201.408 51.833,201.500 51.833 C 201.603 51.833,201.667 51.000,201.667 49.667 C 201.667 48.333,201.603 47.500,201.500 47.500 C 201.408 47.500,201.333 47.387,201.333 47.250 C 201.333 47.112,201.258 47.000,201.167 47.000 C 201.075 47.000,201.000 46.855,201.000 46.679 C 201.000 46.502,200.887 46.245,200.750 46.107 C 200.612 45.970,200.500 45.809,200.500 45.750 C 200.500 45.545,200.022 45.167,199.762 45.167 C 199.618 45.167,199.500 45.055,199.500 44.919 C 199.500 44.591,198.986 44.000,198.700 44.000 C 198.452 44.000,197.167 42.732,197.167 42.486 C 197.167 42.402,197.020 42.333,196.841 42.333 C 196.516 42.333,195.970 41.866,195.505 41.190 C 195.370 40.994,195.158 40.833,195.035 40.833 C 194.911 40.833,194.705 40.740,194.577 40.625 C 194.449 40.510,194.249 40.333,194.131 40.231 C 194.013 40.128,193.806 39.885,193.672 39.689 C 193.537 39.493,193.325 39.333,193.201 39.333 C 193.077 39.333,192.872 39.240,192.744 39.125 C 192.616 39.010,192.415 38.833,192.297 38.731 C 192.180 38.628,191.973 38.385,191.838 38.189 C 191.703 37.993,191.495 37.833,191.376 37.833 C 191.257 37.833,190.753 37.421,190.257 36.917 C 189.761 36.412,189.282 36.000,189.192 36.000 C 189.103 36.000,188.613 35.587,188.105 35.083 C 187.597 34.579,187.137 34.167,187.084 34.167 C 186.854 34.167,185.333 32.714,185.333 32.494 C 185.333 32.406,185.218 32.333,185.076 32.333 C 184.935 32.333,184.706 32.240,184.568 32.125 C 183.936 31.600,183.500 31.138,183.500 30.992 C 183.500 30.905,183.384 30.833,183.242 30.833 C 183.101 30.833,182.797 30.646,182.568 30.417 C 182.339 30.188,182.085 30.000,182.004 30.000 C 181.922 30.000,181.808 29.850,181.750 29.667 C 181.692 29.483,181.530 29.333,181.391 29.333 C 181.251 29.333,180.809 28.996,180.408 28.583 C 180.007 28.171,179.564 27.833,179.423 27.833 C 179.282 27.833,179.167 27.758,179.167 27.667 C 179.167 27.301,178.383 27.556,177.833 28.100 M45.833 41.333 C 45.833 41.425,45.683 41.500,45.500 41.500 C 45.317 41.500,45.167 41.575,45.167 41.667 C 45.167 41.758,45.026 41.833,44.854 41.833 C 44.536 41.833,44.489 41.911,42.383 45.996 C 41.887 46.956,41.426 47.781,41.358 47.829 C 41.243 47.910,40.732 48.956,40.153 50.292 C 40.024 50.590,39.862 50.833,39.793 50.833 C 39.723 50.833,39.667 50.983,39.667 51.167 C 39.667 51.350,39.610 51.500,39.541 51.500 C 39.471 51.500,39.312 51.744,39.187 52.042 C 38.645 53.330,38.117 54.333,37.980 54.333 C 37.900 54.333,37.833 54.446,37.833 54.583 C 37.833 54.721,37.777 54.833,37.707 54.833 C 37.638 54.833,37.479 55.077,37.354 55.375 C 36.854 56.562,36.255 57.753,36.131 57.806 C 36.059 57.836,36.000 58.005,36.000 58.181 C 36.000 58.356,35.943 58.500,35.874 58.500 C 35.805 58.500,35.645 58.744,35.520 59.042 C 35.394 59.340,35.189 59.801,35.063 60.067 C 34.515 61.224,34.323 61.177,39.375 61.128 L 43.917 61.083 44.072 60.208 L 44.227 59.333 46.530 59.333 C 48.320 59.333,48.833 59.382,48.833 59.552 C 48.833 59.672,48.985 60.085,49.171 60.469 L 49.508 61.167 54.587 61.167 L 59.667 61.167 59.667 60.615 C 59.667 60.312,59.557 59.918,59.422 59.740 C 59.287 59.562,59.175 59.302,59.172 59.162 C 59.169 59.022,59.017 58.799,58.833 58.667 C 58.650 58.535,58.500 58.293,58.500 58.130 C 58.500 57.967,58.425 57.833,58.333 57.833 C 58.242 57.833,58.167 57.721,58.167 57.583 C 58.167 57.446,58.092 57.333,58.000 57.333 C 57.908 57.333,57.833 57.189,57.833 57.012 C 57.833 56.835,57.721 56.578,57.583 56.440 C 57.446 56.303,57.333 56.110,57.333 56.012 C 57.333 55.914,57.258 55.833,57.167 55.833 C 57.075 55.833,57.000 55.683,57.000 55.500 C 57.000 55.317,56.925 55.167,56.833 55.167 C 56.742 55.167,56.667 55.017,56.667 54.833 C 56.667 54.650,56.592 54.500,56.500 54.500 C 56.408 54.500,56.333 54.420,56.333 54.321 C 56.333 54.223,56.221 54.030,56.083 53.893 C 55.946 53.755,55.833 53.498,55.833 53.321 C 55.833 53.145,55.758 53.000,55.667 53.000 C 55.575 53.000,55.500 52.887,55.500 52.750 C 55.500 52.612,55.425 52.500,55.333 52.500 C 55.242 52.500,55.167 52.350,55.167 52.167 C 55.167 51.983,55.092 51.833,55.000 51.833 C 54.908 51.833,54.833 51.683,54.833 51.500 C 54.833 51.317,54.774 51.167,54.702 51.167 C 54.630 51.167,54.349 50.735,54.079 50.208 C 53.808 49.681,53.455 49.129,53.293 48.980 C 53.132 48.832,53.000 48.588,53.000 48.439 C 53.000 48.289,52.925 48.167,52.833 48.167 C 52.742 48.167,52.667 48.054,52.667 47.915 C 52.667 47.590,51.809 46.000,51.634 46.000 C 51.560 46.000,51.500 45.887,51.500 45.750 C 51.500 45.612,51.425 45.500,51.333 45.500 C 51.242 45.500,51.167 45.350,51.167 45.167 C 51.167 44.983,51.098 44.833,51.013 44.833 C 50.929 44.833,50.813 44.618,50.755 44.356 C 50.697 44.093,50.504 43.721,50.325 43.529 C 50.146 43.338,50.000 43.065,50.000 42.924 C 50.000 42.782,49.925 42.667,49.833 42.667 C 49.742 42.667,49.667 42.588,49.667 42.492 C 49.667 42.283,49.040 41.664,48.535 41.375 C 48.101 41.127,45.833 41.092,45.833 41.333 M57.517 41.730 C 57.384 41.889,57.340 42.948,57.371 45.188 L 57.417 48.417 59.958 48.463 L 62.500 48.509 62.500 54.838 L 62.500 61.167 66.583 61.167 L 70.667 61.167 70.667 54.833 L 70.667 48.500 73.179 48.500 C 75.133 48.500,75.743 48.447,75.929 48.262 C 76.218 47.973,76.286 42.167,76.000 42.167 C 75.908 42.167,75.833 42.017,75.833 41.833 C 75.833 41.399,57.876 41.297,57.517 41.730 M77.218 41.708 C 77.062 41.950,76.935 59.814,77.083 60.628 L 77.183 61.172 81.300 61.128 L 85.417 61.083 85.462 57.792 L 85.507 54.500 87.087 54.500 L 88.667 54.500 88.667 57.833 L 88.667 61.167 92.750 61.167 L 96.833 61.167 96.833 51.330 L 96.833 41.494 92.792 41.539 L 88.750 41.583 88.705 44.875 L 88.660 48.167 87.246 48.167 C 86.415 48.167,85.833 48.235,85.833 48.333 C 85.833 48.425,85.758 48.500,85.667 48.500 C 85.562 48.500,85.500 47.365,85.500 45.428 C 85.500 43.738,85.427 42.163,85.337 41.928 L 85.175 41.500 81.264 41.500 C 78.318 41.500,77.320 41.551,77.218 41.708 M99.111 41.611 C 99.050 41.672,99.000 46.097,99.000 51.444 L 99.000 61.167 106.250 61.167 L 113.500 61.167 113.500 58.000 L 113.500 54.833 110.333 54.833 L 107.167 54.833 107.167 48.167 L 107.167 41.500 103.194 41.500 C 101.010 41.500,99.172 41.550,99.111 41.611 M114.611 41.611 C 114.550 41.672,114.500 46.097,114.500 51.444 L 114.500 61.167 121.917 61.167 L 129.333 61.167 129.333 58.167 L 129.333 55.167 126.000 55.167 L 122.667 55.167 122.667 54.583 L 122.667 54.000 125.833 54.000 L 129.000 54.000 129.000 51.250 L 129.000 48.500 125.833 48.500 C 122.778 48.500,122.667 48.488,122.667 48.167 C 122.667 47.845,122.778 47.833,125.833 47.833 L 129.000 47.833 129.000 44.667 L 129.000 41.500 121.861 41.500 C 117.935 41.500,114.672 41.550,114.611 41.611 M130.683 41.730 C 130.551 41.889,130.507 42.948,130.538 45.188 L 130.583 48.417 133.123 48.463 L 135.663 48.509 135.706 54.796 L 135.750 61.083 139.958 61.128 L 144.167 61.172 144.167 54.836 L 144.167 48.500 146.750 48.500 L 149.333 48.500 149.333 45.000 L 149.333 41.500 140.104 41.500 C 132.463 41.500,130.841 41.540,130.683 41.730 M150.778 41.611 C 150.717 41.672,150.667 46.097,150.667 51.444 L 150.667 61.167 154.750 61.167 L 158.833 61.167 158.833 51.333 L 158.833 41.500 154.861 41.500 C 152.676 41.500,150.839 41.550,150.778 41.611 M46.825 52.292 C 46.942 52.544,47.105 52.880,47.186 53.039 C 47.267 53.199,47.333 53.475,47.333 53.655 C 47.333 53.834,47.408 54.027,47.500 54.083 C 48.111 54.461,47.645 54.833,46.562 54.833 L 45.457 54.833 45.570 54.125 C 45.632 53.735,45.754 53.392,45.841 53.361 C 45.929 53.331,46.000 53.124,46.000 52.903 C 46.000 52.681,46.075 52.500,46.167 52.500 C 46.258 52.500,46.333 52.350,46.333 52.167 C 46.333 51.693,46.573 51.754,46.825 52.292 " stroke="none" fill="#0cd444" fill-rule="evenodd"></path><path id="path1" d="M202.167 16.523 C 202.167 16.659,201.667 16.681,200.375 16.601 C 199.286 16.533,198.672 16.548,198.809 16.640 C 199.195 16.899,198.740 17.021,197.839 16.902 C 197.148 16.810,197.000 16.835,197.000 17.046 C 197.000 17.248,196.860 17.283,196.333 17.212 C 195.785 17.139,195.667 17.172,195.667 17.402 C 195.667 17.631,195.562 17.662,195.083 17.572 C 194.701 17.501,194.500 17.527,194.500 17.648 C 194.500 17.750,194.283 17.833,194.018 17.833 C 193.740 17.833,193.494 17.941,193.438 18.087 C 193.370 18.266,193.215 18.310,192.920 18.236 C 192.643 18.167,192.500 18.200,192.500 18.333 C 192.500 18.466,192.357 18.500,192.083 18.432 C 191.843 18.371,191.667 18.399,191.667 18.497 C 191.667 18.590,191.517 18.667,191.333 18.667 C 191.137 18.667,191.000 18.778,191.000 18.936 C 191.000 19.120,190.898 19.179,190.677 19.121 C 190.497 19.074,190.318 19.133,190.271 19.255 C 190.222 19.384,190.045 19.437,189.844 19.384 C 189.621 19.326,189.499 19.375,189.497 19.522 C 189.495 19.713,189.471 19.712,189.349 19.520 C 189.235 19.339,189.178 19.368,189.088 19.652 C 189.004 19.915,188.886 19.986,188.653 19.912 C 188.433 19.842,188.333 19.890,188.333 20.067 C 188.333 20.226,188.239 20.287,188.083 20.227 C 187.922 20.165,187.833 20.230,187.833 20.410 C 187.833 20.613,187.743 20.660,187.500 20.583 C 187.265 20.509,187.167 20.553,187.167 20.734 C 187.167 20.893,187.072 20.953,186.917 20.894 C 186.758 20.833,186.667 20.896,186.667 21.069 C 186.667 21.272,186.566 21.314,186.266 21.239 C 185.954 21.161,185.840 21.217,185.752 21.493 C 185.671 21.749,185.551 21.819,185.320 21.746 C 185.141 21.689,185.000 21.723,185.000 21.822 C 185.000 21.920,184.831 22.001,184.625 22.003 C 184.322 22.005,184.298 22.036,184.500 22.167 C 184.703 22.298,184.679 22.329,184.378 22.331 C 184.122 22.333,183.974 22.462,183.903 22.747 C 183.830 23.037,183.630 23.207,183.235 23.316 C 182.387 23.550,181.757 24.333,182.417 24.333 C 182.554 24.333,182.667 24.419,182.667 24.523 C 182.667 24.628,182.857 24.909,183.089 25.148 C 183.322 25.388,183.730 25.831,183.997 26.133 C 184.263 26.435,184.654 26.716,184.866 26.756 C 185.400 26.859,186.071 27.390,186.144 27.768 C 186.219 28.157,186.467 28.327,186.962 28.331 C 187.215 28.332,187.396 28.476,187.505 28.763 C 187.729 29.353,188.093 29.684,188.392 29.570 C 188.550 29.509,188.753 29.648,188.944 29.945 C 189.385 30.634,189.536 30.765,190.043 30.892 C 190.294 30.955,190.500 31.105,190.500 31.226 C 190.500 31.346,190.725 31.645,191.000 31.890 C 191.279 32.139,191.501 32.243,191.503 32.126 C 191.504 31.982,191.543 31.973,191.628 32.100 C 191.695 32.201,191.919 32.372,192.125 32.481 C 192.331 32.590,192.500 32.821,192.500 32.995 C 192.500 33.169,192.650 33.358,192.833 33.417 C 193.017 33.475,193.167 33.592,193.167 33.678 C 193.167 33.763,193.339 33.833,193.550 33.833 C 193.980 33.833,194.333 34.117,194.333 34.462 C 194.333 34.807,194.776 35.178,195.059 35.070 C 195.216 35.009,195.420 35.148,195.610 35.445 C 196.044 36.122,196.296 36.356,196.538 36.305 C 196.845 36.240,197.667 36.829,197.667 37.114 C 197.667 37.429,198.074 37.833,198.391 37.833 C 198.527 37.833,198.664 37.897,198.694 37.974 C 198.725 38.052,198.974 38.221,199.248 38.350 C 199.522 38.480,199.774 38.730,199.808 38.906 C 199.893 39.352,200.295 39.717,200.580 39.608 C 200.718 39.555,200.979 39.717,201.200 39.993 C 201.411 40.256,201.696 40.610,201.833 40.781 C 201.971 40.951,202.307 41.166,202.580 41.257 C 202.853 41.348,203.153 41.577,203.248 41.766 C 203.482 42.237,203.931 42.666,204.196 42.672 C 204.445 42.678,205.167 43.239,205.167 43.425 C 205.167 43.492,205.373 43.750,205.625 43.998 C 205.877 44.246,206.194 44.610,206.328 44.807 C 206.470 45.015,206.685 45.131,206.837 45.082 C 207.112 44.995,207.833 45.552,207.833 45.851 C 207.833 45.947,207.981 45.976,208.167 45.916 C 208.390 45.846,208.535 45.898,208.602 46.073 C 208.676 46.264,208.891 46.324,209.393 46.293 C 209.874 46.263,210.071 46.313,210.042 46.458 C 209.977 46.779,211.437 46.737,211.561 46.414 C 211.635 46.222,211.813 46.186,212.305 46.265 C 212.807 46.345,212.974 46.309,213.053 46.104 C 213.116 45.938,213.258 45.879,213.431 45.945 C 213.602 46.011,213.768 45.944,213.866 45.768 C 213.971 45.581,214.137 45.521,214.357 45.591 C 214.607 45.670,214.714 45.606,214.785 45.335 C 214.854 45.071,214.970 44.997,215.215 45.061 C 215.449 45.122,215.692 44.989,216.024 44.616 C 216.285 44.323,216.555 44.028,216.625 43.960 C 216.694 43.891,217.331 43.272,218.042 42.583 C 218.752 41.893,219.333 41.251,219.333 41.155 C 219.333 41.059,219.403 41.023,219.488 41.076 C 219.573 41.128,219.687 41.031,219.742 40.860 C 219.796 40.688,220.008 40.467,220.212 40.368 C 220.416 40.270,220.487 40.184,220.370 40.178 C 220.253 40.172,220.403 39.917,220.704 39.611 C 221.063 39.245,221.296 39.117,221.386 39.236 C 221.461 39.336,221.474 39.248,221.416 39.042 C 221.356 38.827,221.384 38.667,221.483 38.667 C 221.711 38.667,222.833 37.539,222.833 37.310 C 222.833 37.212,222.942 37.173,223.075 37.224 C 223.232 37.284,223.286 37.236,223.228 37.086 C 223.137 36.849,226.967 32.833,227.284 32.833 C 227.603 32.833,228.171 32.206,228.076 31.959 C 228.015 31.798,228.109 31.677,228.345 31.615 C 228.640 31.538,228.688 31.440,228.600 31.090 C 228.528 30.802,228.566 30.631,228.715 30.574 C 228.875 30.512,228.939 30.123,228.939 29.205 C 228.940 27.913,228.895 27.785,228.205 27.116 C 227.998 26.915,227.575 26.497,227.267 26.188 C 226.959 25.880,226.556 25.477,226.373 25.294 C 225.239 24.159,224.828 23.846,224.591 23.937 C 224.435 23.997,224.333 23.945,224.333 23.805 C 224.333 23.499,223.824 23.076,223.296 22.943 C 223.027 22.876,222.831 22.681,222.765 22.416 C 222.679 22.075,222.586 22.014,222.269 22.093 C 221.968 22.169,221.858 22.112,221.788 21.846 C 221.739 21.656,221.578 21.500,221.432 21.500 C 221.286 21.500,221.167 21.425,221.167 21.333 C 221.167 21.242,221.017 21.167,220.833 21.167 C 220.650 21.167,220.500 21.092,220.500 21.000 C 220.500 20.908,220.355 20.833,220.178 20.833 C 220.001 20.833,219.808 20.683,219.750 20.500 C 219.692 20.317,219.499 20.167,219.322 20.167 C 219.145 20.167,219.000 20.092,219.000 20.000 C 219.000 19.908,218.944 19.846,218.875 19.861 C 218.626 19.915,217.833 19.627,217.833 19.482 C 217.833 19.400,217.608 19.333,217.333 19.333 C 217.058 19.333,216.833 19.250,216.833 19.149 C 216.833 19.044,216.712 19.011,216.553 19.072 C 216.367 19.143,216.145 19.032,215.895 18.741 C 215.584 18.379,215.430 18.322,215.009 18.415 C 214.663 18.491,214.500 18.463,214.500 18.327 C 214.500 18.209,214.363 18.164,214.164 18.216 C 213.979 18.264,213.715 18.191,213.576 18.052 C 213.438 17.914,213.216 17.843,213.083 17.894 C 212.951 17.944,212.775 17.866,212.692 17.718 C 212.582 17.522,212.404 17.477,212.026 17.553 C 211.647 17.629,211.471 17.585,211.360 17.386 C 211.246 17.183,211.060 17.140,210.604 17.214 C 210.127 17.292,210.000 17.258,210.000 17.054 C 210.000 16.836,209.849 16.814,209.060 16.912 C 208.226 17.017,208.132 16.999,208.225 16.754 C 208.322 16.503,208.170 16.489,206.582 16.595 C 205.319 16.680,204.833 16.660,204.833 16.523 C 204.833 16.397,204.385 16.333,203.500 16.333 C 202.615 16.333,202.167 16.397,202.167 16.523 M271.267 40.140 C 271.219 40.217,269.136 40.329,266.638 40.390 C 262.881 40.481,262.051 40.545,261.839 40.756 C 261.499 41.096,261.357 59.333,261.690 59.958 C 261.889 60.331,261.912 60.333,265.873 60.333 C 270.667 60.333,270.333 60.497,270.333 58.149 L 270.333 56.441 270.829 57.095 C 271.101 57.455,271.326 57.805,271.329 57.873 C 271.331 57.941,271.670 58.522,272.082 59.165 L 272.831 60.333 277.832 60.333 L 282.833 60.333 282.833 59.917 C 282.833 59.688,282.758 59.500,282.667 59.500 C 282.575 59.500,282.500 59.384,282.500 59.242 C 282.500 59.101,282.313 58.797,282.083 58.568 C 281.854 58.339,281.667 58.073,281.667 57.976 C 281.667 57.879,281.442 57.590,281.167 57.333 C 280.892 57.076,280.667 56.774,280.667 56.661 C 280.667 56.548,280.404 56.208,280.083 55.906 C 279.762 55.603,279.500 55.255,279.500 55.131 C 279.500 54.931,279.313 54.745,278.734 54.369 C 278.308 54.092,278.317 53.360,278.751 52.966 C 280.011 51.822,280.667 51.094,280.667 50.840 C 280.667 50.745,280.742 50.667,280.833 50.667 C 280.925 50.667,281.000 50.517,281.000 50.333 C 281.000 50.150,281.075 50.000,281.167 50.000 C 281.258 50.000,281.333 49.737,281.333 49.417 C 281.333 49.096,281.408 48.833,281.500 48.833 C 281.598 48.833,281.667 48.250,281.667 47.417 C 281.667 46.583,281.598 46.000,281.500 46.000 C 281.408 46.000,281.333 45.737,281.333 45.417 C 281.333 45.096,281.258 44.833,281.167 44.833 C 281.075 44.833,281.000 44.662,281.000 44.453 C 281.000 44.245,280.850 43.965,280.667 43.833 C 280.483 43.701,280.333 43.473,280.333 43.326 C 280.333 43.010,278.949 41.689,278.245 41.334 C 277.973 41.196,277.712 41.046,277.667 41.000 C 277.366 40.699,276.167 40.454,274.625 40.378 C 273.640 40.330,272.833 40.225,272.833 40.145 C 272.833 39.959,271.381 39.954,271.267 40.140 M300.917 40.167 C 300.860 40.258,300.346 40.333,299.775 40.333 C 298.159 40.333,295.490 41.197,294.370 42.081 C 292.664 43.429,291.344 44.881,290.960 45.833 C 290.867 46.063,290.717 46.438,290.626 46.667 C 290.536 46.896,290.395 47.214,290.314 47.373 C 290.233 47.532,290.167 47.846,290.167 48.071 C 290.167 48.296,290.092 48.527,290.000 48.583 C 289.902 48.644,289.833 49.637,289.833 51.000 C 289.833 52.363,289.902 53.356,290.000 53.417 C 290.092 53.473,290.167 53.740,290.167 54.010 C 290.167 54.279,290.242 54.500,290.333 54.500 C 290.425 54.500,290.500 54.641,290.500 54.814 C 290.500 55.896,293.597 59.333,294.572 59.333 C 294.716 59.333,294.834 59.390,294.835 59.458 C 294.836 59.627,295.661 60.000,296.033 60.000 C 296.198 60.000,296.333 60.066,296.333 60.148 C 296.333 60.299,296.899 60.448,298.083 60.610 C 298.450 60.660,298.821 60.768,298.908 60.850 C 299.127 61.057,302.955 61.042,303.083 60.833 C 303.140 60.742,303.519 60.667,303.927 60.667 C 304.334 60.667,304.667 60.592,304.667 60.500 C 304.667 60.408,304.929 60.333,305.250 60.333 C 305.571 60.333,305.833 60.258,305.833 60.167 C 305.833 60.075,305.983 60.000,306.167 60.000 C 306.389 60.000,306.500 59.889,306.500 59.667 C 306.500 59.483,306.575 59.333,306.667 59.333 C 306.773 59.333,306.833 58.028,306.833 55.750 C 306.833 53.472,306.773 52.167,306.667 52.167 C 306.575 52.167,306.500 51.942,306.500 51.667 C 306.500 51.392,306.411 51.167,306.302 51.167 C 306.053 51.167,305.003 51.873,305.001 52.042 C 305.001 52.110,304.887 52.167,304.750 52.167 C 304.612 52.167,304.500 52.234,304.500 52.317 C 304.500 52.399,304.163 52.606,303.751 52.775 C 303.338 52.945,303.001 53.140,303.001 53.208 C 303.000 53.277,302.775 53.333,302.500 53.333 C 302.225 53.333,302.000 53.408,302.000 53.500 C 302.000 53.592,301.850 53.667,301.667 53.667 C 301.483 53.667,301.333 53.592,301.333 53.500 C 301.333 53.408,301.226 53.333,301.094 53.333 C 300.963 53.333,300.760 53.071,300.644 52.750 C 300.528 52.429,300.373 52.167,300.300 52.167 C 300.227 52.167,300.167 51.829,300.167 51.417 C 300.167 51.004,300.242 50.667,300.333 50.667 C 300.425 50.667,300.500 50.474,300.500 50.238 C 300.500 50.002,300.594 49.705,300.708 49.577 C 301.203 49.026,301.333 48.837,301.333 48.674 C 301.333 48.578,301.467 48.500,301.630 48.500 C 301.793 48.500,302.035 48.350,302.167 48.167 C 302.299 47.983,302.497 47.833,302.606 47.833 C 302.716 47.833,302.835 47.744,302.872 47.634 C 302.918 47.496,303.429 47.443,304.552 47.462 L 306.167 47.489 306.167 44.088 C 306.167 40.132,306.341 40.451,304.125 40.361 C 303.231 40.324,302.500 40.228,302.500 40.147 C 302.500 39.943,301.044 39.961,300.917 40.167 M245.611 40.611 C 245.550 40.672,245.500 45.135,245.500 50.528 L 245.500 60.333 249.345 60.333 C 252.456 60.333,253.236 60.288,253.429 60.095 C 253.705 59.819,253.794 41.167,253.519 41.167 C 253.438 41.167,253.333 41.017,253.285 40.833 C 253.197 40.496,245.936 40.286,245.611 40.611 M314.929 40.762 C 314.661 41.030,314.508 59.392,314.768 60.070 C 314.858 60.304,315.660 60.333,322.101 60.333 L 329.333 60.333 329.333 57.167 L 329.333 54.000 326.167 54.000 L 323.000 54.000 323.000 47.351 C 323.000 41.442,322.971 40.691,322.736 40.601 C 322.086 40.352,315.197 40.493,314.929 40.762 M336.542 40.610 C 336.378 40.676,336.333 42.814,336.333 50.514 L 336.333 60.333 343.750 60.333 L 351.167 60.333 351.167 57.333 L 351.167 54.333 347.833 54.333 L 344.500 54.333 344.500 53.667 L 344.500 53.000 347.671 53.000 L 350.842 53.000 350.796 50.292 L 350.750 47.583 347.625 47.538 C 345.000 47.500,344.500 47.453,344.500 47.246 C 344.500 47.038,344.984 47.000,347.667 47.000 L 350.833 47.000 350.833 43.851 C 350.833 41.134,350.797 40.688,350.570 40.601 C 350.255 40.480,336.842 40.489,336.542 40.610 M273.186 45.883 C 273.867 46.401,273.600 48.094,272.713 48.881 C 272.393 49.165,270.529 50.333,270.396 50.333 C 270.362 50.333,270.333 49.508,270.333 48.500 C 270.333 46.778,270.354 46.667,270.667 46.667 C 270.850 46.667,271.000 46.592,271.000 46.500 C 271.000 46.408,271.112 46.333,271.250 46.333 C 271.387 46.333,271.500 46.258,271.500 46.167 C 271.500 46.075,271.725 46.000,272.000 46.000 C 272.275 46.000,272.500 45.925,272.500 45.833 C 272.500 45.607,272.858 45.632,273.186 45.883 M209.781 53.563 C 209.725 53.708,209.536 53.762,209.263 53.710 C 209.009 53.661,208.833 53.704,208.833 53.814 C 208.833 53.916,208.683 54.000,208.500 54.000 C 208.317 54.000,208.167 54.066,208.167 54.146 C 208.167 54.226,207.944 54.336,207.671 54.391 C 207.321 54.461,207.144 54.614,207.069 54.913 C 207.002 55.181,206.807 55.375,206.538 55.443 C 206.077 55.559,205.500 55.988,205.500 56.216 C 205.500 56.532,205.027 56.809,204.647 56.715 C 204.429 56.662,204.302 56.674,204.365 56.743 C 204.428 56.812,204.411 56.955,204.326 57.059 C 204.241 57.164,203.974 57.496,203.733 57.797 C 203.449 58.151,203.197 58.313,203.017 58.256 C 202.850 58.203,202.642 58.308,202.495 58.520 C 201.848 59.450,201.641 59.646,201.401 59.554 C 201.137 59.453,200.785 59.765,200.286 60.542 C 200.094 60.841,199.848 61.000,199.576 61.000 C 199.282 61.000,199.100 61.135,198.957 61.458 C 198.660 62.129,198.376 62.369,198.014 62.254 C 197.788 62.183,197.663 62.248,197.590 62.478 C 197.534 62.656,197.378 62.845,197.244 62.896 C 197.110 62.947,197.000 63.072,197.000 63.173 C 197.000 63.505,196.509 63.859,196.189 63.757 C 195.953 63.682,195.826 63.782,195.666 64.169 C 195.442 64.709,194.937 65.084,194.662 64.914 C 194.451 64.784,194.054 65.178,193.976 65.595 C 193.940 65.789,193.701 65.980,193.375 66.076 C 193.077 66.164,192.833 66.300,192.833 66.378 C 192.833 66.456,192.758 66.473,192.667 66.417 C 192.573 66.359,192.500 66.494,192.500 66.727 C 192.500 67.056,192.392 67.164,191.968 67.257 C 191.379 67.386,190.990 67.703,190.931 68.100 C 190.883 68.431,190.515 68.662,190.218 68.548 C 189.964 68.450,189.333 69.090,189.333 69.446 C 189.333 69.572,189.102 69.721,188.820 69.778 C 188.488 69.844,188.254 70.021,188.156 70.278 C 188.010 70.663,187.379 71.037,187.126 70.888 C 187.057 70.847,186.907 71.025,186.792 71.282 C 186.517 71.900,185.984 72.339,185.638 72.236 C 185.454 72.181,185.320 72.279,185.242 72.525 C 185.085 73.019,183.809 74.180,183.532 74.081 C 183.265 73.986,182.500 74.722,182.500 75.074 C 182.500 75.215,182.350 75.424,182.167 75.539 C 181.692 75.835,181.754 76.265,182.333 76.693 C 182.608 76.896,182.833 77.164,182.833 77.289 C 182.833 77.639,183.618 78.341,183.892 78.236 C 184.044 78.178,184.178 78.273,184.246 78.488 C 184.306 78.678,184.495 78.833,184.664 78.833 C 185.236 78.833,185.500 79.033,185.513 79.476 C 185.520 79.718,185.564 79.824,185.610 79.710 C 185.673 79.553,185.754 79.563,185.942 79.751 C 186.079 79.888,186.373 80.000,186.595 80.000 C 186.840 80.000,187.000 80.097,187.000 80.245 C 187.000 80.387,187.099 80.452,187.235 80.399 C 187.376 80.345,187.514 80.447,187.580 80.655 C 187.641 80.847,187.832 81.000,188.011 81.000 C 188.188 81.000,188.333 81.075,188.333 81.167 C 188.333 81.258,188.488 81.333,188.677 81.333 C 188.890 81.333,188.975 81.405,188.903 81.522 C 188.822 81.653,188.947 81.688,189.310 81.635 C 189.598 81.592,189.833 81.620,189.833 81.696 C 189.833 81.771,189.983 81.833,190.167 81.833 C 190.350 81.833,190.500 81.913,190.500 82.011 C 190.500 82.113,190.642 82.144,190.834 82.083 C 191.056 82.013,191.202 82.065,191.269 82.239 C 191.324 82.382,191.511 82.500,191.684 82.500 C 191.858 82.500,192.000 82.575,192.000 82.667 C 192.000 82.758,192.225 82.833,192.500 82.833 C 192.775 82.833,193.000 82.917,193.000 83.019 C 193.000 83.128,193.173 83.172,193.417 83.126 C 193.848 83.043,193.991 83.232,193.625 83.403 C 193.510 83.456,193.773 83.458,194.208 83.406 C 194.727 83.345,195.000 83.376,195.000 83.495 C 195.000 83.600,195.251 83.660,195.594 83.637 C 195.951 83.613,196.243 83.687,196.327 83.823 C 196.423 83.978,196.655 84.019,197.064 83.952 C 197.510 83.880,197.700 83.922,197.810 84.120 C 197.929 84.332,198.143 84.365,198.896 84.288 C 199.642 84.210,199.833 84.239,199.833 84.429 C 199.833 84.810,206.255 84.779,206.401 84.397 C 206.488 84.171,206.674 84.146,207.563 84.242 C 208.462 84.338,208.639 84.313,208.728 84.080 C 208.813 83.859,208.966 83.826,209.498 83.916 C 209.977 83.997,210.230 83.961,210.405 83.786 C 210.547 83.643,210.825 83.576,211.074 83.624 C 211.346 83.676,211.500 83.631,211.500 83.498 C 211.500 83.350,211.689 83.321,212.167 83.397 C 212.693 83.482,212.833 83.452,212.833 83.256 C 212.833 83.072,212.957 83.033,213.309 83.104 C 213.660 83.174,213.813 83.125,213.892 82.921 C 213.961 82.740,214.107 82.678,214.313 82.743 C 214.517 82.808,214.664 82.748,214.732 82.569 C 214.799 82.394,214.957 82.327,215.169 82.382 C 215.351 82.430,215.500 82.401,215.500 82.318 C 215.500 82.235,215.679 82.167,215.899 82.167 C 216.118 82.167,216.343 82.049,216.398 81.906 C 216.453 81.763,216.573 81.692,216.665 81.749 C 216.758 81.806,216.927 81.795,217.042 81.724 C 217.156 81.654,217.456 81.617,217.708 81.644 C 217.960 81.670,218.167 81.611,218.167 81.513 C 218.167 81.414,218.279 81.333,218.417 81.333 C 218.554 81.333,218.667 81.258,218.667 81.167 C 218.667 81.075,218.817 81.000,219.000 81.000 C 219.183 81.000,219.333 80.925,219.333 80.833 C 219.333 80.742,219.446 80.667,219.583 80.667 C 219.721 80.667,219.833 80.592,219.833 80.500 C 219.833 80.408,219.978 80.333,220.155 80.333 C 220.335 80.333,220.526 80.180,220.587 79.988 C 220.649 79.792,220.793 79.679,220.918 79.727 C 221.040 79.774,221.182 79.699,221.235 79.561 C 221.295 79.407,221.449 79.348,221.638 79.408 C 221.855 79.476,221.998 79.387,222.129 79.099 C 222.265 78.802,222.406 78.717,222.657 78.783 C 222.913 78.850,223.000 78.793,223.000 78.560 C 223.000 78.212,223.589 77.766,223.841 77.922 C 224.049 78.050,224.446 77.653,224.526 77.238 C 224.564 77.039,224.827 76.838,225.215 76.711 C 225.931 76.477,226.509 75.955,226.908 75.184 C 227.059 74.892,227.379 74.578,227.619 74.486 C 227.859 74.395,228.191 74.155,228.358 73.952 C 228.859 73.341,228.941 73.260,229.306 73.009 C 229.556 72.836,229.629 72.657,229.560 72.384 C 229.490 72.102,229.535 72.000,229.732 72.000 C 229.943 72.000,230.000 71.821,230.000 71.167 C 230.000 70.510,229.943 70.333,229.731 70.333 C 229.543 70.333,229.488 70.232,229.548 70.000 C 229.607 69.774,229.553 69.667,229.382 69.667 C 229.205 69.667,229.156 69.559,229.220 69.315 C 229.325 68.914,227.887 67.333,227.418 67.333 C 227.200 67.333,225.148 65.365,222.583 62.695 C 222.308 62.409,221.001 61.142,219.678 59.879 C 215.555 55.943,214.167 54.491,214.167 54.116 C 214.167 54.033,213.979 54.011,213.750 54.068 C 213.433 54.148,213.333 54.108,213.333 53.902 C 213.333 53.695,213.233 53.656,212.913 53.736 C 212.618 53.810,212.464 53.766,212.395 53.587 C 212.262 53.240,209.914 53.217,209.781 53.563 " stroke="none" fill="#0c4ce4" fill-rule="evenodd"></path><path id="path2" d="M192.833 18.000 C 192.833 18.092,192.946 18.167,193.083 18.167 C 193.221 18.167,193.333 18.092,193.333 18.000 C 193.333 17.908,193.221 17.833,193.083 17.833 C 192.946 17.833,192.833 17.908,192.833 18.000 M185.333 27.313 C 185.333 27.522,185.822 27.900,185.941 27.782 C 185.995 27.727,185.924 27.566,185.782 27.425 C 185.492 27.135,185.333 27.095,185.333 27.313 M225.895 34.322 C 224.249 35.980,223.462 36.851,223.539 36.928 C 223.590 36.979,223.875 36.718,225.135 35.467 C 226.539 34.071,226.833 33.756,226.833 33.648 C 226.833 33.579,226.983 33.475,227.167 33.417 C 227.496 33.312,227.636 33.000,227.354 33.000 C 227.273 33.000,226.617 33.595,225.895 34.322 M199.115 38.441 C 198.959 38.597,199.189 39.000,199.434 39.000 C 199.562 39.000,199.667 38.957,199.667 38.905 C 199.667 38.732,199.208 38.347,199.115 38.441 M200.940 40.250 C 200.992 40.387,201.149 40.500,201.288 40.500 C 201.494 40.500,201.502 40.454,201.333 40.250 C 201.219 40.112,201.062 40.000,200.985 40.000 C 200.907 40.000,200.887 40.112,200.940 40.250 M214.000 45.833 C 214.000 45.925,214.112 46.000,214.250 46.000 C 214.387 46.000,214.500 45.925,214.500 45.833 C 214.500 45.742,214.387 45.667,214.250 45.667 C 214.112 45.667,214.000 45.742,214.000 45.833 M208.000 46.167 C 208.000 46.258,208.112 46.333,208.250 46.333 C 208.387 46.333,208.500 46.258,208.500 46.167 C 208.500 46.075,208.387 46.000,208.250 46.000 C 208.112 46.000,208.000 46.075,208.000 46.167 M209.333 46.500 C 209.333 46.592,209.446 46.667,209.583 46.667 C 209.721 46.667,209.833 46.592,209.833 46.500 C 209.833 46.408,209.721 46.333,209.583 46.333 C 209.446 46.333,209.333 46.408,209.333 46.500 M215.333 55.299 C 215.333 55.529,217.649 57.740,217.766 57.623 C 217.847 57.542,215.579 55.167,215.422 55.167 C 215.373 55.167,215.333 55.226,215.333 55.299 M187.525 70.267 C 187.401 70.407,187.338 70.561,187.386 70.608 C 187.530 70.752,188.183 70.328,188.078 70.158 C 187.943 69.939,187.788 69.969,187.525 70.267 M186.020 71.484 C 185.894 71.564,185.843 71.713,185.906 71.816 C 185.987 71.948,186.091 71.932,186.261 71.763 C 186.661 71.363,186.502 71.179,186.020 71.484 M184.174 73.097 C 183.856 73.410,183.694 73.667,183.814 73.667 C 184.048 73.667,185.000 72.831,185.000 72.626 C 185.000 72.386,184.747 72.530,184.174 73.097 M227.358 74.767 C 227.054 75.111,227.250 75.274,227.575 74.948 C 227.717 74.807,227.833 74.648,227.833 74.595 C 227.833 74.420,227.586 74.510,227.358 74.767 M181.838 75.160 C 181.703 75.245,181.636 75.359,181.689 75.412 C 181.821 75.543,182.333 75.334,182.333 75.149 C 182.333 74.959,182.150 74.963,181.838 75.160 M182.167 77.167 C 182.167 77.258,182.279 77.333,182.417 77.333 C 182.554 77.333,182.667 77.258,182.667 77.167 C 182.667 77.075,182.554 77.000,182.417 77.000 C 182.279 77.000,182.167 77.075,182.167 77.167 M190.667 82.333 C 190.667 82.425,190.779 82.500,190.917 82.500 C 191.054 82.500,191.167 82.425,191.167 82.333 C 191.167 82.242,191.054 82.167,190.917 82.167 C 190.779 82.167,190.667 82.242,190.667 82.333 M206.667 84.500 C 206.667 84.592,206.929 84.667,207.250 84.667 C 207.571 84.667,207.833 84.592,207.833 84.500 C 207.833 84.408,207.571 84.333,207.250 84.333 C 206.929 84.333,206.667 84.408,206.667 84.500 " stroke="none" fill="#6284ec" fill-rule="evenodd"></path><path id="path3" d="M200.167 16.534 C 200.167 16.731,201.129 16.695,201.254 16.494 C 201.321 16.384,201.142 16.336,200.764 16.361 C 200.435 16.383,200.167 16.461,200.167 16.534 M205.833 16.500 C 205.833 16.592,206.077 16.666,206.375 16.664 C 206.786 16.662,206.856 16.623,206.667 16.500 C 206.339 16.288,205.833 16.288,205.833 16.500 M198.126 16.611 C 198.241 16.657,198.293 16.764,198.241 16.848 C 198.189 16.931,198.226 17.000,198.323 17.000 C 198.421 17.000,198.500 16.887,198.500 16.750 C 198.500 16.612,198.369 16.506,198.208 16.513 C 198.032 16.521,198.000 16.560,198.126 16.611 M222.833 22.500 C 222.833 22.592,222.946 22.667,223.083 22.667 C 223.221 22.667,223.333 22.592,223.333 22.500 C 223.333 22.408,223.221 22.333,223.083 22.333 C 222.946 22.333,222.833 22.408,222.833 22.500 M212.500 53.500 C 212.500 53.592,212.612 53.667,212.750 53.667 C 212.887 53.667,213.000 53.592,213.000 53.500 C 213.000 53.408,212.887 53.333,212.750 53.333 C 212.612 53.333,212.500 53.408,212.500 53.500 M204.838 56.327 C 204.703 56.412,204.649 56.538,204.717 56.606 C 204.785 56.674,204.968 56.603,205.123 56.448 C 205.424 56.147,205.244 56.070,204.838 56.327 M203.292 57.660 C 203.059 57.887,203.049 57.944,203.243 57.944 C 203.376 57.944,203.528 57.834,203.580 57.698 C 203.715 57.346,203.626 57.335,203.292 57.660 M217.667 57.797 C 217.667 57.868,217.826 58.037,218.020 58.172 C 218.215 58.306,218.671 58.698,219.034 59.042 C 219.753 59.723,220.075 59.883,219.567 59.306 C 218.361 57.937,217.667 57.386,217.667 57.797 M201.539 59.167 C 201.424 59.350,201.374 59.500,201.427 59.500 C 201.552 59.500,202.000 59.053,202.000 58.929 C 202.000 58.717,201.734 58.854,201.539 59.167 M199.762 60.595 C 199.585 60.724,199.488 60.877,199.546 60.935 C 199.604 60.992,199.776 60.915,199.929 60.762 C 200.288 60.403,200.177 60.292,199.762 60.595 M198.000 62.000 C 198.000 62.209,198.177 62.209,198.500 62.000 C 198.702 61.869,198.678 61.838,198.375 61.836 C 198.169 61.834,198.000 61.908,198.000 62.000 M196.455 63.321 C 196.396 63.546,196.440 63.615,196.602 63.553 C 196.729 63.504,196.833 63.360,196.833 63.232 C 196.833 62.886,196.551 62.952,196.455 63.321 M223.333 63.211 C 223.333 63.364,224.674 64.715,224.750 64.639 C 224.829 64.559,224.264 63.906,223.707 63.433 C 223.501 63.258,223.333 63.158,223.333 63.211 M181.410 75.678 C 181.220 75.985,181.472 76.052,181.754 75.770 C 181.987 75.537,181.989 75.500,181.772 75.500 C 181.633 75.500,181.470 75.580,181.410 75.678 " stroke="none" fill="#426fed" fill-rule="evenodd"></path><path id="path4" d="M201.250 16.500 C 201.190 16.597,201.359 16.667,201.657 16.667 C 201.937 16.667,202.167 16.592,202.167 16.500 C 202.167 16.408,201.984 16.333,201.760 16.333 C 201.536 16.333,201.307 16.408,201.250 16.500 M204.833 16.500 C 204.833 16.592,205.058 16.667,205.333 16.667 C 205.608 16.667,205.833 16.592,205.833 16.500 C 205.833 16.408,205.608 16.333,205.333 16.333 C 205.058 16.333,204.833 16.408,204.833 16.500 M198.500 16.755 C 198.500 17.025,198.760 17.086,198.906 16.851 C 198.957 16.769,198.886 16.659,198.749 16.606 C 198.598 16.548,198.500 16.607,198.500 16.755 M187.449 20.273 C 187.316 20.406,187.466 20.667,187.677 20.667 C 187.763 20.667,187.833 20.554,187.833 20.417 C 187.833 20.159,187.637 20.086,187.449 20.273 M223.000 22.833 C 223.323 23.042,223.500 23.042,223.500 22.833 C 223.500 22.742,223.331 22.668,223.125 22.669 C 222.822 22.671,222.798 22.703,223.000 22.833 M184.964 26.873 C 185.158 27.107,185.833 27.391,185.833 27.239 C 185.833 27.204,185.590 27.049,185.292 26.895 C 184.834 26.658,184.783 26.655,184.964 26.873 M228.904 29.481 C 228.897 29.904,228.921 30.119,228.958 29.958 C 228.994 29.798,229.094 29.667,229.179 29.667 C 229.412 29.667,229.364 28.881,229.125 28.790 C 228.978 28.735,228.913 28.938,228.904 29.481 M188.389 29.750 C 188.389 29.887,188.536 30.000,188.715 30.000 C 188.986 30.000,189.006 29.958,188.833 29.750 C 188.719 29.613,188.573 29.500,188.507 29.500 C 188.442 29.500,188.389 29.613,188.389 29.750 M189.833 31.000 C 189.833 31.092,190.002 31.166,190.208 31.164 C 190.512 31.162,190.535 31.131,190.333 31.000 C 190.010 30.791,189.833 30.791,189.833 31.000 M191.568 32.222 C 191.622 32.390,191.667 32.559,191.667 32.597 C 191.667 32.635,191.810 32.667,191.986 32.667 C 192.162 32.667,192.343 32.760,192.390 32.875 C 192.453 33.032,192.477 33.033,192.487 32.881 C 192.494 32.770,192.331 32.590,192.125 32.481 C 191.919 32.372,191.687 32.201,191.609 32.100 C 191.525 31.990,191.508 32.039,191.568 32.222 M226.418 33.499 C 226.251 33.683,226.169 33.833,226.236 33.833 C 226.412 33.833,226.887 33.331,226.797 33.241 C 226.755 33.199,226.584 33.315,226.418 33.499 M224.748 35.168 C 224.486 35.442,224.326 35.667,224.393 35.667 C 224.565 35.667,225.384 34.829,225.297 34.742 C 225.258 34.702,225.011 34.894,224.748 35.168 M196.604 36.285 C 196.443 36.446,196.845 36.833,197.173 36.833 C 197.338 36.833,197.510 36.927,197.556 37.042 C 197.603 37.156,197.646 37.170,197.654 37.073 C 197.670 36.849,196.739 36.150,196.604 36.285 M223.353 36.591 C 223.326 36.831,222.862 37.423,222.167 38.106 C 220.778 39.468,220.140 40.167,220.286 40.165 C 220.624 40.160,223.523 36.999,223.450 36.716 C 223.407 36.551,223.363 36.495,223.353 36.591 M198.584 38.168 C 198.751 38.352,198.921 38.468,198.963 38.426 C 199.054 38.335,198.578 37.833,198.403 37.833 C 198.336 37.833,198.418 37.984,198.584 38.168 M202.333 41.333 C 202.333 41.425,202.450 41.500,202.593 41.500 C 202.736 41.500,202.817 41.559,202.772 41.631 C 202.728 41.703,202.843 41.762,203.028 41.762 C 203.355 41.762,203.354 41.753,202.997 41.464 C 202.587 41.132,202.333 41.082,202.333 41.333 M204.167 42.762 C 204.167 42.965,204.657 43.333,204.927 43.333 C 205.149 43.333,205.118 43.260,204.788 43.000 C 204.359 42.662,204.167 42.589,204.167 42.762 M206.858 45.158 C 206.895 45.268,206.979 45.353,207.046 45.346 C 207.245 45.325,207.207 45.097,206.992 45.025 C 206.882 44.988,206.822 45.048,206.858 45.158 M211.576 46.344 C 211.387 46.652,211.638 46.719,211.921 46.437 C 212.154 46.203,212.156 46.167,211.938 46.167 C 211.800 46.167,211.637 46.247,211.576 46.344 M214.667 54.682 C 214.667 54.782,214.817 55.055,215.000 55.288 C 215.402 55.798,215.421 55.727,215.071 55.026 C 214.799 54.481,214.667 54.368,214.667 54.682 M206.846 54.958 C 206.839 55.073,206.683 55.167,206.500 55.167 C 206.317 55.167,206.167 55.242,206.167 55.333 C 206.167 55.425,206.260 55.499,206.375 55.497 C 206.736 55.493,207.044 55.214,206.950 54.978 C 206.886 54.816,206.856 54.811,206.846 54.958 M205.117 56.432 C 204.784 56.878,204.884 56.973,205.275 56.582 C 205.414 56.444,205.502 56.263,205.472 56.181 C 205.441 56.098,205.282 56.211,205.117 56.432 M203.670 57.662 C 203.544 57.837,203.398 57.976,203.345 57.970 C 202.919 57.926,202.779 58.012,202.969 58.202 C 203.128 58.361,203.268 58.308,203.618 57.957 C 203.864 57.711,204.028 57.473,203.983 57.427 C 203.937 57.381,203.796 57.487,203.670 57.662 M220.083 60.257 C 221.183 61.310,222.308 62.406,222.583 62.693 C 224.788 64.996,227.188 67.333,227.347 67.333 C 227.594 67.333,227.388 67.082,226.024 65.723 C 225.441 65.142,224.894 64.667,224.810 64.667 C 224.615 64.667,223.521 63.581,223.461 63.329 C 223.406 63.096,220.140 59.841,219.733 59.614 C 219.570 59.523,219.186 59.197,218.880 58.891 C 218.573 58.584,218.268 58.335,218.203 58.338 C 218.137 58.341,218.983 59.204,220.083 60.257 M201.909 59.058 C 201.530 59.476,201.478 59.728,201.843 59.380 C 202.057 59.176,202.198 58.977,202.157 58.938 C 202.117 58.899,202.005 58.953,201.909 59.058 M196.167 63.569 C 196.167 63.715,196.285 63.833,196.431 63.833 C 196.576 63.833,196.665 63.744,196.628 63.635 C 196.525 63.326,196.167 63.275,196.167 63.569 M195.333 64.472 C 195.333 64.579,195.183 64.667,195.000 64.667 C 194.817 64.667,194.667 64.742,194.667 64.833 C 194.667 65.066,194.880 65.041,195.260 64.764 C 195.437 64.634,195.527 64.471,195.458 64.403 C 195.389 64.334,195.333 64.365,195.333 64.472 M193.833 65.639 C 193.833 65.746,193.683 65.833,193.500 65.833 C 193.317 65.833,193.167 65.908,193.167 66.000 C 193.167 66.233,193.380 66.208,193.760 65.930 C 193.937 65.800,194.027 65.638,193.958 65.569 C 193.889 65.501,193.833 65.532,193.833 65.639 M190.502 68.315 C 190.262 68.382,190.164 68.478,190.269 68.543 C 190.369 68.605,190.593 68.548,190.767 68.417 C 191.115 68.153,191.103 68.148,190.502 68.315 M188.667 69.667 C 188.667 69.875,188.844 69.875,189.167 69.667 C 189.369 69.536,189.345 69.505,189.042 69.503 C 188.835 69.501,188.667 69.575,188.667 69.667 M187.542 70.618 C 187.335 70.657,187.167 70.753,187.167 70.829 C 187.167 71.001,187.804 70.848,187.929 70.647 C 187.979 70.566,187.996 70.510,187.968 70.523 C 187.940 70.535,187.748 70.578,187.542 70.618 M186.243 71.845 C 186.182 71.943,186.028 71.982,185.900 71.933 C 185.765 71.882,185.667 71.947,185.667 72.089 C 185.667 72.414,185.782 72.398,186.288 72.000 C 186.521 71.817,186.631 71.667,186.532 71.667 C 186.434 71.667,186.303 71.747,186.243 71.845 M229.513 72.292 C 229.521 72.468,229.560 72.500,229.611 72.374 C 229.657 72.259,229.764 72.207,229.848 72.259 C 229.931 72.311,230.000 72.274,230.000 72.177 C 230.000 72.079,229.887 72.000,229.750 72.000 C 229.612 72.000,229.506 72.131,229.513 72.292 M183.578 73.842 C 183.420 74.098,183.637 74.263,183.851 74.049 C 183.970 73.930,183.973 73.836,183.859 73.766 C 183.766 73.708,183.640 73.742,183.578 73.842 M181.542 75.926 C 181.294 76.196,181.262 76.564,181.500 76.417 C 181.592 76.360,181.667 76.393,181.667 76.490 C 181.667 76.587,181.788 76.667,181.937 76.667 C 182.132 76.667,182.161 76.609,182.038 76.458 C 181.945 76.344,181.842 76.126,181.810 75.975 C 181.760 75.744,181.716 75.736,181.542 75.926 M221.167 79.634 C 221.167 79.738,221.054 79.780,220.917 79.727 C 220.779 79.674,220.667 79.714,220.667 79.816 C 220.667 79.917,220.775 80.000,220.907 80.000 C 221.179 80.000,221.418 79.696,221.267 79.544 C 221.212 79.489,221.167 79.530,221.167 79.634 M208.743 84.011 C 208.598 84.246,208.818 84.459,208.967 84.228 C 209.031 84.130,209.196 84.007,209.333 83.955 C 209.503 83.890,209.467 83.855,209.218 83.846 C 209.017 83.839,208.804 83.913,208.743 84.011 M206.444 84.278 C 206.275 84.447,206.312 84.667,206.510 84.667 C 206.607 84.667,206.643 84.597,206.590 84.511 C 206.538 84.426,206.702 84.325,206.956 84.286 C 207.416 84.217,207.416 84.217,206.986 84.192 C 206.749 84.178,206.506 84.217,206.444 84.278 " stroke="none" fill="#406ce4" fill-rule="evenodd"></path></g></svg>